<svg width="162" height="50" viewBox="0 0 162 50" fill="none" xmlns="http://www.w3.org/2000/svg">
<rect x="0.5" y="0.5" width="161" height="49" rx="5.5" fill="black"/>
<path fill-rule="evenodd" clip-rule="evenodd" d="M32.1121 25.726C32.1393 23.6054 33.2476 21.6466 35.0487 20.5359C33.9073 18.9008 32.0641 17.9012 30.0751 17.8388C27.9825 17.6185 25.9539 19.0949 24.8875 19.0949C23.8005 19.0949 22.1587 17.8607 20.3908 17.8972C18.0646 17.9726 15.9486 19.2671 14.8168 21.307C12.4068 25.4925 14.2044 31.6439 16.5131 35.0271C17.6681 36.6838 19.0181 38.5344 20.7844 38.4687C22.5129 38.3968 23.1585 37.3631 25.2449 37.3631C27.312 37.3631 27.9177 38.4687 29.7199 38.427C31.5746 38.3968 32.7432 36.763 33.8577 35.0906C34.6876 33.9101 35.3263 32.6055 35.7499 31.225C33.547 30.2904 32.1147 28.1252 32.1121 25.726Z" fill="white"/>
<path fill-rule="evenodd" clip-rule="evenodd" d="M28.7078 15.6133C29.7191 14.3955 30.2173 12.8303 30.0967 11.25C28.5517 11.4128 27.1245 12.1535 26.0996 13.3245C25.0875 14.4799 24.5747 15.9915 24.6743 17.5262C26.2401 17.5424 27.7267 16.8374 28.7078 15.6133Z" fill="white"/>
<path d="M51.7867 17.2243V10.9918H53.5811C54.0746 10.9918 54.4896 11.063 54.826 11.2055C55.1625 11.3405 55.4354 11.543 55.6447 11.813C55.8616 12.0755 56.0149 12.398 56.1046 12.7805C56.2018 13.1555 56.2504 13.583 56.2504 14.063C56.2504 14.558 56.198 14.9818 56.0934 15.3343C55.9962 15.6793 55.8691 15.968 55.712 16.2005C55.555 16.433 55.3756 16.6168 55.1737 16.7518C54.9793 16.8868 54.7812 16.9918 54.5793 17.0668C54.3774 17.1343 54.1867 17.1793 54.0073 17.2018C53.8279 17.2168 53.6783 17.2243 53.5587 17.2243H51.7867ZM50.7212 10.0918V18.1243H53.469C54.1344 18.1243 54.7101 18.0305 55.1961 17.843C55.6821 17.6555 56.0821 17.3855 56.3962 17.033C56.7102 16.673 56.942 16.2343 57.0915 15.7168C57.2411 15.1918 57.3158 14.5918 57.3158 13.9168C57.3158 12.6268 56.9831 11.6668 56.3177 11.0368C55.6522 10.4068 54.7027 10.0918 53.469 10.0918H50.7212Z" fill="white"/>
<path d="M59.3806 15.2218C59.3806 14.8693 59.4255 14.558 59.5152 14.288C59.6124 14.0105 59.7432 13.778 59.9077 13.5905C60.0722 13.403 60.2629 13.2605 60.4797 13.163C60.704 13.0655 60.9395 13.0168 61.1863 13.0168C61.433 13.0168 61.6648 13.0655 61.8816 13.163C62.1059 13.2605 62.3003 13.403 62.4648 13.5905C62.6293 13.778 62.7564 14.0105 62.8462 14.288C62.9434 14.558 62.992 14.8693 62.992 15.2218C62.992 15.5743 62.9434 15.8893 62.8462 16.1668C62.7564 16.4368 62.6293 16.6655 62.4648 16.853C62.3003 17.033 62.1059 17.1718 61.8816 17.2693C61.6648 17.3668 61.433 17.4155 61.1863 17.4155C60.9395 17.4155 60.704 17.3668 60.4797 17.2693C60.2629 17.1718 60.0722 17.033 59.9077 16.853C59.7432 16.6655 59.6124 16.4368 59.5152 16.1668C59.4255 15.8893 59.3806 15.5743 59.3806 15.2218ZM58.3712 15.2218C58.3712 15.6493 58.431 16.0468 58.5507 16.4143C58.6703 16.7818 58.8497 17.1043 59.089 17.3818C59.3283 17.6518 59.6236 17.8655 59.975 18.023C60.3264 18.173 60.7302 18.248 61.1863 18.248C61.6499 18.248 62.0536 18.173 62.3975 18.023C62.749 17.8655 63.0443 17.6518 63.2836 17.3818C63.5228 17.1043 63.7023 16.7818 63.8219 16.4143C63.9415 16.0468 64.0013 15.6493 64.0013 15.2218C64.0013 14.7943 63.9415 14.3968 63.8219 14.0293C63.7023 13.6543 63.5228 13.3318 63.2836 13.0618C63.0443 12.7843 62.749 12.5668 62.3975 12.4093C62.0536 12.2518 61.6499 12.173 61.1863 12.173C60.7302 12.173 60.3264 12.2518 59.975 12.4093C59.6236 12.5668 59.3283 12.7843 59.089 13.0618C58.8497 13.3318 58.6703 13.6543 58.5507 14.0293C58.431 14.3968 58.3712 14.7943 58.3712 15.2218Z" fill="white"/>
<path d="M71.0919 18.1243L72.9425 12.308H71.9555L70.6545 17.0668H70.6321L69.4208 12.308H68.3778L67.2114 17.0668H67.189L65.8768 12.308H64.8225L66.6843 18.1243H67.7161L68.8825 13.5005H68.9049L70.0825 18.1243H71.0919Z" fill="white"/>
<path d="M74.0731 12.308V18.1243H75.0264V14.8393C75.0264 14.5768 75.0601 14.3368 75.1274 14.1193C75.2021 13.8943 75.3105 13.6993 75.4526 13.5343C75.5947 13.3693 75.7704 13.2418 75.9797 13.1518C76.1966 13.0618 76.4508 13.0168 76.7424 13.0168C77.1087 13.0168 77.3966 13.1218 77.606 13.3318C77.8153 13.5418 77.92 13.8268 77.92 14.1868V18.1243H78.8733V14.2993C78.8733 13.9843 78.8397 13.6993 78.7724 13.4443C78.7125 13.1818 78.6041 12.9568 78.4471 12.7693C78.2901 12.5818 78.0845 12.4355 77.8303 12.3305C77.5761 12.2255 77.2583 12.173 76.877 12.173C76.0171 12.173 75.3891 12.5255 74.9928 13.2305H74.9703V12.308H74.0731Z" fill="white"/>
<path d="M80.5855 10.0918V18.1243H81.5388V10.0918H80.5855Z" fill="white"/>
<path d="M83.9353 15.2218C83.9353 14.8693 83.9802 14.558 84.0699 14.288C84.1671 14.0105 84.2979 13.778 84.4624 13.5905C84.6269 13.403 84.8176 13.2605 85.0344 13.163C85.2587 13.0655 85.4942 13.0168 85.741 13.0168C85.9877 13.0168 86.2195 13.0655 86.4363 13.163C86.6606 13.2605 86.855 13.403 87.0195 13.5905C87.184 13.778 87.3111 14.0105 87.4008 14.288C87.498 14.558 87.5466 14.8693 87.5466 15.2218C87.5466 15.5743 87.498 15.8893 87.4008 16.1668C87.3111 16.4368 87.184 16.6655 87.0195 16.853C86.855 17.033 86.6606 17.1718 86.4363 17.2693C86.2195 17.3668 85.9877 17.4155 85.741 17.4155C85.4942 17.4155 85.2587 17.3668 85.0344 17.2693C84.8176 17.1718 84.6269 17.033 84.4624 16.853C84.2979 16.6655 84.1671 16.4368 84.0699 16.1668C83.9802 15.8893 83.9353 15.5743 83.9353 15.2218ZM82.9259 15.2218C82.9259 15.6493 82.9857 16.0468 83.1054 16.4143C83.225 16.7818 83.4044 17.1043 83.6437 17.3818C83.883 17.6518 84.1783 17.8655 84.5297 18.023C84.8811 18.173 85.2849 18.248 85.741 18.248C86.2045 18.248 86.6083 18.173 86.9522 18.023C87.3036 17.8655 87.599 17.6518 87.8382 17.3818C88.0775 17.1043 88.257 16.7818 88.3766 16.4143C88.4962 16.0468 88.556 15.6493 88.556 15.2218C88.556 14.7943 88.4962 14.3968 88.3766 14.0293C88.257 13.6543 88.0775 13.3318 87.8382 13.0618C87.599 12.7843 87.3036 12.5668 86.9522 12.4093C86.6083 12.2518 86.2045 12.173 85.741 12.173C85.2849 12.173 84.8811 12.2518 84.5297 12.4093C84.1783 12.5668 83.883 12.7843 83.6437 13.0618C83.4044 13.3318 83.225 13.6543 83.1054 14.0293C82.9857 14.3968 82.9259 14.7943 82.9259 15.2218Z" fill="white"/>
<path d="M95.041 18.1018C94.8765 18.1993 94.6484 18.248 94.3568 18.248C94.1101 18.248 93.912 18.1805 93.7624 18.0455C93.6204 17.903 93.5493 17.6743 93.5493 17.3593C93.2876 17.6743 92.9811 17.903 92.6297 18.0455C92.2857 18.1805 91.9119 18.248 91.5081 18.248C91.2464 18.248 90.996 18.218 90.7567 18.158C90.5249 18.098 90.323 18.0043 90.1511 17.8768C89.9791 17.7493 89.8408 17.5843 89.7361 17.3818C89.6389 17.1718 89.5903 16.9205 89.5903 16.628C89.5903 16.298 89.6464 16.028 89.7585 15.818C89.8707 15.608 90.0165 15.4393 90.1959 15.3118C90.3829 15.1768 90.5922 15.0755 90.824 15.008C91.0633 14.9405 91.3063 14.8843 91.553 14.8393C91.8147 14.7868 92.0614 14.7493 92.2932 14.7268C92.5325 14.6968 92.7418 14.6593 92.9213 14.6143C93.1007 14.5618 93.2428 14.4905 93.3475 14.4005C93.4521 14.303 93.5045 14.1643 93.5045 13.9843C93.5045 13.7743 93.4633 13.6055 93.3811 13.478C93.3063 13.3505 93.2054 13.253 93.0783 13.1855C92.9587 13.118 92.8203 13.073 92.6633 13.0505C92.5138 13.028 92.3642 13.0168 92.2147 13.0168C91.8109 13.0168 91.4745 13.0955 91.2053 13.253C90.9361 13.403 90.7903 13.6918 90.7679 14.1193H89.8146C89.8296 13.7593 89.9043 13.4555 90.0389 13.208C90.1735 12.9605 90.3529 12.7618 90.5773 12.6118C90.8016 12.4543 91.0558 12.3418 91.3399 12.2743C91.6315 12.2068 91.9418 12.173 92.2708 12.173C92.5325 12.173 92.7904 12.1918 93.0446 12.2293C93.3063 12.2668 93.5419 12.3455 93.7512 12.4655C93.9606 12.578 94.1288 12.7393 94.2559 12.9493C94.383 13.1593 94.4466 13.433 94.4466 13.7705V16.763C94.4466 16.988 94.4578 17.153 94.4802 17.258C94.5101 17.363 94.5998 17.4155 94.7494 17.4155C94.8316 17.4155 94.9288 17.3968 95.041 17.3593V18.1018ZM93.4933 15.1205C93.3736 15.2105 93.2166 15.278 93.0222 15.323C92.8278 15.3605 92.6222 15.3943 92.4054 15.4243C92.196 15.4468 91.9829 15.4768 91.7661 15.5143C91.5493 15.5443 91.3549 15.5968 91.1829 15.6718C91.0109 15.7468 90.8689 15.8555 90.7567 15.998C90.652 16.133 90.5997 16.3205 90.5997 16.5605C90.5997 16.718 90.6296 16.853 90.6894 16.9655C90.7567 17.0705 90.8389 17.1568 90.9361 17.2243C91.0408 17.2918 91.1605 17.3405 91.295 17.3705C91.4296 17.4005 91.5717 17.4155 91.7212 17.4155C92.0353 17.4155 92.3044 17.3743 92.5287 17.2918C92.753 17.2018 92.9362 17.093 93.0783 16.9655C93.2203 16.8305 93.325 16.688 93.3923 16.538C93.4596 16.3805 93.4933 16.2343 93.4933 16.0993V15.1205Z" fill="white"/>
<path d="M96.8479 15.2668C96.8479 14.9818 96.8778 14.7043 96.9376 14.4343C96.9974 14.1643 97.0946 13.9243 97.2292 13.7143C97.3638 13.5043 97.5432 13.3355 97.7675 13.208C97.9918 13.0805 98.2648 13.0168 98.5863 13.0168C98.9152 13.0168 99.1956 13.0805 99.4274 13.208C99.6592 13.328 99.8461 13.4893 99.9882 13.6918C100.138 13.8943 100.246 14.1305 100.313 14.4005C100.381 14.663 100.414 14.9368 100.414 15.2218C100.414 15.4918 100.381 15.758 100.313 16.0205C100.254 16.283 100.153 16.5193 100.011 16.7293C99.8686 16.9318 99.6854 17.0968 99.4611 17.2243C99.2368 17.3518 98.9639 17.4155 98.6423 17.4155C98.3358 17.4155 98.0666 17.3555 97.8348 17.2355C97.6105 17.1155 97.4236 16.9543 97.2741 16.7518C97.132 16.5493 97.0236 16.3205 96.9488 16.0655C96.8815 15.803 96.8479 15.5368 96.8479 15.2668ZM101.334 18.1243V10.0918H100.381V13.0843H100.358C100.254 12.9118 100.123 12.7693 99.9658 12.6568C99.8162 12.5368 99.6555 12.443 99.4835 12.3755C99.3115 12.3005 99.1396 12.248 98.9676 12.218C98.7956 12.188 98.6349 12.173 98.4853 12.173C98.0442 12.173 97.6554 12.2555 97.3189 12.4205C96.9899 12.578 96.7133 12.7955 96.489 13.073C96.2722 13.343 96.1077 13.6618 95.9955 14.0293C95.8908 14.3968 95.8385 14.7868 95.8385 15.1993C95.8385 15.6118 95.8946 16.0018 96.0067 16.3693C96.1189 16.7368 96.2834 17.0593 96.5002 17.3368C96.7245 17.6143 97.0012 17.8355 97.3301 18.0005C97.6666 18.1655 98.0591 18.248 98.5078 18.248C98.9115 18.248 99.2816 18.1768 99.6181 18.0343C99.9545 17.8918 100.201 17.6593 100.358 17.3368H100.381V18.1243H101.334Z" fill="white"/>
<path d="M107.066 15.2218C107.066 14.8693 107.111 14.558 107.201 14.288C107.298 14.0105 107.429 13.778 107.593 13.5905C107.758 13.403 107.948 13.2605 108.165 13.163C108.39 13.0655 108.625 13.0168 108.872 13.0168C109.119 13.0168 109.35 13.0655 109.567 13.163C109.791 13.2605 109.986 13.403 110.15 13.5905C110.315 13.778 110.442 14.0105 110.532 14.288C110.629 14.558 110.678 14.8693 110.678 15.2218C110.678 15.5743 110.629 15.8893 110.532 16.1668C110.442 16.4368 110.315 16.6655 110.15 16.853C109.986 17.033 109.791 17.1718 109.567 17.2693C109.35 17.3668 109.119 17.4155 108.872 17.4155C108.625 17.4155 108.39 17.3668 108.165 17.2693C107.948 17.1718 107.758 17.033 107.593 16.853C107.429 16.6655 107.298 16.4368 107.201 16.1668C107.111 15.8893 107.066 15.5743 107.066 15.2218ZM106.057 15.2218C106.057 15.6493 106.117 16.0468 106.236 16.4143C106.356 16.7818 106.535 17.1043 106.775 17.3818C107.014 17.6518 107.309 17.8655 107.661 18.023C108.012 18.173 108.416 18.248 108.872 18.248C109.335 18.248 109.739 18.173 110.083 18.023C110.435 17.8655 110.73 17.6518 110.969 17.3818C111.208 17.1043 111.388 16.7818 111.507 16.4143C111.627 16.0468 111.687 15.6493 111.687 15.2218C111.687 14.7943 111.627 14.3968 111.507 14.0293C111.388 13.6543 111.208 13.3318 110.969 13.0618C110.73 12.7843 110.435 12.5668 110.083 12.4093C109.739 12.2518 109.335 12.173 108.872 12.173C108.416 12.173 108.012 12.2518 107.661 12.4093C107.309 12.5668 107.014 12.7843 106.775 13.0618C106.535 13.3318 106.356 13.6543 106.236 14.0293C106.117 14.3968 106.057 14.7943 106.057 15.2218Z" fill="white"/>
<path d="M113.035 12.308V18.1243H113.988V14.8393C113.988 14.5768 114.022 14.3368 114.089 14.1193C114.164 13.8943 114.273 13.6993 114.415 13.5343C114.557 13.3693 114.732 13.2418 114.942 13.1518C115.159 13.0618 115.413 13.0168 115.704 13.0168C116.071 13.0168 116.359 13.1218 116.568 13.3318C116.777 13.5418 116.882 13.8268 116.882 14.1868V18.1243H117.835V14.2993C117.835 13.9843 117.802 13.6993 117.734 13.4443C117.675 13.1818 117.566 12.9568 117.409 12.7693C117.252 12.5818 117.047 12.4355 116.792 12.3305C116.538 12.2255 116.22 12.173 115.839 12.173C114.979 12.173 114.351 12.5255 113.955 13.2305H113.932V12.308H113.035Z" fill="white"/>
<path d="M124.161 12.308V10.5643H123.207V12.308H122.22V13.1518H123.207V16.853C123.207 17.123 123.234 17.3405 123.286 17.5055C123.338 17.6705 123.417 17.798 123.521 17.888C123.634 17.978 123.776 18.0418 123.948 18.0793C124.127 18.1093 124.34 18.1243 124.587 18.1243H125.316V17.2805H124.878C124.729 17.2805 124.606 17.2768 124.508 17.2693C124.419 17.2543 124.348 17.228 124.295 17.1905C124.243 17.153 124.206 17.1005 124.183 17.033C124.168 16.9655 124.161 16.8755 124.161 16.763V13.1518H125.316V12.308H124.161Z" fill="white"/>
<path d="M126.599 10.0918V18.1243H127.553V14.8393C127.553 14.5768 127.586 14.3368 127.653 14.1193C127.728 13.8943 127.837 13.6993 127.979 13.5343C128.121 13.3693 128.296 13.2418 128.506 13.1518C128.723 13.0618 128.977 13.0168 129.268 13.0168C129.635 13.0168 129.923 13.1218 130.132 13.3318C130.341 13.5418 130.446 13.8268 130.446 14.1868V18.1243H131.399V14.2993C131.399 13.9843 131.366 13.6993 131.298 13.4443C131.239 13.1818 131.13 12.9568 130.973 12.7693C130.816 12.5818 130.611 12.4355 130.356 12.3305C130.102 12.2255 129.784 12.173 129.403 12.173C129.231 12.173 129.052 12.1918 128.865 12.2293C128.685 12.2668 128.51 12.3268 128.338 12.4093C128.173 12.4843 128.024 12.5855 127.889 12.713C127.754 12.833 127.65 12.983 127.575 13.163H127.553V10.0918H126.599Z" fill="white"/>
<path d="M137.082 14.6593H133.751C133.766 14.4343 133.814 14.2243 133.897 14.0293C133.979 13.8268 134.091 13.6505 134.233 13.5005C134.375 13.3505 134.543 13.2343 134.738 13.1518C134.94 13.0618 135.164 13.0168 135.411 13.0168C135.65 13.0168 135.867 13.0618 136.061 13.1518C136.263 13.2343 136.435 13.3505 136.577 13.5005C136.727 13.643 136.843 13.8155 136.925 14.018C137.015 14.2205 137.067 14.4343 137.082 14.6593ZM138.002 16.2793H137.059C136.977 16.6618 136.805 16.9468 136.544 17.1343C136.289 17.3218 135.96 17.4155 135.557 17.4155C135.243 17.4155 134.97 17.363 134.738 17.258C134.506 17.153 134.315 17.0143 134.166 16.8418C134.016 16.6618 133.908 16.4593 133.841 16.2343C133.773 16.0018 133.743 15.758 133.751 15.503H138.091C138.106 15.1505 138.073 14.7793 137.99 14.3893C137.916 13.9993 137.773 13.6393 137.564 13.3093C137.362 12.9793 137.089 12.7093 136.745 12.4993C136.409 12.2818 135.983 12.173 135.467 12.173C135.071 12.173 134.704 12.248 134.368 12.398C134.039 12.548 133.751 12.758 133.504 13.028C133.265 13.298 133.078 13.6168 132.943 13.9843C132.809 14.3518 132.741 14.7568 132.741 15.1993C132.756 15.6418 132.82 16.0505 132.932 16.4255C133.052 16.8005 133.227 17.123 133.459 17.393C133.691 17.663 133.975 17.873 134.312 18.023C134.656 18.173 135.059 18.248 135.523 18.248C136.181 18.248 136.727 18.083 137.16 17.753C137.594 17.423 137.874 16.9318 138.002 16.2793Z" fill="white"/>
<path d="M70.931 27.4708C73.7944 27.4708 75.682 29.7413 75.682 33.2484C75.682 36.7652 73.8054 39.0247 70.9736 39.0247C69.5099 39.1015 68.1311 38.3325 67.4238 37.0447H67.3702V42.6502H65.0543V27.5892H67.296V29.4715H67.3386C68.0773 28.1918 69.4576 27.4231 70.931 27.4708ZM83.3487 27.4708C86.2122 27.4708 88.0997 29.7413 88.0997 33.2484C88.0997 36.7652 86.2232 39.0247 83.3913 39.0247C81.9276 39.1015 80.5488 38.3325 79.8415 37.0447H79.7879V42.6502H77.4721V27.5892H79.7137V29.4715H79.7563C80.495 28.1918 81.8753 27.4231 83.3487 27.4708ZM99.9747 23.125C103.245 23.125 105.486 24.9646 105.562 27.6428H103.224C103.084 26.0938 101.807 25.1587 99.9418 25.1587C98.0762 25.1587 96.7996 26.1047 96.7996 27.4817C96.7996 28.5791 97.615 29.2249 99.6096 29.7192L101.315 30.1391C104.49 30.8923 105.809 32.1716 105.809 34.4421C105.809 37.3462 103.503 39.165 99.8347 39.165C96.4029 39.165 94.0858 37.3889 93.9362 34.5813L96.3068 34.5814C96.4784 36.1207 97.9692 37.1314 100.006 37.1314C101.958 37.1314 103.363 36.1206 103.363 34.7327C103.363 33.5278 102.516 32.8064 100.51 32.312L98.5046 31.8274C95.663 31.1389 94.3439 29.8059 94.3439 27.6428C94.3439 24.9646 96.6707 23.125 99.9747 23.125ZM119.546 27.45C122.817 27.45 124.898 29.6875 124.898 33.2484C124.898 36.8189 122.828 39.0467 119.546 39.0467C116.265 39.0467 114.195 36.8189 114.195 33.2484C114.195 29.6876 116.285 27.45 119.546 27.45ZM138.299 27.45C141.42 27.45 143.383 29.6009 143.383 33.0323V33.8282H135.415V33.9686C135.34 34.8111 135.63 35.6451 136.211 36.2584C136.792 36.8717 137.607 37.2052 138.45 37.1741C139.574 37.2798 140.633 36.6324 141.055 35.5823L143.254 35.5823C142.943 37.6368 140.948 39.0467 138.396 39.0467C135.114 39.0467 133.077 36.8409 133.077 33.3021C133.077 29.7523 135.125 27.45 138.299 27.45ZM110.807 24.9109V27.5892H112.952V29.4288H110.807V35.6678C110.807 36.637 111.236 37.0887 112.179 37.0887C112.434 37.0842 112.688 37.0663 112.941 37.0349V38.8636C112.517 38.943 112.086 38.979 111.655 38.971C109.371 38.971 108.48 38.1104 108.48 35.9156V29.4288H106.839V27.5892H108.48V24.9109H110.807ZM58.0289 23.3838L63.6159 38.9063H61.0749L59.6597 34.7108H53.7611L52.3446 38.9063H49.8462L55.4332 23.3838H58.0289ZM131.783 27.4707C132.05 27.4698 132.316 27.4989 132.577 27.5574V29.7303C132.24 29.627 131.888 29.5796 131.536 29.5899C130.855 29.5622 130.196 29.8344 129.732 30.335C129.269 30.8355 129.046 31.5145 129.123 32.1936V38.9063H126.807V27.5892H129.016V29.5154H129.069C129.378 28.2754 130.51 27.422 131.783 27.4707ZM119.546 29.3641C117.669 29.3641 116.554 30.8167 116.554 33.2484C116.554 35.7008 117.669 37.1314 119.546 37.1314C121.422 37.1314 122.538 35.7008 122.538 33.2484C122.538 30.8057 121.422 29.3641 119.546 29.3641ZM70.3201 29.4507C68.5507 29.4507 67.3605 30.9888 67.3605 33.2484C67.3605 35.5286 68.5507 37.0557 70.3201 37.0557C72.1212 37.0557 73.3016 35.5604 73.3016 33.2484C73.3016 30.9571 72.1212 29.4507 70.3201 29.4507ZM82.7378 29.4507C80.9684 29.4507 79.7782 30.9888 79.7782 33.2484C79.7782 35.5286 80.9684 37.0557 82.7378 37.0557C84.5389 37.0557 85.7194 35.5604 85.7194 33.2484C85.7194 30.9571 84.5389 29.4507 82.7378 29.4507ZM56.7427 25.9656H56.6782L54.372 32.7747H59.0476L56.7427 25.9656ZM138.299 29.3323C137.537 29.3278 136.805 29.6286 136.266 30.168C135.726 30.7074 135.424 31.4406 135.426 32.2047H141.066C141.108 31.4476 140.833 30.7072 140.308 30.162C139.783 29.6167 139.055 29.3161 138.299 29.3323Z" fill="white"/>
<rect x="0.5" y="0.5" width="161" height="49" rx="5.5" stroke="#A6A6A6"/>
</svg>
