<svg width="168" height="50" viewBox="0 0 168 50" fill="none" xmlns="http://www.w3.org/2000/svg">
<rect x="0.5" y="0.5" width="167" height="49" rx="4.5" fill="black"/>
<path d="M84.7917 27.1886C81.8648 27.1886 79.4791 29.4248 79.4791 32.5048C79.4791 35.5661 81.8648 37.8211 84.7917 37.8211C87.7199 37.8211 90.1055 35.5661 90.1055 32.5048C90.1042 29.4248 87.7186 27.1886 84.7917 27.1886ZM84.7917 35.7286C83.1876 35.7286 81.805 34.3998 81.805 32.5061C81.805 30.5923 83.1888 29.2836 84.7917 29.2836C86.3958 29.2836 87.7784 30.5923 87.7784 32.5061C87.7784 34.3986 86.3958 35.7286 84.7917 35.7286ZM73.2009 27.1886C70.274 27.1886 67.8884 29.4248 67.8884 32.5048C67.8884 35.5661 70.274 37.8211 73.2009 37.8211C76.1291 37.8211 78.5147 35.5661 78.5147 32.5048C78.5147 29.4248 76.1291 27.1886 73.2009 27.1886ZM73.2009 35.7286C71.5968 35.7286 70.2143 34.3998 70.2143 32.5061C70.2143 30.5923 71.5981 29.2836 73.2009 29.2836C74.805 29.2836 76.1876 30.5923 76.1876 32.5061C76.1888 34.3986 74.805 35.7286 73.2009 35.7286ZM59.415 28.8211V31.0761H64.7885C64.628 32.3448 64.2073 33.2711 63.5652 33.9148C62.7837 34.6998 61.5604 35.5661 59.415 35.5661C56.1072 35.5661 53.5213 32.8873 53.5213 29.5648C53.5213 26.2423 56.1072 23.5636 59.415 23.5636C61.1995 23.5636 62.5024 24.2686 63.4644 25.1748L65.0486 23.5836C63.7046 22.2948 61.9213 21.3086 59.415 21.3086C54.884 21.3086 51.0747 25.0136 51.0747 29.5648C51.0747 34.1161 54.884 37.8211 59.415 37.8211C61.8603 37.8211 63.7058 37.0148 65.1481 35.5048C66.6315 34.0148 67.0932 31.9198 67.0932 30.2286C67.0932 29.7061 67.0534 29.2223 66.9725 28.8198H59.415V28.8211ZM115.798 30.5723C115.358 29.3848 114.014 27.1886 111.267 27.1886C108.541 27.1886 106.275 29.3436 106.275 32.5048C106.275 35.4848 108.521 37.8211 111.527 37.8211C113.953 37.8211 115.356 36.3311 115.939 35.4648L114.134 34.2561C113.533 35.1423 112.711 35.7261 111.527 35.7261C110.345 35.7261 109.503 35.1823 108.961 34.1148L116.038 31.1748L115.798 30.5723ZM108.58 32.3448C108.521 30.2898 110.165 29.2436 111.348 29.2436C112.27 29.2436 113.052 29.7073 113.313 30.3711L108.58 32.3448ZM102.827 37.4998H105.152V21.8736H102.827V37.4998ZM99.0169 28.3773H98.9373C98.4159 27.7523 97.4128 27.1886 96.151 27.1886C93.504 27.1886 91.0786 29.5248 91.0786 32.5261C91.0786 35.5061 93.504 37.8223 96.151 37.8223C97.4141 37.8223 98.4159 37.2586 98.9373 36.6148H99.0169V37.3798C99.0169 39.4136 97.9343 40.5011 96.1908 40.5011C94.7672 40.5011 93.8848 39.4748 93.524 38.6086L91.4992 39.4548C92.0804 40.8636 93.6235 42.5961 96.1908 42.5961C98.9174 42.5961 101.223 40.9848 101.223 37.0573V27.5123H99.0182V28.3773H99.0169ZM96.3513 35.7286C94.7472 35.7286 93.4045 34.3786 93.4045 32.5261C93.4045 30.6523 94.7472 29.2836 96.3513 29.2836C97.9343 29.2836 99.1775 30.6523 99.1775 32.5261C99.1775 34.3786 97.9343 35.7286 96.3513 35.7286ZM126.692 21.8736H121.128V37.4998H123.449V31.5798H126.691C129.264 31.5798 131.796 29.7086 131.796 26.7273C131.796 23.7461 129.266 21.8736 126.692 21.8736ZM126.752 29.4048H123.449V24.0486H126.752C128.488 24.0486 129.473 25.4923 129.473 26.7273C129.473 27.9373 128.488 29.4048 126.752 29.4048ZM141.103 27.1611C139.422 27.1611 137.681 27.9048 136.96 29.5536L139.021 30.4173C139.461 29.5536 140.283 29.2711 141.143 29.2711C142.344 29.2711 143.564 29.9948 143.584 31.2811V31.4423C143.164 31.2011 142.263 30.8398 141.163 30.8398C138.941 30.8398 136.679 32.0661 136.679 34.3573C136.679 36.4486 138.501 37.7948 140.542 37.7948C142.102 37.7948 142.963 37.0911 143.503 36.2661H143.583V37.4723H145.825V31.4811C145.827 28.7086 143.763 27.1611 141.103 27.1611ZM140.822 35.7248C140.062 35.7248 139.001 35.3423 139.001 34.3973C139.001 33.1911 140.323 32.7286 141.464 32.7286C142.483 32.7286 142.964 32.9498 143.584 33.2511C143.404 34.6998 142.163 35.7248 140.822 35.7248ZM153.992 27.5023L151.33 34.2773H151.25L148.487 27.5023H145.986L150.129 36.9711L147.767 42.2386H150.188L156.574 27.5023H153.992ZM133.077 37.4998H135.398V21.8736H133.077V37.4998Z" fill="white"/>
<path d="M59.0092 12.8045C59.0092 13.852 58.7006 14.6857 58.0821 15.3082C57.3803 16.0482 56.4644 16.4182 55.3394 16.4182C54.2617 16.4182 53.3445 16.0432 52.5916 15.2932C51.8375 14.542 51.4604 13.612 51.4604 12.502C51.4604 11.3907 51.8375 10.4607 52.5916 9.71072C53.3445 8.95947 54.2617 8.58447 55.3394 8.58447C55.8745 8.58447 56.386 8.68947 56.8713 8.89822C57.3579 9.10822 57.7474 9.38697 58.0386 9.73572L57.3828 10.3957C56.8887 9.80197 56.208 9.50572 55.3381 9.50572C54.5516 9.50572 53.8722 9.78322 53.2985 10.3382C52.7248 10.8932 52.4386 11.6145 52.4386 12.5007C52.4386 13.387 52.7248 14.1082 53.2985 14.6632C53.8722 15.2182 54.5516 15.4957 55.3381 15.4957C56.1719 15.4957 56.8676 15.217 57.4238 14.6582C57.7847 14.2945 57.9938 13.7882 58.0498 13.1395H55.3381V12.2382H58.9557C58.9931 12.4345 59.0092 12.6232 59.0092 12.8045Z" fill="white"/>
<path d="M64.7463 9.67204H61.3464V12.0495H64.4127V12.9508H61.3464V15.3283H64.7463V16.2508H60.387V8.75079H64.7463V9.67204Z" fill="white"/>
<path d="M68.7918 16.2508H67.8323V9.67204H65.7466V8.75079H70.8775V9.67204H68.7918V16.2508Z" fill="white"/>
<path d="M74.5896 16.2508V8.75079H75.5491V16.2508H74.5896Z" fill="white"/>
<path d="M79.804 16.2508H78.8446V9.67204H76.7589V8.75079H81.8897V9.67204H79.804V16.2508Z" fill="white"/>
<path d="M91.6023 15.282C90.8681 16.0395 89.9559 16.4183 88.8646 16.4183C87.7732 16.4183 86.861 16.0395 86.128 15.282C85.3938 14.5245 85.0279 13.597 85.0279 12.5008C85.0279 11.4045 85.3938 10.477 86.128 9.71953C86.861 8.96203 87.7732 8.58203 88.8646 8.58203C89.9497 8.58203 90.8607 8.96328 91.5974 9.72453C92.3341 10.4858 92.7024 11.4108 92.7024 12.5008C92.7024 13.597 92.3353 14.5245 91.6023 15.282ZM86.8361 14.6533C87.3887 15.2158 88.0644 15.4958 88.8646 15.4958C89.6647 15.4958 90.3417 15.2145 90.893 14.6533C91.4455 14.0908 91.7231 13.3733 91.7231 12.5008C91.7231 11.6283 91.4455 10.9108 90.893 10.3483C90.3417 9.78578 89.6647 9.50578 88.8646 9.50578C88.0644 9.50578 87.3887 9.78703 86.8361 10.3483C86.2848 10.9108 86.0073 11.6283 86.0073 12.5008C86.0073 13.3733 86.2848 14.0908 86.8361 14.6533Z" fill="white"/>
<path d="M94.0489 16.2508V8.75079H95.2162L98.845 14.5845H98.8861L98.845 13.1395V8.75079H99.8045V16.2508H98.8027L95.0059 10.1333H94.9649L95.0059 11.5783V16.2508H94.0489Z" fill="white"/>
<path d="M59.0092 12.8045C59.0092 13.852 58.7006 14.6857 58.0821 15.3082C57.3803 16.0482 56.4644 16.4182 55.3394 16.4182C54.2617 16.4182 53.3445 16.0432 52.5916 15.2932C51.8375 14.542 51.4604 13.612 51.4604 12.502C51.4604 11.3907 51.8375 10.4607 52.5916 9.71072C53.3445 8.95947 54.2617 8.58447 55.3394 8.58447C55.8745 8.58447 56.386 8.68947 56.8713 8.89822C57.3579 9.10822 57.7474 9.38697 58.0386 9.73572L57.3828 10.3957C56.8887 9.80197 56.208 9.50572 55.3381 9.50572C54.5516 9.50572 53.8722 9.78322 53.2985 10.3382C52.7248 10.8932 52.4386 11.6145 52.4386 12.5007C52.4386 13.387 52.7248 14.1082 53.2985 14.6632C53.8722 15.2182 54.5516 15.4957 55.3381 15.4957C56.1719 15.4957 56.8676 15.217 57.4238 14.6582C57.7847 14.2945 57.9938 13.7882 58.0498 13.1395H55.3381V12.2382H58.9557C58.9931 12.4345 59.0092 12.6232 59.0092 12.8045Z" stroke="white" stroke-width="0.2" stroke-miterlimit="10"/>
<path d="M64.7463 9.67204H61.3464V12.0495H64.4127V12.9508H61.3464V15.3283H64.7463V16.2508H60.387V8.75079H64.7463V9.67204Z" stroke="white" stroke-width="0.2" stroke-miterlimit="10"/>
<path d="M68.7918 16.2508H67.8323V9.67204H65.7466V8.75079H70.8775V9.67204H68.7918V16.2508Z" stroke="white" stroke-width="0.2" stroke-miterlimit="10"/>
<path d="M74.5896 16.2508V8.75079H75.5491V16.2508H74.5896Z" stroke="white" stroke-width="0.2" stroke-miterlimit="10"/>
<path d="M79.804 16.2508H78.8446V9.67204H76.7589V8.75079H81.8897V9.67204H79.804V16.2508Z" stroke="white" stroke-width="0.2" stroke-miterlimit="10"/>
<path d="M91.6023 15.282C90.8681 16.0395 89.9559 16.4183 88.8646 16.4183C87.7732 16.4183 86.861 16.0395 86.128 15.282C85.3938 14.5245 85.0279 13.597 85.0279 12.5008C85.0279 11.4045 85.3938 10.477 86.128 9.71953C86.861 8.96203 87.7732 8.58203 88.8646 8.58203C89.9497 8.58203 90.8607 8.96328 91.5974 9.72453C92.3341 10.4858 92.7024 11.4108 92.7024 12.5008C92.7024 13.597 92.3353 14.5245 91.6023 15.282ZM86.8361 14.6533C87.3887 15.2158 88.0644 15.4958 88.8646 15.4958C89.6647 15.4958 90.3417 15.2145 90.893 14.6533C91.4455 14.0908 91.7231 13.3733 91.7231 12.5008C91.7231 11.6283 91.4455 10.9108 90.893 10.3483C90.3417 9.78578 89.6647 9.50578 88.8646 9.50578C88.0644 9.50578 87.3887 9.78703 86.8361 10.3483C86.2848 10.9108 86.0073 11.6283 86.0073 12.5008C86.0073 13.3733 86.2848 14.0908 86.8361 14.6533Z" stroke="white" stroke-width="0.2" stroke-miterlimit="10"/>
<path d="M94.0489 16.2508V8.75079H95.2162L98.845 14.5845H98.8861L98.845 13.1395V8.75079H99.8045V16.2508H98.8027L95.0059 10.1333H94.9649L95.0059 11.5783V16.2508H94.0489Z" stroke="white" stroke-width="0.2" stroke-miterlimit="10"/>
<g filter="url(#filter0_ii_2509_8878)">
<path d="M12.9868 9.42133C12.6247 9.80633 12.4106 10.4038 12.4106 11.1776V38.8226C12.4106 39.5976 12.6247 40.1938 12.9868 40.5788L13.0789 40.6688L28.4963 25.1826V25.0001V24.8176L13.0789 9.33008L12.9868 9.42133Z" fill="url(#paint0_linear_2509_8878)"/>
<path d="M33.6344 30.3475L28.4961 25.1837V25.0012V24.8187L33.6356 19.6563L33.7514 19.7225L39.8404 23.1975C41.5789 24.19 41.5789 25.8137 39.8404 26.8075L33.7514 30.2825L33.6344 30.3475Z" fill="url(#paint1_linear_2509_8878)"/>
<g filter="url(#filter1_i_2509_8878)">
<path d="M33.7516 30.28L28.4951 25L12.9868 40.5788C13.5593 41.1888 14.5063 41.2638 15.5728 40.6563L33.7516 30.28Z" fill="url(#paint2_linear_2509_8878)"/>
</g>
<path d="M33.7516 19.7209L15.5728 9.34588C14.5063 8.73713 13.5593 8.81338 12.9868 9.42338L28.4963 25.0021L33.7516 19.7209Z" fill="url(#paint3_linear_2509_8878)"/>
</g>
<rect x="0.5" y="0.5" width="167" height="49" rx="4.5" stroke="#A6A6A6"/>
<defs>
<filter id="filter0_ii_2509_8878" x="12.4106" y="8.92578" width="28.7339" height="32.1504" filterUnits="userSpaceOnUse" color-interpolation-filters="sRGB">
<feFlood flood-opacity="0" result="BackgroundImageFix"/>
<feBlend mode="normal" in="SourceGraphic" in2="BackgroundImageFix" result="shape"/>
<feColorMatrix in="SourceAlpha" type="matrix" values="0 0 0 0 0 0 0 0 0 0 0 0 0 0 0 0 0 0 127 0" result="hardAlpha"/>
<feOffset dy="-0.15"/>
<feComposite in2="hardAlpha" operator="arithmetic" k2="-1" k3="1"/>
<feColorMatrix type="matrix" values="0 0 0 0 0 0 0 0 0 0 0 0 0 0 0 0 0 0 0.12 0"/>
<feBlend mode="normal" in2="shape" result="effect1_innerShadow_2509_8878"/>
<feColorMatrix in="SourceAlpha" type="matrix" values="0 0 0 0 0 0 0 0 0 0 0 0 0 0 0 0 0 0 127 0" result="hardAlpha"/>
<feOffset dy="0.15"/>
<feComposite in2="hardAlpha" operator="arithmetic" k2="-1" k3="1"/>
<feColorMatrix type="matrix" values="0 0 0 0 1 0 0 0 0 1 0 0 0 0 1 0 0 0 0.25 0"/>
<feBlend mode="normal" in2="effect1_innerShadow_2509_8878" result="effect2_innerShadow_2509_8878"/>
</filter>
<filter id="filter1_i_2509_8878" x="12.9868" y="25" width="20.7646" height="16.0762" filterUnits="userSpaceOnUse" color-interpolation-filters="sRGB">
<feFlood flood-opacity="0" result="BackgroundImageFix"/>
<feBlend mode="normal" in="SourceGraphic" in2="BackgroundImageFix" result="shape"/>
<feColorMatrix in="SourceAlpha" type="matrix" values="0 0 0 0 0 0 0 0 0 0 0 0 0 0 0 0 0 0 127 0" result="hardAlpha"/>
<feOffset dy="-0.15"/>
<feComposite in2="hardAlpha" operator="arithmetic" k2="-1" k3="1"/>
<feColorMatrix type="matrix" values="0 0 0 0 0 0 0 0 0 0 0 0 0 0 0 0 0 0 0.08 0"/>
<feBlend mode="normal" in2="shape" result="effect1_innerShadow_2509_8878"/>
</filter>
<linearGradient id="paint0_linear_2509_8878" x1="27.1297" y1="10.8851" x2="6.1524" y2="31.7691" gradientUnits="userSpaceOnUse">
<stop stop-color="#00A0FF"/>
<stop offset="0.0066" stop-color="#00A1FF"/>
<stop offset="0.2601" stop-color="#00BEFF"/>
<stop offset="0.5122" stop-color="#00D2FF"/>
<stop offset="0.7604" stop-color="#00DFFF"/>
<stop offset="1" stop-color="#00E3FF"/>
</linearGradient>
<linearGradient id="paint1_linear_2509_8878" x1="42.1035" y1="25.0013" x2="11.993" y2="25.0013" gradientUnits="userSpaceOnUse">
<stop stop-color="#FFE000"/>
<stop offset="0.4087" stop-color="#FFBD00"/>
<stop offset="0.7754" stop-color="#FFA500"/>
<stop offset="1" stop-color="#FF9C00"/>
</linearGradient>
<linearGradient id="paint2_linear_2509_8878" x1="30.897" y1="27.8674" x2="2.44914" y2="56.1888" gradientUnits="userSpaceOnUse">
<stop stop-color="#FF3A44"/>
<stop offset="1" stop-color="#C31162"/>
</linearGradient>
<linearGradient id="paint3_linear_2509_8878" x1="9.081" y1="0.220626" x2="21.7838" y2="12.8669" gradientUnits="userSpaceOnUse">
<stop stop-color="#32A071"/>
<stop offset="0.0685" stop-color="#2DA771"/>
<stop offset="0.4762" stop-color="#15CF74"/>
<stop offset="0.8009" stop-color="#06E775"/>
<stop offset="1" stop-color="#00F076"/>
</linearGradient>
</defs>
</svg>
