<svg width="162" height="50" viewBox="0 0 162 50" fill="none" xmlns="http://www.w3.org/2000/svg">
<rect x="0.5" y="0.5" width="161" height="49" rx="5.5" fill="black"/>
<path fill-rule="evenodd" clip-rule="evenodd" d="M11.7574 9.43375C11.3947 9.81875 11.1816 10.415 11.1816 11.1887V38.8112C11.1816 39.585 11.3947 40.1812 11.7574 40.5662L11.8496 40.6562L27.2757 25.1825V24.8175L11.8496 9.34375L11.7574 9.43375Z" fill="#00D7FE"/>
<mask id="mask0_2518_9582" style="mask-type:alpha" maskUnits="userSpaceOnUse" x="27" y="19" width="13" height="12">
<path d="M32.4163 30.342L27.2759 25.182V24.817L32.4188 19.6582L38.6271 23.1957C40.3667 24.1882 40.3667 25.8107 38.6271 26.802L32.5346 30.2745L32.4163 30.342Z" fill="white"/>
</mask>
<g mask="url(#mask0_2518_9582)">
<path fill-rule="evenodd" clip-rule="evenodd" d="M32.4163 30.342L27.2759 25.182V24.817L32.4188 19.6582L38.6271 23.1957C40.3667 24.1882 40.3667 25.8107 38.6271 26.802L32.5346 30.2745L32.4163 30.342Z" fill="url(#paint0_linear_2518_9582)"/>
</g>
<mask id="mask1_2518_9582" style="mask-type:alpha" maskUnits="userSpaceOnUse" x="11" y="25" width="22" height="17">
<path d="M32.5344 30.275L27.2757 25L11.7573 40.5662C12.3318 41.175 13.2789 41.25 14.3456 40.6425L32.5344 30.275Z" fill="white"/>
</mask>
<g mask="url(#mask1_2518_9582)">
<path fill-rule="evenodd" clip-rule="evenodd" d="M32.5344 30.275L27.2757 25L11.7573 40.5662C12.3318 41.175 13.2789 41.25 14.3456 40.6425L32.5344 30.275Z" fill="url(#paint1_linear_2518_9582)"/>
</g>
<mask id="mask2_2518_9582" style="mask-type:alpha" maskUnits="userSpaceOnUse" x="11" y="8" width="22" height="17">
<path d="M32.5344 19.7247L14.3456 9.35723C13.2789 8.74973 12.3318 8.82473 11.7573 9.43348L27.2757 24.9997L32.5344 19.7247Z" fill="white"/>
</mask>
<g mask="url(#mask2_2518_9582)">
<path fill-rule="evenodd" clip-rule="evenodd" d="M32.5344 19.7247L14.3456 9.35723C13.2789 8.74973 12.3318 8.82473 11.7573 9.43348L27.2757 24.9997L32.5344 19.7247Z" fill="url(#paint2_linear_2518_9582)"/>
</g>
<path fill-rule="evenodd" clip-rule="evenodd" d="M129.468 38.6912H131.793V23.065H129.468V38.6912ZM150.412 28.6937L147.747 35.4688H147.667L144.9 28.6937H142.396L146.544 38.1625L144.179 43.43H146.605L152.998 28.6937H150.412ZM137.225 36.9163C136.463 36.9163 135.401 36.535 135.401 35.59C135.401 34.3837 136.724 33.9212 137.866 33.9212C138.889 33.9212 139.369 34.1425 139.991 34.4438C139.81 35.8913 138.567 36.9163 137.225 36.9163ZM137.506 28.3525C135.822 28.3525 134.079 29.0963 133.357 30.745L135.421 31.6088C135.862 30.745 136.683 30.4625 137.546 30.4625C138.748 30.4625 139.971 31.1862 139.991 32.4738V32.6338C139.569 32.3925 138.668 32.0312 137.566 32.0312C135.341 32.0312 133.076 33.2575 133.076 35.5487C133.076 37.64 134.9 38.9875 136.944 38.9875C138.508 38.9875 139.369 38.2837 139.911 37.4587H139.991V38.665H142.235V32.675C142.235 29.9 140.171 28.3525 137.506 28.3525ZM123.135 30.5962H119.828V25.24H123.135C124.873 25.24 125.86 26.6837 125.86 27.9175C125.86 29.1287 124.873 30.5962 123.135 30.5962ZM123.075 23.065H117.504V38.6912H119.828V32.7712H123.075C125.652 32.7712 128.186 30.8987 128.186 27.9175C128.186 24.9362 125.652 23.065 123.075 23.065ZM92.6928 36.9187C91.0865 36.9187 89.7419 35.57 89.7419 33.7175C89.7419 31.845 91.0865 30.475 92.6928 30.475C94.2792 30.475 95.5228 31.845 95.5228 33.7175C95.5228 35.57 94.2792 36.9187 92.6928 36.9187ZM95.3621 29.5688H95.2823C94.7602 28.945 93.757 28.3812 92.4922 28.3812C89.8416 28.3812 87.4129 30.7163 87.4129 33.7175C87.4129 36.6975 89.8416 39.0138 92.4922 39.0138C93.757 39.0138 94.7602 38.45 95.2823 37.805H95.3621V38.57C95.3621 40.605 94.2792 41.6925 92.5321 41.6925C91.1065 41.6925 90.2229 40.665 89.8616 39.7988L87.8341 40.645C88.416 42.055 89.9625 43.7862 92.5321 43.7862C95.2624 43.7862 97.5715 42.175 97.5715 38.2488V28.7025H95.3621V29.5688ZM99.1778 38.6912H101.507V23.0638H99.1778V38.6912ZM104.939 33.5363C104.879 31.4825 106.525 30.435 107.709 30.435C108.634 30.435 109.416 30.8975 109.677 31.5625L104.939 33.5363ZM112.166 31.7637C111.725 30.5762 110.379 28.3812 107.629 28.3812C104.899 28.3812 102.631 30.535 102.631 33.6975C102.631 36.6775 104.879 39.0138 107.89 39.0138C110.32 39.0138 111.725 37.5238 112.307 36.6575L110.5 35.4487C109.898 36.335 109.075 36.9187 107.89 36.9187C106.706 36.9187 105.862 36.375 105.32 35.3088L112.407 32.3688L112.166 31.7637ZM55.7057 30.0125V32.2675H61.0854C60.9246 33.5362 60.5034 34.4625 59.8616 35.1075C59.0778 35.8925 57.8528 36.7575 55.7057 36.7575C52.3935 36.7575 49.8027 34.08 49.8027 30.7575C49.8027 27.4338 52.3935 24.7563 55.7057 24.7563C57.4927 24.7563 58.7974 25.4612 59.7607 26.3675L61.3471 24.7763C60.0012 23.4875 58.2155 22.5 55.7057 22.5C51.1685 22.5 47.354 26.2063 47.354 30.7575C47.354 35.3088 51.1685 39.0138 55.7057 39.0138C58.1544 39.0138 60.0012 38.2087 61.4468 36.6975C62.9322 35.2075 63.3945 33.1137 63.3945 31.4212C63.3945 30.8975 63.3546 30.415 63.2736 30.0125H55.7057ZM69.5119 36.9187C67.9056 36.9187 66.5198 35.59 66.5198 33.6975C66.5198 31.7838 67.9056 30.475 69.5119 30.475C71.1169 30.475 72.5026 31.7838 72.5026 33.6975C72.5026 35.59 71.1169 36.9187 69.5119 36.9187ZM69.5119 28.3812C66.5797 28.3812 64.1908 30.6163 64.1908 33.6975C64.1908 36.7575 66.5797 39.0138 69.5119 39.0138C72.4428 39.0138 74.8317 36.7575 74.8317 33.6975C74.8317 30.6163 72.4428 28.3812 69.5119 28.3812ZM81.1173 36.9187C79.511 36.9187 78.1253 35.59 78.1253 33.6975C78.1253 31.7838 79.511 30.475 81.1173 30.475C82.7236 30.475 84.1081 31.7838 84.1081 33.6975C84.1081 35.59 82.7236 36.9187 81.1173 36.9187ZM81.1173 28.3812C78.1863 28.3812 75.7975 30.6163 75.7975 33.6975C75.7975 36.7575 78.1863 39.0138 81.1173 39.0138C84.0482 39.0138 86.4371 36.7575 86.4371 33.6975C86.4371 30.6163 84.0482 28.3812 81.1173 28.3812Z" fill="#FFFFFE"/>
<path d="M54.1718 13.5179V16.4458C54.0732 16.5923 53.9163 16.7571 53.7009 16.9402C53.4855 17.1196 53.1879 17.2771 52.8082 17.4126C52.4322 17.5444 51.9466 17.6104 51.3515 17.6104C50.866 17.6104 50.4188 17.5261 50.0099 17.3577C49.6046 17.1855 49.2523 16.9365 48.9529 16.6106C48.6572 16.281 48.4272 15.8818 48.2629 15.4131C48.1023 14.9407 48.022 14.406 48.022 13.8091V13.1884C48.022 12.5914 48.0913 12.0586 48.2301 11.5898C48.3725 11.1211 48.5806 10.7238 48.8544 10.3978C49.1282 10.0682 49.4641 9.81921 49.862 9.65076C50.2599 9.47864 50.7163 9.39258 51.2311 9.39258C51.8408 9.39258 52.35 9.49878 52.7589 9.71118C53.1715 9.91992 53.4928 10.2092 53.7228 10.5791C53.9564 10.949 54.1061 11.3701 54.1718 11.8425H53.1149C53.0674 11.5532 52.9725 11.2896 52.8301 11.0515C52.6914 10.8135 52.4924 10.623 52.2332 10.4802C51.974 10.3337 51.64 10.2605 51.2311 10.2605C50.8623 10.2605 50.5429 10.3282 50.2727 10.4637C50.0026 10.5992 49.7799 10.7933 49.6046 11.046C49.4294 11.2987 49.2979 11.6045 49.2103 11.9634C49.1264 12.3223 49.0844 12.7269 49.0844 13.1774V13.8091C49.0844 14.2705 49.1373 14.6825 49.2432 15.045C49.3527 15.4076 49.5079 15.717 49.7087 15.9734C49.9095 16.2261 50.1486 16.4183 50.4261 16.5502C50.7072 16.682 51.0175 16.7479 51.357 16.7479C51.7331 16.7479 52.0379 16.7168 52.2716 16.6545C52.5052 16.5886 52.6877 16.5117 52.8192 16.4238C52.9506 16.3323 53.051 16.2462 53.1204 16.1656V14.3749H51.2749V13.5179H54.1718Z" fill="white"/>
<path d="M60.6533 16.6381V17.5005H56.4311V16.6381H60.6533ZM56.6447 9.50244V17.5005H55.5878V9.50244H56.6447ZM60.0947 12.9412V13.8036H56.4311V12.9412H60.0947ZM60.5985 9.50244V10.3704H56.4311V9.50244H60.5985Z" fill="white"/>
<path d="M64.6814 9.50244V17.5005H63.6409V9.50244H64.6814ZM67.2443 9.50244V10.3704H61.0835V9.50244H67.2443Z" fill="white"/>
<path d="M71.4507 9.50244V17.5005H70.3938V9.50244H71.4507Z" fill="white"/>
<path d="M75.8184 9.50244V17.5005H74.7779V9.50244H75.8184ZM78.3813 9.50244V10.3704H72.2205V9.50244H78.3813Z" fill="white"/>
<path d="M87.593 13.2488V13.7542C87.593 14.3547 87.5182 14.8931 87.3685 15.3691C87.2188 15.8452 87.0034 16.2499 86.7223 16.5831C86.4412 16.9164 86.1035 17.1709 85.7092 17.3467C85.3185 17.5225 84.8804 17.6104 84.3949 17.6104C83.9239 17.6104 83.4913 17.5225 83.097 17.3467C82.7064 17.1709 82.3668 16.9164 82.0784 16.5831C81.7936 16.2499 81.5728 15.8452 81.4158 15.3691C81.2588 14.8931 81.1803 14.3547 81.1803 13.7542V13.2488C81.1803 12.6482 81.257 12.1117 81.4103 11.6393C81.5673 11.1632 81.7882 10.7585 82.0729 10.4253C82.3577 10.0884 82.6954 9.83203 83.086 9.65625C83.4803 9.48047 83.913 9.39258 84.3839 9.39258C84.8695 9.39258 85.3076 9.48047 85.6982 9.65625C86.0925 9.83203 86.4302 10.0884 86.7113 10.4253C86.9961 10.7585 87.2133 11.1632 87.363 11.6393C87.5163 12.1117 87.593 12.6482 87.593 13.2488ZM86.547 13.7542V13.2378C86.547 12.7617 86.4978 12.3406 86.3992 11.9744C86.3043 11.6082 86.1637 11.3005 85.9775 11.0515C85.7913 10.8025 85.5631 10.6139 85.293 10.4857C85.0265 10.3575 84.7234 10.2935 84.3839 10.2935C84.0553 10.2935 83.7578 10.3575 83.4913 10.4857C83.2284 10.6139 83.0021 10.8025 82.8122 11.0515C82.626 11.3005 82.4818 11.6082 82.3796 11.9744C82.2774 12.3406 82.2263 12.7617 82.2263 13.2378V13.7542C82.2263 14.2339 82.2774 14.6587 82.3796 15.0286C82.4818 15.3948 82.6279 15.7042 82.8177 15.9569C83.0112 16.2059 83.2394 16.3945 83.5022 16.5227C83.7687 16.6509 84.0663 16.715 84.3949 16.715C84.738 16.715 85.0429 16.6509 85.3094 16.5227C85.5759 16.3945 85.8004 16.2059 85.983 15.9569C86.1692 15.7042 86.3097 15.3948 86.4047 15.0286C86.4996 14.6587 86.547 14.2339 86.547 13.7542Z" fill="white"/>
<path d="M94.9726 9.50244V17.5005H93.9102L89.8961 11.3317V17.5005H88.8392V9.50244H89.8961L93.9266 15.6877V9.50244H94.9726Z" fill="white"/>
<rect x="0.5" y="0.5" width="161" height="49" rx="5.5" stroke="#A6A6A6"/>
<defs>
<linearGradient id="paint0_linear_2518_9582" x1="37.4953" y1="24.9998" x2="27.2759" y2="24.9998" gradientUnits="userSpaceOnUse">
<stop stop-color="#FFBC00"/>
<stop offset="1" stop-color="#FFDA03"/>
</linearGradient>
<linearGradient id="paint1_linear_2518_9582" x1="29.6765" y1="29.9635" x2="16.3051" y2="40.9512" gradientUnits="userSpaceOnUse">
<stop stop-color="#E22652"/>
<stop offset="1" stop-color="#FF3A44"/>
</linearGradient>
<linearGradient id="paint2_linear_2518_9582" x1="14.1072" y1="11.3074" x2="23.0239" y2="19.1238" gradientUnits="userSpaceOnUse">
<stop stop-color="#0ED574"/>
<stop offset="1" stop-color="#07F076"/>
</linearGradient>
</defs>
</svg>
