<svg width="150" height="50" viewBox="0 0 150 50" fill="none" xmlns="http://www.w3.org/2000/svg">
<rect x="0.5" y="0.5" width="149" height="49" rx="6.5" fill="#0C0D10"/>
<path d="M101.907 24.0005V26.8642H100.112V28.7423H101.907V35.1235C101.907 37.3025 102.893 38.174 105.373 38.174C105.809 38.174 106.224 38.1222 106.587 38.0599V36.2026C106.276 36.2337 106.078 36.2545 105.736 36.2545C104.626 36.2545 104.138 35.7357 104.138 34.5528V28.7423H106.587V26.8642H104.138V24.0005H101.907Z" fill="white"/>
<path d="M112.904 38.3297C116.204 38.3297 118.227 36.1196 118.227 32.4569C118.227 28.8149 116.193 26.5945 112.904 26.5945C109.605 26.5945 107.571 28.8149 107.571 32.4569C107.571 36.1196 109.594 38.3297 112.904 38.3297ZM112.904 36.3479C110.964 36.3479 109.874 34.9264 109.874 32.4569C109.874 30.0082 110.964 28.5763 112.904 28.5763C114.834 28.5763 115.934 30.0082 115.934 32.4569C115.934 34.916 114.834 36.3479 112.904 36.3479Z" fill="white"/>
<path d="M119.958 38.1118H122.189V31.44C122.189 29.8525 123.382 28.7838 125.074 28.7838C125.468 28.7838 126.132 28.8564 126.319 28.9187V26.719C126.08 26.6567 125.655 26.6256 125.323 26.6256C123.849 26.6256 122.594 27.4349 122.272 28.5451H122.106V26.8124H119.958V38.1118Z" fill="white"/>
<path d="M131.858 28.4933C133.508 28.4933 134.587 29.645 134.639 31.4193H128.932C129.056 29.6554 130.208 28.4933 131.858 28.4933ZM134.628 35.0613C134.213 35.9432 133.29 36.4309 131.941 36.4309C130.156 36.4309 129.004 35.1754 128.932 33.1936V33.0691H136.911V32.2909C136.911 28.7423 135.012 26.5945 131.868 26.5945C128.683 26.5945 126.659 28.8875 126.659 32.4984C126.659 36.1092 128.641 38.3297 131.879 38.3297C134.462 38.3297 136.268 37.0846 136.776 35.0613H134.628Z" fill="white"/>
<path d="M87.2779 33.9391C87.4499 36.7137 89.7621 38.4882 93.2035 38.4882C96.8815 38.4882 99.183 36.6277 99.183 33.6595C99.183 31.3258 97.871 30.0352 94.6877 29.2932L92.9777 28.8738C90.9559 28.4006 90.1385 27.7661 90.1385 26.6584C90.1385 25.2603 91.4076 24.3462 93.3111 24.3462C95.1178 24.3462 96.3653 25.2388 96.5912 26.6691H98.9356C98.7958 24.0558 96.4944 22.2168 93.3434 22.2168C89.9557 22.2168 87.6973 24.0558 87.6973 26.8197C87.6973 29.0996 88.9771 30.4547 91.784 31.1107L93.7843 31.5946C95.8384 32.0786 96.7417 32.7884 96.7417 33.9713C96.7417 35.3479 95.3222 36.3481 93.3864 36.3481C91.3108 36.3481 89.8697 35.4124 89.6653 33.9391H87.2779Z" fill="white"/>
<path d="M64.1687 26.6256C62.6331 26.6256 61.3049 27.3934 60.6201 28.68H60.4541V26.8124H58.3063V41.8679H60.5371V36.3998H60.7135C61.3049 37.593 62.5812 38.2986 64.1895 38.2986C67.0428 38.2986 68.8586 36.047 68.8586 32.4569C68.8586 28.8668 67.0428 26.6256 64.1687 26.6256ZM63.5358 36.296C61.6681 36.296 60.4956 34.8226 60.4956 32.4673C60.4956 30.1015 61.6681 28.6281 63.5461 28.6281C65.4346 28.6281 66.5656 30.0704 66.5656 32.4569C66.5656 34.8537 65.4346 36.296 63.5358 36.296Z" fill="white"/>
<path d="M76.6647 26.6256C75.1291 26.6256 73.8009 27.3934 73.1161 28.68H72.9501V26.8124H70.8023V41.8679H73.0331V36.3998H73.2095C73.8009 37.593 75.0772 38.2986 76.6855 38.2986C79.5388 38.2986 81.3546 36.047 81.3546 32.4569C81.3546 28.8668 79.5388 26.6256 76.6647 26.6256ZM76.0318 36.296C74.1641 36.296 72.9916 34.8226 72.9916 32.4673C72.9916 30.1015 74.1641 28.6281 76.0421 28.6281C77.9306 28.6281 79.0616 30.0704 79.0616 32.4569C79.0616 34.8537 77.9306 36.296 76.0318 36.296Z" fill="white"/>
<path d="M54.3038 38.1118H56.8633L51.2603 22.5932H48.6685L43.0654 38.1118H45.5389L46.9693 33.9929H52.8842L54.3038 38.1118ZM49.8407 25.4109H50.0235L52.2712 31.971H47.5823L49.8407 25.4109Z" fill="white"/>
<path d="M44.564 10.8879V18.3741H47.2669C49.4977 18.3741 50.7896 16.9993 50.7896 14.6077C50.7896 12.2523 49.4874 10.8879 47.2669 10.8879H44.564ZM45.7261 11.9462H47.1372C48.6884 11.9462 49.6067 12.9319 49.6067 14.6232C49.6067 16.3405 48.704 17.3158 47.1372 17.3158H45.7261V11.9462Z" fill="white"/>
<path d="M54.7459 18.4831C56.3957 18.4831 57.4073 17.3781 57.4073 15.5467C57.4073 13.7257 56.3905 12.6155 54.7459 12.6155C53.0961 12.6155 52.0793 13.7257 52.0793 15.5467C52.0793 17.3781 53.0909 18.4831 54.7459 18.4831ZM54.7459 17.4922C53.7758 17.4922 53.231 16.7814 53.231 15.5467C53.231 14.3223 53.7758 13.6064 54.7459 13.6064C55.7109 13.6064 56.2608 14.3223 56.2608 15.5467C56.2608 16.7762 55.7109 17.4922 54.7459 17.4922Z" fill="white"/>
<path d="M66.0225 12.7244H64.9071L63.9006 17.0356H63.8124L62.6503 12.7244H61.5816L60.4195 17.0356H60.3365L59.3248 12.7244H58.1938L59.7502 18.3741H60.8968L62.0589 14.2134H62.1471L63.3144 18.3741H64.4713L66.0225 12.7244Z" fill="white"/>
<path d="M67.3071 18.3741H68.4225V15.0694C68.4225 14.1874 68.9465 13.6375 69.7714 13.6375C70.5963 13.6375 70.9905 14.0889 70.9905 14.9968V18.3741H72.106V14.7166C72.106 13.3729 71.4108 12.6155 70.1501 12.6155C69.2993 12.6155 68.739 12.9942 68.464 13.6219H68.381V12.7244H67.3071V18.3741Z" fill="white"/>
<path d="M73.8626 18.3741H74.978V10.5195H73.8626V18.3741Z" fill="white"/>
<path d="M79.173 18.4831C80.8228 18.4831 81.8345 17.3781 81.8345 15.5467C81.8345 13.7257 80.8176 12.6155 79.173 12.6155C77.5233 12.6155 76.5064 13.7257 76.5064 15.5467C76.5064 17.3781 77.5181 18.4831 79.173 18.4831ZM79.173 17.4922C78.2029 17.4922 77.6581 16.7814 77.6581 15.5467C77.6581 14.3223 78.2029 13.6064 79.173 13.6064C80.138 13.6064 80.6879 14.3223 80.6879 15.5467C80.6879 16.7762 80.138 17.4922 79.173 17.4922Z" fill="white"/>
<path d="M85.1579 17.5285C84.5509 17.5285 84.1099 17.2328 84.1099 16.7244C84.1099 16.2263 84.4627 15.9617 85.2409 15.9099L86.6209 15.8217V16.2938C86.6209 16.9941 85.9984 17.5285 85.1579 17.5285ZM84.8726 18.4675C85.6144 18.4675 86.2318 18.1459 86.569 17.5804H86.6572V18.3741H87.7311V14.5143C87.7311 13.321 86.9322 12.6155 85.5159 12.6155C84.2344 12.6155 83.3214 13.238 83.2072 14.2082H84.2863C84.4108 13.8087 84.8414 13.5804 85.464 13.5804C86.2266 13.5804 86.6209 13.9177 86.6209 14.5143V15.002L85.0905 15.0901C83.7468 15.1732 82.9893 15.7594 82.9893 16.7762C82.9893 17.8087 83.7831 18.4675 84.8726 18.4675Z" fill="white"/>
<path d="M91.5163 18.4675C92.2945 18.4675 92.9534 18.0992 93.2906 17.4818H93.3788V18.3741H94.4475V10.5195H93.3321V13.6219H93.2491C92.943 12.9994 92.2893 12.631 91.5163 12.631C90.0896 12.631 89.1713 13.762 89.1713 15.5467C89.1713 17.3365 90.0792 18.4675 91.5163 18.4675ZM91.8328 13.6323C92.7666 13.6323 93.3528 14.3742 93.3528 15.5519C93.3528 16.7347 92.7718 17.4662 91.8328 17.4662C90.8886 17.4662 90.3231 16.7451 90.3231 15.5467C90.3231 14.3586 90.8937 13.6323 91.8328 13.6323Z" fill="white"/>
<path d="M101.681 18.4831C103.33 18.4831 104.342 17.3781 104.342 15.5467C104.342 13.7257 103.325 12.6155 101.681 12.6155C100.031 12.6155 99.014 13.7257 99.014 15.5467C99.014 17.3781 100.026 18.4831 101.681 18.4831ZM101.681 17.4922C100.71 17.4922 100.166 16.7814 100.166 15.5467C100.166 14.3223 100.71 13.6064 101.681 13.6064C102.646 13.6064 103.196 14.3223 103.196 15.5467C103.196 16.7762 102.646 17.4922 101.681 17.4922Z" fill="white"/>
<path d="M105.819 18.3741H106.934V15.0694C106.934 14.1874 107.458 13.6375 108.283 13.6375C109.108 13.6375 109.502 14.0889 109.502 14.9968V18.3741H110.617V14.7166C110.617 13.3729 109.922 12.6155 108.662 12.6155C107.811 12.6155 107.25 12.9942 106.975 13.6219H106.892V12.7244H105.819V18.3741Z" fill="white"/>
<path d="M115.755 11.3185V12.7504H114.857V13.6894H115.755V16.88C115.755 17.9695 116.247 18.4053 117.487 18.4053C117.705 18.4053 117.913 18.3793 118.094 18.3482V17.4196C117.939 17.4351 117.84 17.4455 117.669 17.4455C117.114 17.4455 116.87 17.1861 116.87 16.5947V13.6894H118.094V12.7504H116.87V11.3185H115.755Z" fill="white"/>
<path d="M119.592 18.3741H120.707V15.0746C120.707 14.2186 121.215 13.6427 122.129 13.6427C122.917 13.6427 123.337 14.0992 123.337 15.002V18.3741H124.453V14.727C124.453 13.3833 123.711 12.6207 122.507 12.6207C121.656 12.6207 121.06 12.9994 120.785 13.6323H120.697V10.5195H119.592V18.3741Z" fill="white"/>
<path d="M128.477 13.5649C129.301 13.5649 129.841 14.1407 129.867 15.0279H127.014C127.076 14.1459 127.652 13.5649 128.477 13.5649ZM129.862 16.8489C129.654 17.2899 129.193 17.5337 128.518 17.5337C127.626 17.5337 127.05 16.9059 127.014 15.915V15.8528H131.003V15.4637C131.003 13.6894 130.054 12.6155 128.482 12.6155C126.889 12.6155 125.877 13.762 125.877 15.5674C125.877 17.3729 126.868 18.4831 128.487 18.4831C129.779 18.4831 130.681 17.8605 130.936 16.8489H129.862Z" fill="white"/>
<path d="M30.9615 25.3758C30.9886 23.2746 32.117 21.2863 33.9072 20.1858C32.7778 18.5729 30.8862 17.5502 28.9182 17.4887C26.8192 17.2683 24.7842 18.7447 23.7146 18.7447C22.6243 18.7447 20.9774 17.5105 19.204 17.547C16.8924 17.6217 14.7375 18.9359 13.6128 20.9569C11.1953 25.1424 12.9986 31.2937 15.3143 34.677C16.473 36.3336 17.8271 38.1842 19.5989 38.1186C21.3327 38.0467 21.9802 37.013 24.0731 37.013C26.1466 37.013 26.7541 38.1186 28.5619 38.0769C30.4223 38.0467 31.5945 36.4128 32.7125 34.7404C33.545 33.56 34.1856 32.2553 34.6105 30.8748C32.4241 29.9501 30.964 27.7498 30.9615 25.3758Z" fill="white"/>
<path d="M27.5469 15.2637C28.5613 14.0459 29.0611 12.4807 28.9401 10.9004C27.3903 11.0632 25.9587 11.8039 24.9306 12.9749C23.9252 14.1191 23.402 15.6568 23.5009 17.1766C25.0513 17.1926 26.5754 16.472 27.5469 15.2637Z" fill="white"/>
<rect x="0.5" y="0.5" width="149" height="49" rx="6.5" stroke="#A6A6A6"/>
</svg>
