<svg width="1440" height="400" viewBox="0 0 1440 400" fill="none" xmlns="http://www.w3.org/2000/svg">
<g clip-path="url(#clip0_1390_6610)">
<rect width="1440" height="400" rx="6" fill="#F5F5F7"/>
<path d="M1255.85 -12.9515C1409.51 -1.82195 1364.24 122.234 1414.75 203.796C1479.17 307.812 1717.15 418.259 1567.34 490.013C1410.26 565.25 1193.15 460.748 1038.2 384.15C925.787 328.58 871.283 247.665 915.159 167.611C965.752 75.3031 1083.95 -25.4013 1255.85 -12.9515Z" fill="#FFCC00"/>
<path d="M-44.0614 317.968C8.26414 264.009 40.413 319.788 86.7136 326.451C145.761 334.948 261.616 280.576 241.457 359.056C220.32 441.344 113.227 489.777 36.0446 523.711C-19.9511 548.329 -67.261 543.361 -83.41 501.884C-102.031 454.059 -102.595 378.328 -44.0614 317.968Z" fill="#FFCC00"/>
<path d="M764 424C764 453.823 737.809 478 705.5 478C673.191 478 647 453.823 647 424C647 394.177 673.191 370 705.5 370C737.809 370 764 394.177 764 424Z" fill="#FFCC00"/>
<ellipse cx="559.5" cy="-18" rx="53.5" ry="51" fill="#FFCC00"/>
</g>
<defs>
<clipPath id="clip0_1390_6610">
<rect width="1440" height="400" rx="6" fill="white"/>
</clipPath>
</defs>
</svg>
