<svg xmlns="http://www.w3.org/2000/svg" xmlns:xlink="http://www.w3.org/1999/xlink"><defs><style>
        .sprite-symbol-usage {
          display: none;
        }
  
        .sprite-symbol-usage:target {
          display: inline;
        }
      </style><symbol id="view-icon-account" viewBox="0 0 18 18"><path d="M8.99996 0.666626C4.39996 0.666626 0.666626 4.39996 0.666626 8.99996C0.666626 13.6 4.39996 17.3333 8.99996 17.3333C13.6 17.3333 17.3333 13.6 17.3333 8.99996C17.3333 4.39996 13.6 0.666626 8.99996 0.666626ZM4.89163 14.2333C5.24996 13.4833 7.43329 12.75 8.99996 12.75C10.5666 12.75 12.7583 13.4833 13.1083 14.2333C11.975 15.1333 10.55 15.6666 8.99996 15.6666C7.44996 15.6666 6.02496 15.1333 4.89163 14.2333ZM14.3 13.025C13.1083 11.575 10.2166 11.0833 8.99996 11.0833C7.78329 11.0833 4.89163 11.575 3.69996 13.025C2.84996 11.9083 2.33329 10.5166 2.33329 8.99996C2.33329 5.32496 5.32496 2.33329 8.99996 2.33329C12.675 2.33329 15.6666 5.32496 15.6666 8.99996C15.6666 10.5166 15.15 11.9083 14.3 13.025ZM8.99996 3.99996C7.38329 3.99996 6.08329 5.29996 6.08329 6.91663C6.08329 8.53329 7.38329 9.83329 8.99996 9.83329C10.6166 9.83329 11.9166 8.53329 11.9166 6.91663C11.9166 5.29996 10.6166 3.99996 8.99996 3.99996ZM8.99996 8.16663C8.30829 8.16663 7.74996 7.60829 7.74996 6.91663C7.74996 6.22496 8.30829 5.66663 8.99996 5.66663C9.69163 5.66663 10.25 6.22496 10.25 6.91663C10.25 7.60829 9.69163 8.16663 8.99996 8.16663Z" fill="#515154"/></symbol><symbol id="view-icon-arrow" viewBox="0 0 9 6"><path d="M4.48828 5.57715C4.61035 5.57715 4.73242 5.52832 4.81543 5.43555L8.59473 1.56348C8.67773 1.48047 8.72656 1.37305 8.72656 1.25098C8.72656 0.99707 8.53613 0.801758 8.28223 0.801758C8.16016 0.801758 8.04785 0.850586 7.96484 0.928711L4.48828 4.4834L1.00684 0.928711C0.928711 0.850586 0.816406 0.801758 0.689453 0.801758C0.435547 0.801758 0.245117 0.99707 0.245117 1.25098C0.245117 1.37305 0.293945 1.48047 0.376953 1.56836L4.15625 5.43555C4.24902 5.52832 4.36133 5.57715 4.48828 5.57715Z"/></symbol><symbol id="view-icon-arrow_pagination" viewBox="0 0 16 14"><path d="M15.64 7.0041C15.64 6.74798 15.5326 6.50012 15.3426 6.31835L9.91442 0.890206C9.69961 0.683656 9.47653 0.592773 9.2452 0.592773C8.71643 0.592773 8.33638 0.964564 8.33638 1.46855C8.33638 1.73293 8.44378 1.95601 8.60902 2.12125L10.468 4.00499L12.864 6.19442L10.9472 6.07875H0.933608C0.380053 6.07875 0 6.45881 0 7.0041C0 7.54113 0.380053 7.92118 0.933608 7.92118H10.9472L12.864 7.80552L10.468 9.99495L8.60902 11.8787C8.44378 12.0439 8.33638 12.267 8.33638 12.5314C8.33638 13.0354 8.71643 13.4072 9.2452 13.4072C9.47653 13.4072 9.69961 13.3163 9.8979 13.1263L15.3426 7.68159C15.5326 7.49982 15.64 7.25196 15.64 7.0041Z"/></symbol><symbol id="view-icon-arrow_tr" viewBox="0 0 9 6"><path d="M4.21301 5.25737L0.327769 1.00229C0.151947 0.809727 0.288557 0.5 0.549311 0.5H8.3198C8.58055 0.5 8.71716 0.809726 8.54134 1.00229L4.6561 5.25737C4.53713 5.38766 4.33198 5.38766 4.21301 5.25737Z" fill="#838489"/></symbol><symbol id="view-icon-check" viewBox="0 0 16 17"><path d="M5.86333 11.0831L3.08333 8.30312L2.13667 9.24312L5.86333 12.9698L13.8633 4.96979L12.9233 4.02979L5.86333 11.0831Z" fill="#1D1D1F"/></symbol><symbol id="view-icon-close" viewBox="0 0 12 12"><path d="M11.8333 1.34102L10.6583 0.166016L5.99996 4.82435L1.34163 0.166016L0.166626 1.34102L4.82496 5.99935L0.166626 10.6577L1.34163 11.8327L5.99996 7.17435L10.6583 11.8327L11.8333 10.6577L7.17496 5.99935L11.8333 1.34102Z" fill="#1D1D1F"/></symbol><symbol id="view-icon-collected" viewBox="0 0 16 16"><path d="M14.4 0H4.8C3.92 0 3.2 0.72 3.2 1.6V11.2C3.2 12.08 3.92 12.8 4.8 12.8H14.4C15.28 12.8 16 12.08 16 11.2V1.6C16 0.72 15.28 0 14.4 0ZM7.808 9.024L6.152 7.36C5.848 7.048 5.848 6.552 6.152 6.24C6.464 5.928 6.968 5.928 7.28 6.24L8.368 7.336L11.904 3.768C12.216 3.456 12.72 3.456 13.032 3.768C13.336 4.08 13.336 4.576 13.032 4.888L8.928 9.024C8.632 9.344 8.12 9.344 7.808 9.024ZM0.8 3.2C0.36 3.2 0 3.56 0 4V14.4C0 15.28 0.72 16 1.6 16H12C12.44 16 12.8 15.64 12.8 15.2C12.8 14.76 12.44 14.4 12 14.4H2.4C1.96 14.4 1.6 14.04 1.6 13.6V4C1.6 3.56 1.24 3.2 0.8 3.2Z"/></symbol><symbol id="view-icon-collection" viewBox="0 0 16 16"><path d="M14.4 1.6V11.2H4.8V1.6H14.4ZM14.4 0H4.8C3.92 0 3.2 0.72 3.2 1.6V11.2C3.2 12.08 3.92 12.8 4.8 12.8H14.4C15.28 12.8 16 12.08 16 11.2V1.6C16 0.72 15.28 0 14.4 0ZM7.6 7.736L8.952 9.544L10.936 7.064L13.6 10.4H5.6L7.6 7.736ZM0 3.2V14.4C0 15.28 0.72 16 1.6 16H12.8V14.4H1.6V3.2H0Z"/></symbol><symbol id="view-icon-fb" viewBox="0 0 16 17"><path d="M16 8.5C16 4.08172 12.4183 0.5 8 0.5C3.58172 0.5 0 4.08172 0 8.5C0 12.493 2.92547 15.8027 6.75 16.4028V10.8125H4.71875V8.5H6.75V6.7375C6.75 4.7325 7.94438 3.625 9.77172 3.625C10.6467 3.625 11.5625 3.78125 11.5625 3.78125V5.75H10.5538C9.56 5.75 9.25 6.36672 9.25 7V8.5H11.4688L11.1141 10.8125H9.25V16.4028C13.0745 15.8027 16 12.493 16 8.5Z" fill="#fff"/></symbol><symbol id="view-icon-filter" viewBox="0 0 18 18"><path d="M0 14V16H6V14H0ZM0 2V4H10V2H0ZM10 18V16H18V14H10V12H8V18H10ZM4 6V8H0V10H4V12H6V6H4ZM18 10V8H8V10H18ZM12 6H14V4H18V2H14V0H12V6Z" fill="#515154"/></symbol><symbol id="view-icon-fire" viewBox="0 0 13 16"><path d="M12.0791 8.46944C10.854 5.2858 6.49211 5.11414 7.54552 0.486945C7.62355 0.143612 7.25681 -0.121691 6.9603 0.0577788C4.1278 1.72763 2.09121 5.07512 3.80007 9.46042C3.94053 9.81936 3.51916 10.1549 3.21484 9.9208C1.8025 8.85178 1.65424 7.31459 1.77909 6.21436C1.82591 5.80861 1.2953 5.61353 1.06901 5.94906C0.538408 6.76057 0 8.07148 0 10.0456C0.296515 14.4153 3.98734 15.7575 5.31386 15.9291C7.20999 16.171 9.26219 15.8199 10.737 14.47C12.36 12.964 12.953 10.5606 12.0791 8.46944ZM4.83787 12.3944C5.96151 12.1212 6.53893 11.3097 6.69499 10.5919C6.95249 9.47603 5.9459 8.3836 6.62477 6.62012C6.88227 8.07928 9.17635 8.99224 9.17635 10.5841C9.23878 12.5582 7.10075 14.2515 4.83787 12.3944Z"/></symbol><symbol id="view-icon-gallery" viewBox="0 0 15 15"><path d="M13.3333 1.66667V13.3333H1.66667V1.66667H13.3333ZM13.3333 0H1.66667C0.75 0 0 0.75 0 1.66667V13.3333C0 14.25 0.75 15 1.66667 15H13.3333C14.25 15 15 14.25 15 13.3333V1.66667C15 0.75 14.25 0 13.3333 0ZM9.28333 7.38333L6.78333 10.6083L5 8.45L2.5 11.6667H12.5L9.28333 7.38333Z" fill="#1D1D1F"/></symbol><symbol id="view-icon-like" viewBox="0 0 16 15"><path d="M11.6 0C10.208 0 8.872 0.648 8 1.672C7.128 0.648 5.792 0 4.4 0C1.936 0 0 1.936 0 4.4C0 7.424 2.72 9.888 6.84 13.632L8 14.68L9.16 13.624C13.28 9.888 16 7.424 16 4.4C16 1.936 14.064 0 11.6 0ZM8.08 12.44L8 12.52L7.92 12.44C4.112 8.992 1.6 6.712 1.6 4.4C1.6 2.8 2.8 1.6 4.4 1.6C5.632 1.6 6.832 2.392 7.256 3.488H8.752C9.168 2.392 10.368 1.6 11.6 1.6C13.2 1.6 14.4 2.8 14.4 4.4C14.4 6.712 11.888 8.992 8.08 12.44Z"/></symbol><symbol id="view-icon-liked" viewBox="0 0 16 15"><path d="M8 14.68L6.84 13.624C2.72 9.888 0 7.424 0 4.4C0 1.936 1.936 0 4.4 0C5.792 0 7.128 0.648 8 1.672C8.872 0.648 10.208 0 11.6 0C14.064 0 16 1.936 16 4.4C16 7.424 13.28 9.888 9.16 13.632L8 14.68Z" fill="#E05D57"/></symbol><symbol id="view-icon-menu" viewBox="0 0 18 12"><path fill-rule="evenodd" clip-rule="evenodd" d="M.666626 5.99996C.666626 5.53972 1.03972 5.16663 1.49996 5.16663H16.5C16.9602 5.16663 17.3333 5.53972 17.3333 5.99996 17.3333 6.4602 16.9602 6.83329 16.5 6.83329H1.49996C1.03972 6.83329.666626 6.4602.666626 5.99996zM.666626.999959C.666626.539722 1.03972.166626 1.49996.166626H16.5C16.9602.166626 17.3333.539722 17.3333.999959 17.3333 1.4602 16.9602 1.83329 16.5 1.83329H1.49996C1.03972 1.83329.666626 1.4602.666626.999959zM.666626 11C.666626 10.5397 1.03972 10.1666 1.49996 10.1666H16.5C16.9602 10.1666 17.3333 10.5397 17.3333 11 17.3333 11.4602 16.9602 11.8333 16.5 11.8333H1.49996C1.03972 11.8333.666626 11.4602.666626 11z" fill="#515154"/></symbol><symbol id="view-icon-minus" viewBox="0 0 16 3"><path d="M1.08005 2.17921H14.92C15.503 2.17921 16 1.69176 16 1.08961C16 0.497013 15.503 0 14.92 0H1.08005C0.516129 0 0 0.497013 0 1.08961C0 1.69176 0.516129 2.17921 1.08005 2.17921Z" fill="#1D1D1F"/></symbol><symbol id="view-icon-pinterest" viewBox="0 0 16 16"><path d="M9.0915 0.0746757C7.17764 -0.188639 5.23311 0.249512 3.61703 1.30821C2.00095 2.36692 0.822455 3.97468 0.299147 5.83461C-0.22417 7.6945 -0.0569563 9.68102 0.769919 11.4273C1.59679 13.1735 3.02747 14.5616 4.79779 15.3351C4.74991 14.7206 4.79385 14.1024 4.92817 13.5008C5.07614 12.8296 5.9648 9.13047 5.9648 9.13047C5.78784 8.73376 5.6994 8.30329 5.70564 7.8689C5.70564 6.68092 6.39113 5.79456 7.24379 5.79456C7.39697 5.79233 7.54887 5.82311 7.68908 5.88482C7.8293 5.94652 7.95456 6.03771 8.05638 6.15217C8.15829 6.26662 8.23427 6.40165 8.27931 6.54813C8.32426 6.6946 8.33722 6.849 8.31722 7.00092C8.31722 7.7209 7.8549 8.81048 7.61334 9.83286C7.56558 10.0204 7.56254 10.2165 7.60446 10.4053C7.64645 10.5942 7.73212 10.7706 7.85474 10.9204C7.97728 11.07 8.13333 11.1888 8.31018 11.2672C8.48711 11.3455 8.67988 11.3811 8.87313 11.3712C10.3913 11.3712 11.4087 9.42647 11.4087 7.13052C11.4087 5.37057 10.2433 4.05219 8.09486 4.05219C7.58086 4.03221 7.06814 4.11693 6.58782 4.30119C6.10756 4.48545 5.66973 4.76541 5.30095 5.12408C4.93215 5.48275 4.64009 5.91264 4.4425 6.38764C4.24491 6.86268 4.1459 7.37283 4.15149 7.8873C4.12858 8.45793 4.31266 9.01768 4.66981 9.46327C4.73654 9.51311 4.78527 9.58327 4.80864 9.66318C4.83201 9.74318 4.82876 9.82854 4.79939 9.90646C4.76259 10.0537 4.66981 10.4048 4.63301 10.5336C4.62536 10.5773 4.60755 10.6186 4.58104 10.6541C4.55452 10.6897 4.52002 10.7185 4.48034 10.7383C4.44065 10.758 4.39687 10.7682 4.35254 10.768C4.3082 10.7677 4.26454 10.7571 4.22508 10.7368C3.11806 10.2937 2.59654 9.07528 2.59654 7.6841C2.59654 5.40657 4.50343 2.68022 8.31882 2.68022C11.3551 2.68022 13.374 4.90178 13.374 7.27771C13.374 10.4048 11.6327 12.756 9.0595 12.756C8.67492 12.7683 8.29347 12.6834 7.95032 12.5092C7.60726 12.335 7.31362 12.0771 7.09662 11.7592C7.09662 11.7592 6.63429 13.612 6.54311 13.9624C6.35697 14.5677 6.0823 15.1422 5.72804 15.6671C6.46632 15.8911 7.2334 16.0031 8.00447 15.9999C9.05518 16.0008 10.0957 15.7943 11.0665 15.3924C12.0373 14.9905 12.9193 14.401 13.662 13.6577C14.4047 12.9144 14.9935 12.0319 15.3947 11.0606C15.7959 10.0894 16.0016 9.04856 16 7.9977C15.999 6.06575 15.2991 4.19938 14.0296 2.74325C12.7601 1.2871 11.0066 0.339518 9.0931 0.0754758L9.0915 0.0746757Z" fill="#fff"/></symbol><symbol id="view-icon-plus" viewBox="0 0 16 16"><path d="M1.08831 9.08831H6.91169V14.9117C6.91169 15.5036 7.39857 16 8 16C8.60143 16 9.08831 15.5036 9.08831 14.9117V9.08831H14.9117C15.5036 9.08831 16 8.60143 16 8C16 7.39857 15.5036 6.91169 14.9117 6.91169H9.08831V1.08831C9.08831 0.49642 8.60143 0 8 0C7.39857 0 6.91169 0.49642 6.91169 1.08831V6.91169H1.08831C0.49642 6.91169 0 7.39857 0 8C0 8.60143 0.49642 9.08831 1.08831 9.08831Z" fill="#1D1D1F"/></symbol><symbol id="view-icon-search" viewBox="0 0 16 16"><path d="M6.3833 12.877C7.76953 12.877 9.04785 12.4287 10.0938 11.6816L14.0283 15.6162C14.2109 15.7988 14.4517 15.8901 14.709 15.8901C15.2485 15.8901 15.6304 15.4751 15.6304 14.9438C15.6304 14.6948 15.5474 14.4541 15.3647 14.2798L11.4551 10.3618C12.2769 9.28271 12.7666 7.94629 12.7666 6.49365C12.7666 2.98242 9.89453 0.110352 6.3833 0.110352C2.88037 0.110352 0 2.97412 0 6.49365C0 10.0049 2.87207 12.877 6.3833 12.877ZM6.3833 11.499C3.64404 11.499 1.37793 9.23291 1.37793 6.49365C1.37793 3.75439 3.64404 1.48828 6.3833 1.48828C9.12256 1.48828 11.3887 3.75439 11.3887 6.49365C11.3887 9.23291 9.12256 11.499 6.3833 11.499Z"/></symbol><symbol id="view-icon-tw" viewBox="0 0 16 13"><path d="M5.03168 12.9999C11.0694 12.9999 14.3718 7.99762 14.3718 3.6597C14.3718 3.51762 14.3718 3.37618 14.3622 3.23538C15.0047 2.77068 15.5593 2.1953 16 1.53618C15.4009 1.80178 14.7654 1.97588 14.1146 2.05266C14.7999 1.64245 15.3128 0.997178 15.5578 0.236976C14.9134 0.619381 14.2084 0.88886 13.4733 1.03378C12.9783 0.507494 12.3237 0.159003 11.6108 0.0422319C10.8978 -0.0745393 10.1663 0.0469187 9.52931 0.387811C8.89234 0.728703 8.38548 1.27002 8.08716 1.92801C7.78884 2.58599 7.71569 3.32395 7.87904 4.0277C6.57393 3.96223 5.29717 3.62305 4.13164 3.03218C2.9661 2.44131 1.93784 1.61195 1.1136 0.597936C0.693819 1.3206 0.565248 2.17609 0.754066 2.99022C0.942885 3.80435 1.43489 4.51591 2.12992 4.98002C1.60749 4.96471 1.09643 4.82377 0.64 4.56914V4.61074C0.640207 5.36864 0.902567 6.10313 1.38258 6.68965C1.86259 7.27616 2.53071 7.67858 3.2736 7.82866C2.79032 7.96048 2.28325 7.97975 1.79136 7.88498C2.00121 8.53719 2.40962 9.10754 2.95949 9.51627C3.50937 9.925 4.17322 10.1517 4.85824 10.1647C4.17763 10.6996 3.39821 11.0952 2.56458 11.3287C1.73096 11.5621 0.859476 11.6289 0 11.5253C1.50122 12.4886 3.24795 12.9996 5.03168 12.9973" fill="#fff"/></symbol></defs><use id="icon-account" xlink:href="#view-icon-account" class="sprite-symbol-usage"></use><use id="icon-arrow" xlink:href="#view-icon-arrow" class="sprite-symbol-usage"></use><use id="icon-arrow_pagination" xlink:href="#view-icon-arrow_pagination" class="sprite-symbol-usage"></use><use id="icon-arrow_tr" xlink:href="#view-icon-arrow_tr" class="sprite-symbol-usage"></use><use id="icon-check" xlink:href="#view-icon-check" class="sprite-symbol-usage"></use><use id="icon-close" xlink:href="#view-icon-close" class="sprite-symbol-usage"></use><use id="icon-collected" xlink:href="#view-icon-collected" class="sprite-symbol-usage"></use><use id="icon-collection" xlink:href="#view-icon-collection" class="sprite-symbol-usage"></use><use id="icon-fb" xlink:href="#view-icon-fb" class="sprite-symbol-usage"></use><use id="icon-filter" xlink:href="#view-icon-filter" class="sprite-symbol-usage"></use><use id="icon-fire" xlink:href="#view-icon-fire" class="sprite-symbol-usage"></use><use id="icon-gallery" xlink:href="#view-icon-gallery" class="sprite-symbol-usage"></use><use id="icon-like" xlink:href="#view-icon-like" class="sprite-symbol-usage"></use><use id="icon-liked" xlink:href="#view-icon-liked" class="sprite-symbol-usage"></use><use id="icon-menu" xlink:href="#view-icon-menu" class="sprite-symbol-usage"></use><use id="icon-minus" xlink:href="#view-icon-minus" class="sprite-symbol-usage"></use><use id="icon-pinterest" xlink:href="#view-icon-pinterest" class="sprite-symbol-usage"></use><use id="icon-plus" xlink:href="#view-icon-plus" class="sprite-symbol-usage"></use><use id="icon-search" xlink:href="#view-icon-search" class="sprite-symbol-usage"></use><use id="icon-tw" xlink:href="#view-icon-tw" class="sprite-symbol-usage"></use></svg>