<svg width="200" height="46" viewBox="0 0 200 46" fill="none" xmlns="http://www.w3.org/2000/svg">
<path d="M9.99152 36.6105C12.4834 36.6105 13.8731 35.4844 14.4721 32.9446L18.3537 17.9458H18.4975L22.4031 32.8967C23.0021 35.5083 24.3678 36.6105 26.9316 36.6105C29.3516 36.6105 30.6934 35.4604 31.4122 32.9207L36.5877 14.9988C36.8512 14.0883 36.971 13.5133 36.971 12.8664C36.971 11.1173 35.6053 9.89537 33.6645 9.89537C31.9393 9.89537 30.8132 10.9496 30.4298 12.8185L26.5961 29.4705H26.4524L22.451 13.106C21.9957 11.0215 20.63 9.89537 18.5454 9.89537C16.4129 9.89537 15.0472 11.0215 14.5919 13.106L10.6145 29.4705H10.4707L6.66101 12.8664C6.25369 10.9496 5.12754 9.89537 3.37843 9.89537C1.41367 9.89537 0 11.1413 0 12.8903C0 13.5612 0.119802 14.1362 0.383368 15.0467L5.55883 32.9446C6.30161 35.4844 7.57151 36.6105 9.99152 36.6105Z" fill="white"/>
<path d="M47.3459 36.5146C50.5566 36.5146 53.7673 34.9093 55.205 32.1779H55.3487V33.4957C55.4925 35.5562 56.8103 36.6105 58.7032 36.6105C60.6919 36.6105 62.1056 35.4125 62.1056 33.0884V18.449C62.1056 13.2737 57.8166 9.87141 51.2275 9.87141C45.9083 9.87141 41.7871 11.7642 40.5891 14.8311C40.3495 15.3582 40.2297 15.8613 40.2297 16.4124C40.2297 17.9938 41.4516 19.0959 43.1528 19.0959C44.279 19.0959 45.1655 18.6646 45.9322 17.8021C47.4897 15.7895 48.7835 15.0946 50.916 15.0946C53.5517 15.0946 55.2289 16.4843 55.2289 18.8803V20.5814L48.7596 20.9648C42.3382 21.3481 38.7441 24.0556 38.7441 28.7277C38.7441 33.352 42.458 36.5146 47.3459 36.5146ZM49.6461 31.4591C47.298 31.4591 45.7166 30.2611 45.7166 28.3444C45.7166 26.5234 47.2022 25.3494 49.8138 25.1577L55.2289 24.8223V26.6911C55.2289 29.4705 52.7131 31.4591 49.6461 31.4591Z" fill="white"/>
<path d="M70.3001 36.6105C72.3607 36.6105 73.7983 35.3646 73.7983 32.9686V4.67215C73.7983 2.27617 72.3607 1.00631 70.3001 1.00631C68.2634 1.00631 66.8018 2.27617 66.8018 4.67215V32.9686C66.8018 35.3646 68.2634 36.6105 70.3001 36.6105Z" fill="white"/>
<path d="M82.1845 36.6105C84.2451 36.6105 85.6827 35.3646 85.6827 32.9686V4.67215C85.6827 2.27617 84.2451 1.00631 82.1845 1.00631C80.1478 1.00631 78.6862 2.27617 78.6862 4.67215V32.9686C78.6862 35.3646 80.1478 36.6105 82.1845 36.6105Z" fill="white"/>
<path d="M100.874 36.6584C107.654 36.6584 112.231 33.352 112.231 28.2485C112.231 24.415 109.979 22.4024 104.516 21.2523L100.275 20.3418C97.7109 19.7907 96.7045 18.9042 96.7045 17.5625C96.7045 15.9093 98.3578 14.7832 100.73 14.7832C103.246 14.7832 104.635 15.9811 105.857 17.5385C106.48 18.2813 107.487 18.6167 108.397 18.6167C110.194 18.6167 111.081 17.6344 111.081 16.2207C111.081 15.8853 111.009 15.5499 110.913 15.1905C110.074 12.2913 106.169 9.87141 100.85 9.87141C94.1887 9.87141 89.9477 13.0341 89.9477 17.9458C89.9477 21.7554 92.4875 24.3191 97.5192 25.3973L101.832 26.3078C104.348 26.8589 105.234 27.6016 105.234 28.9913C105.234 30.6924 103.581 31.7467 101.041 31.7467C98.3817 31.7467 96.8004 30.932 95.4346 29.135C94.4762 28.0569 93.5178 27.5537 92.3916 27.5537C90.7623 27.5537 89.5643 28.6319 89.5643 30.2372C89.5643 30.6205 89.6601 31.0758 89.8279 31.531C91.0498 34.5499 94.9794 36.6584 100.874 36.6584Z" fill="white"/>
<path d="M119.203 45.2599C121.264 45.2599 122.702 44.014 122.702 41.6181V31.7946H122.845C124.211 34.6937 127.086 36.5146 130.824 36.5146C137.246 36.5146 141.223 31.531 141.223 23.2649C141.223 14.9748 137.222 10.0152 130.704 10.0152C126.991 10.0152 124.139 11.884 122.75 14.903H122.606V13.5133C122.606 11.1413 121.168 9.89537 119.155 9.89537C117.143 9.89537 115.705 11.1413 115.705 13.4893V41.6181C115.705 44.014 117.167 45.2599 119.203 45.2599ZM128.356 30.8841C124.93 30.8841 122.678 27.9131 122.678 23.2649C122.678 18.6646 124.93 15.6217 128.356 15.6217C131.855 15.6217 134.059 18.6167 134.059 23.2649C134.059 27.9371 131.855 30.8841 128.356 30.8841Z" fill="white"/>
<path d="M148.459 7.23584C150.568 7.23584 152.197 5.63054 152.197 3.61792C152.197 1.58134 150.568 0 148.459 0C146.351 0 144.721 1.58134 144.721 3.61792C144.721 5.63054 146.351 7.23584 148.459 7.23584ZM148.459 36.6105C150.616 36.6105 151.957 35.2448 151.957 32.9686V13.5612C151.957 11.285 150.616 9.89537 148.459 9.89537C146.279 9.89537 144.961 11.285 144.961 13.5612V32.9686C144.961 35.2448 146.279 36.6105 148.459 36.6105Z" fill="white"/>
<path d="M168.346 36.6584C173.258 36.6584 177.643 34.2145 179.176 30.7164C179.488 30.0216 179.632 29.4465 179.632 28.8954C179.632 27.1703 178.314 26.0922 176.685 26.0922C175.199 26.0922 174.432 26.6911 173.498 28.1527C172.42 29.9736 170.91 31.1716 168.466 31.1716C164.968 31.1716 162.788 28.2964 162.788 23.2409C162.788 18.2813 164.968 15.3582 168.514 15.3582C170.742 15.3582 172.3 16.3885 173.57 18.6407C174.289 19.9105 175.127 20.4616 176.517 20.4616C178.17 20.4616 179.512 19.4553 179.512 17.7302C179.512 17.2271 179.368 16.6041 179.129 16.0051C177.739 12.3632 173.45 9.87141 168.298 9.87141C160.583 9.87141 155.695 15.0467 155.695 23.2649C155.695 31.5789 160.607 36.6584 168.346 36.6584Z" fill="white"/>
<path d="M193.175 36.616C196.948 36.616 200 33.5639 200 29.7912C200 25.976 196.948 22.9663 193.175 22.9663C189.36 22.9663 186.35 25.976 186.35 29.7912C186.35 33.5639 189.36 36.616 193.175 36.616Z" fill="#FFCC00"/>
</svg>
