<svg width="21" height="12" viewBox="0 0 21 12" fill="none" xmlns="http://www.w3.org/2000/svg">
<path d="M21 0H0V12H21V0Z" fill="#CB1D23"/>
<path d="M2.00049 4.34706L2.43799 3.12257L1.37549 2.38787H2.68799L3.06299 1.22461L3.43799 2.38787H4.75049L3.68799 3.12257L4.12549 4.34706L3.06299 3.61236L2.00049 4.34706Z" fill="#F7DE29"/>
<path d="M5.62524 4.95906L6.00024 5.14274L6.31274 4.77539V5.26519L6.75024 5.44886L6.25024 5.57131V5.99988L6.00024 5.63253L5.56274 5.69376L5.81274 5.38764L5.62524 4.95906Z" fill="#F7DE29"/>
<path d="M7.9375 2.69357L7.5 2.63234L7.25 2.99969L7.1875 2.57112L6.75 2.44867L7.125 2.265L7.0625 1.83643L7.4375 2.14255L7.8125 1.95887L7.625 2.32622L7.9375 2.69357Z" fill="#F7DE29"/>
<path d="M6.9375 4.71435L7.125 4.28577L6.75 4.04088H7.1875L7.3125 3.6123L7.5 4.04088H7.9375L7.5625 4.28577L7.6875 4.71435L7.3125 4.46945L6.9375 4.71435Z" fill="#F7DE29"/>
<path d="M5.625 0.734754L6.0625 0.979652L6.375 0.612305L6.3125 1.1021L6.75 1.28577L6.25 1.347L6.1875 1.83679L6 1.40822L5.5 1.46945L5.8125 1.16333L5.625 0.734754Z" fill="#F7DE29"/>
</svg>
