<svg width="21" height="12" viewBox="0 0 21 12" fill="none" xmlns="http://www.w3.org/2000/svg">
<path d="M20.9999 0H0V3.97967H20.9999V0Z" fill="black"/>
<path d="M20.9999 3.97949H0V7.95917H20.9999V3.97949Z" fill="#E1001F"/>
<path d="M20.9999 8.02002H0V11.9997H20.9999V8.02002Z" fill="#F6D928"/>
<path d="M7.56274 2.81592V7.59153C7.56274 9.36707 10.0002 9.1834 10.4377 9.91811C10.8752 9.1834 13.3127 9.4283 13.3127 7.59153V2.81592H7.56274Z" fill="#F6D728"/>
<path d="M10.5002 9.97933C10.3127 9.6732 9.93774 9.55075 9.43774 9.4283C8.62524 9.1834 7.56274 8.81604 7.56274 7.65275V2.81592H13.4377V7.65275C13.4377 8.81604 12.4377 9.12217 11.5627 9.4283C11.0627 9.55075 10.6877 9.6732 10.5002 9.97933ZM7.62524 2.87714V7.65275C7.62524 8.81604 8.62524 9.12217 9.43774 9.36707C9.93774 9.55075 10.3127 9.6732 10.5002 9.91811C10.6877 9.6732 11.0627 9.55075 11.5627 9.36707C12.4377 9.06095 13.3752 8.75482 13.3752 7.65275V2.87714H7.62524Z" fill="black"/>
<path d="M10.3123 3.55086C10.3123 3.67332 10.3123 4.04067 10.1873 4.16312C10.1248 4.28557 9.93734 4.46925 9.93734 4.71415C9.87484 5.81622 10.2498 7.34686 10.4998 8.44893C10.7498 7.34686 11.1248 5.75499 11.0623 4.71415C10.9998 3.61209 10.8123 3.36719 10.8123 3.36719L10.3123 3.55086Z" fill="black"/>
<path d="M10.3748 3.67294C10.1248 3.67294 9.87476 3.61171 9.68726 3.48926C9.74976 3.61171 9.93725 3.67294 10.1873 3.73416L10.3748 3.67294Z" fill="#CA001C"/>
<path d="M10.1873 3.73416C9.93725 3.67294 9.74976 3.61171 9.62476 3.48926C9.87475 3.61171 10.0623 3.67294 10.3748 3.67294C10.1248 3.67294 9.87476 3.61171 9.68726 3.48926C9.74976 3.61171 9.93725 3.67294 10.1873 3.73416Z" fill="black"/>
<path d="M10.2499 3.12219C9.81245 2.87729 9.56245 3.12219 9.81245 3.55077C9.81245 3.48955 10.1249 3.3671 10.2499 3.73445C10.1874 3.79568 9.99995 3.79568 9.74995 3.73445C9.87495 3.8569 10.2499 3.8569 10.3749 3.79568C10.4374 3.73445 10.2499 3.3671 10.2499 3.3671V3.12219Z" fill="#CA001C"/>
<path d="M10.2498 3.79579C10.1248 3.79579 9.87479 3.79579 9.81229 3.67333C10.0623 3.67333 10.2498 3.67333 10.3123 3.67333C10.2498 3.48966 10.1248 3.42843 10.0623 3.42843C9.99979 3.42843 9.93729 3.48966 9.93729 3.48966C9.81229 3.30598 9.74979 3.1223 9.81229 3.06108C9.87479 2.93863 10.1248 2.93863 10.3123 3.06108C10.1248 2.93863 9.93729 2.93863 9.81229 3.06108C9.74979 3.1223 9.74979 3.30598 9.87479 3.48966C9.87479 3.42843 9.93729 3.42843 9.99979 3.42843C10.0623 3.42843 10.1873 3.48966 10.3123 3.67333C10.2498 3.73456 10.0623 3.73456 9.81229 3.67333C9.93729 3.73456 10.3123 3.79579 10.4373 3.73456C10.4998 3.73456 10.3748 3.48966 10.3123 3.36721C10.3748 3.42843 10.5623 3.73456 10.4373 3.79579C10.3748 3.79579 10.3123 3.79579 10.2498 3.79579Z" fill="black"/>
<path d="M10.8127 3.36681C10.8752 3.36681 11.0002 3.30558 11.0627 3.24436C10.8752 3.24436 10.6252 3.18313 10.5002 3.12191C10.3752 3.06068 10.1877 2.93823 10.1877 3.18313C10.1877 3.42803 10.4377 3.61171 10.4377 3.79539L10.8127 3.36681Z" fill="black"/>
<path d="M10.4375 3.24452C10.4375 3.24452 10.3125 3.1833 10.25 3.12207C10.25 3.12207 10.1875 3.30575 10.3125 3.36697C10.375 3.30575 10.375 3.24452 10.4375 3.24452Z" fill="#F0F7FF"/>
<path d="M10.3125 3.12207C10.25 3.12207 10.25 3.1833 10.25 3.30575C10.25 3.24452 10.3125 3.1833 10.375 3.1833L10.3125 3.12207Z" fill="black"/>
<path d="M11.1252 5.08113V6.79545L13.0627 8.38732V4.16274C13.0627 3.85661 13.0002 3.61171 12.8752 3.48926V4.34642L11.1252 5.08113Z" fill="black"/>
<path d="M11.9373 8.20412H11.8748V4.5918H11.9373V8.20412Z" fill="#F6D728"/>
<path d="M12.3748 8.20412H12.3123V4.5918H12.3748V8.20412Z" fill="#F6D728"/>
<path d="M12.7502 8.20412H12.6877V4.5918H12.7502V8.20412Z" fill="#F6D728"/>
<path d="M10.7498 5.44845C12.0623 5.44845 12.6247 5.01987 12.9372 4.71374V3.55045C13.0622 3.48923 13.1247 3.36678 13.1247 3.1831C12.6872 3.48923 12.0623 2.75452 11.6873 3.55045C11.8748 3.97903 12.3122 3.91781 12.4372 3.67291C12.7497 3.91781 12.4997 4.83619 10.7498 4.83619V5.44845Z" fill="black"/>
<path d="M11.2503 8.26562C11.1253 8.38808 11.2503 8.51053 11.3128 8.57175C11.3128 8.51053 11.3128 8.38808 11.3753 8.32685L11.2503 8.26562Z" fill="#CA001C"/>
<path d="M11.312 8.50974C11.2495 8.50974 11.187 8.44852 11.187 8.38729C11.187 8.32606 11.187 8.26484 11.2495 8.20361C11.187 8.26484 11.187 8.32607 11.187 8.32607C11.187 8.44852 11.2495 8.50974 11.312 8.50974C11.2495 8.44852 11.2495 8.32607 11.312 8.26484C11.312 8.38729 11.312 8.44852 11.312 8.50974Z" fill="black"/>
<path d="M11.75 8.75488C11.75 8.81611 11.75 8.87733 11.6875 8.99979C11.875 8.93856 11.9375 8.87733 11.875 8.81611L11.75 8.75488Z" fill="#CA001C"/>
<path d="M11.6875 8.93826C11.75 8.81581 11.75 8.75459 11.75 8.69336C11.75 8.75459 11.75 8.87704 11.6875 8.93826C11.8125 8.87704 11.875 8.87704 11.875 8.81581V8.75459C11.9375 8.75459 11.9375 8.81581 11.875 8.81581C11.875 8.87704 11.8125 8.93826 11.6875 8.93826Z" fill="black"/>
<path d="M12.3123 8.51044C12.3123 8.57167 12.3748 8.6329 12.3123 8.75535C12.4373 8.6329 12.4998 8.51044 12.3748 8.44922L12.3123 8.51044Z" fill="#CA001C"/>
<path d="M12.3752 8.75535C12.3752 8.6329 12.3752 8.57167 12.3752 8.51044C12.3752 8.57167 12.3752 8.6329 12.3752 8.75535C12.4377 8.69412 12.5002 8.57167 12.5002 8.51044C12.5002 8.51044 12.5002 8.44922 12.4377 8.44922C12.5002 8.44922 12.5002 8.44922 12.5002 8.51044C12.5002 8.57167 12.4377 8.69412 12.3752 8.75535Z" fill="black"/>
<path d="M12.3123 8.01991C12.3748 8.01991 12.4373 8.08114 12.4373 8.14236C12.4373 7.95869 12.4373 7.89746 12.2498 7.89746L12.3123 8.01991Z" fill="#CA001C"/>
<path d="M12.4998 8.14236C12.4373 8.08114 12.3748 8.01991 12.3123 8.01991C12.3748 8.01991 12.4373 8.01991 12.4998 8.14236C12.4998 7.95869 12.4373 7.89746 12.3123 7.89746C12.4373 7.89746 12.4998 7.95869 12.4998 8.14236Z" fill="black"/>
<path d="M11 7.53036L11.6875 8.14261C11.6875 8.14261 11.4375 8.20384 11.3125 8.20384C11.1875 8.20384 11.125 8.20384 11.125 8.26507C11.125 8.26507 11.1875 8.26507 11.25 8.32629C11.25 8.38752 11.3125 8.44874 11.375 8.38752C11.4375 8.32629 11.625 8.26507 11.625 8.26507C11.625 8.26507 11.625 8.5712 11.625 8.63242C11.625 8.69365 11.5625 8.75487 11.625 8.75487C11.625 8.75487 11.625 8.75487 11.75 8.75487C11.875 8.75487 11.875 8.8161 11.8125 8.63242C11.8125 8.44874 11.8125 8.26507 11.8125 8.26507C11.8125 8.26507 12.0625 8.44874 12.1875 8.5712C12.25 8.69365 12.25 8.5712 12.3125 8.5712C12.375 8.50997 12.4375 8.50997 12.4375 8.50997C12.5 8.50997 12.3125 8.44874 12.25 8.44874C12.1875 8.44874 11.875 8.20384 11.875 8.20384C11.875 8.20384 12.0625 8.14261 12.1875 8.14261C12.3125 8.14261 12.3125 8.14261 12.3125 8.08139C12.3125 8.02016 12.3125 7.95894 12.3125 7.95894C12.3125 7.95894 12.3125 7.89771 12.25 7.95894C12.1875 7.95894 11.875 8.08139 11.875 8.08139L11.25 7.34668L11 7.53036Z" fill="#CA001C"/>
<path d="M11.875 8.75487H11.8125C11.75 8.75487 11.6875 8.75487 11.6875 8.75487H11.625C11.625 8.75487 11.625 8.69365 11.625 8.63242V8.57119C11.625 8.50997 11.625 8.26507 11.625 8.20384C11.625 8.20384 11.4375 8.26507 11.375 8.32629H11.3125C11.25 8.32629 11.25 8.26507 11.25 8.26507L11.1875 8.20384H11.125C11.125 8.14261 11.25 8.14261 11.3125 8.14261C11.4375 8.14261 11.6875 8.08139 11.6875 8.08139L11 7.46913L11.6875 8.08139C11.6875 8.08139 11.4375 8.14261 11.3125 8.14261C11.25 8.14261 11.1875 8.14261 11.125 8.20384C11.125 8.20384 11.125 8.20384 11.1875 8.26507C11.1875 8.26507 11.25 8.26507 11.25 8.32629C11.25 8.38752 11.3125 8.38752 11.3125 8.38752C11.3125 8.38752 11.3125 8.38752 11.375 8.38752C11.4375 8.32629 11.625 8.26507 11.625 8.26507V8.63242V8.69365V8.75487C11.6875 8.75487 11.6875 8.75487 11.75 8.75487H11.875V8.69365V8.63242C11.875 8.44874 11.875 8.26507 11.875 8.26507C11.875 8.26507 12.125 8.44874 12.25 8.57119C12.3125 8.63242 12.3125 8.63242 12.3125 8.63242C12.3125 8.63242 12.3125 8.63242 12.3125 8.57119C12.375 8.50997 12.375 8.50997 12.4375 8.50997C12.4375 8.50997 12.375 8.50997 12.375 8.44874C12.3125 8.44874 12.3125 8.44874 12.3125 8.38752C12.25 8.38752 11.9375 8.14261 11.9375 8.14261C11.9375 8.14261 12.125 8.08139 12.25 8.08139C12.3125 8.08139 12.3125 8.08139 12.375 8.08139C12.375 8.08139 12.375 8.08139 12.375 8.02016C12.375 7.95894 12.375 7.95894 12.375 7.89771C12.375 7.89771 12.375 7.89771 12.3125 7.89771C12.1875 7.95894 11.875 8.08139 11.875 8.08139L11.25 7.34668L11.8125 8.08139C11.8125 8.08139 12.125 7.95894 12.1875 7.89771C12.25 7.89771 12.25 7.83649 12.25 7.83649C12.25 7.83649 12.25 7.83649 12.25 7.89771C12.25 7.89771 12.25 7.89771 12.25 7.95894C12.25 7.95894 12.25 8.02016 12.25 8.08139V8.14261C12.25 8.14261 12.1875 8.14261 12.125 8.14261C12 8.14261 11.875 8.20384 11.8125 8.20384C11.875 8.20384 12.125 8.38752 12.1875 8.38752C12.1875 8.38752 12.25 8.38752 12.25 8.44874C12.3125 8.44874 12.3125 8.50997 12.3125 8.50997H12.25C12.1875 8.50997 12.1875 8.50997 12.125 8.57119C12.125 8.57119 12.125 8.5712 12.125 8.63242C12.125 8.63242 12.125 8.69365 12.0625 8.69365C12.0625 8.69365 12 8.69365 12 8.63242C11.9375 8.50997 11.6875 8.38752 11.625 8.32629C11.625 8.32629 11.625 8.50997 11.625 8.69365V8.75487C11.9375 8.75487 11.9375 8.75487 11.875 8.75487Z" fill="black"/>
<path d="M10.4998 9.36733L10.8123 8.99998C11.1873 9.18366 11.4373 9.12243 11.5623 8.8163C11.0623 8.87753 10.8123 8.44895 10.8123 7.40811L11.1873 8.02037V7.46933L11.6873 7.53056L10.4373 6.18359L10.4998 9.36733Z" fill="black"/>
<path d="M9.81249 5.08113V6.79545L7.875 8.38732V4.16274C7.875 3.85661 7.9375 3.61171 8.0625 3.48926V4.34642L9.81249 5.08113Z" fill="black"/>
<path d="M9.5 8.20412H9.4375V4.5918H9.5V8.20412Z" fill="#F6D728"/>
<path d="M8.6875 8.20412H8.625V4.5918H8.6875V8.20412Z" fill="#F6D728"/>
<path d="M8.25 8.20412H8.1875V4.5918H8.25V8.20412Z" fill="#F6D728"/>
<path d="M10.2497 5.44875C8.93725 5.44875 8.37475 5.02017 8.06225 4.71404V3.55075C7.93726 3.48953 7.81226 3.4283 7.81226 3.24462C8.24975 3.55075 8.87475 2.81604 9.24975 3.61198C9.06225 4.04056 8.62475 3.97933 8.49975 3.73443C8.18725 3.97933 8.43725 4.89772 10.1872 4.89772V5.44875H10.2497Z" fill="black"/>
<path d="M9.74976 8.26562C9.87476 8.38808 9.74976 8.51053 9.68726 8.57175C9.68726 8.51053 9.68726 8.38808 9.62476 8.32685L9.74976 8.26562Z" fill="#CA001C"/>
<path d="M9.68726 8.51053C9.68726 8.38808 9.68726 8.32685 9.62476 8.26562C9.68726 8.32685 9.68726 8.4493 9.68726 8.51053C9.74976 8.4493 9.74976 8.4493 9.81226 8.38808C9.81226 8.32685 9.81226 8.26562 9.74976 8.26562C9.81226 8.32685 9.81226 8.38808 9.81226 8.4493C9.74976 8.4493 9.74976 8.51053 9.68726 8.51053Z" fill="black"/>
<path d="M9.25 8.75488C9.25 8.81611 9.25 8.87733 9.3125 8.99979C9.125 8.93856 9.0625 8.87733 9.125 8.81611L9.25 8.75488Z" fill="#CA001C"/>
<path d="M9.31225 8.93826C9.18726 8.93826 9.12476 8.87704 9.06226 8.81581C9.06226 8.81581 9.06226 8.75459 9.06226 8.69336C9.06226 8.75459 9.06226 8.75459 9.06226 8.81581C9.12476 8.87704 9.18726 8.87704 9.31225 8.93826C9.24975 8.87704 9.18726 8.81581 9.18726 8.75459C9.24976 8.75459 9.24975 8.87704 9.31225 8.93826Z" fill="black"/>
<path d="M8.62478 8.51044C8.62478 8.57167 8.56228 8.6329 8.62478 8.75535C8.49978 8.6329 8.43728 8.51044 8.56228 8.44922L8.62478 8.51044Z" fill="#CA001C"/>
<path d="M8.6251 8.75535C8.5001 8.69412 8.43761 8.57167 8.5001 8.51044C8.5001 8.44922 8.5001 8.44922 8.5626 8.44922L8.5001 8.51044C8.5001 8.57167 8.5626 8.6329 8.6251 8.75535C8.5626 8.69412 8.5626 8.57167 8.6251 8.51044C8.6251 8.57167 8.6251 8.6329 8.6251 8.75535Z" fill="black"/>
<path d="M8.62524 8.01991C8.56274 8.01991 8.50024 8.08114 8.50024 8.14236C8.50024 7.95869 8.50024 7.89746 8.68774 7.89746L8.62524 8.01991Z" fill="#CA001C"/>
<path d="M8.50024 8.14255C8.50024 7.95888 8.50024 7.89765 8.62524 7.83643C8.56274 7.89765 8.50024 7.95888 8.50024 8.14255C8.56274 8.0201 8.56274 8.0201 8.62524 7.95888C8.62524 8.0201 8.56274 8.08133 8.50024 8.14255Z" fill="black"/>
<path d="M9.93762 7.53065L9.25013 8.14291C9.25013 8.14291 9.50012 8.20414 9.62512 8.20414C9.75012 8.20414 9.81262 8.20414 9.81262 8.26536C9.81262 8.26536 9.75012 8.26536 9.68762 8.32659C9.68762 8.38782 9.62512 8.44904 9.56262 8.38781C9.50012 8.32659 9.31262 8.26536 9.31262 8.26536C9.31262 8.26536 9.31262 8.57149 9.31262 8.63272C9.31262 8.69394 9.37512 8.75517 9.31262 8.75517C9.31262 8.75517 9.31262 8.75517 9.18763 8.75517C9.06263 8.75517 9.06263 8.8164 9.12513 8.63272C9.12513 8.44904 9.12513 8.26536 9.12513 8.26536C9.12513 8.26536 8.87513 8.44904 8.75013 8.57149C8.68763 8.69394 8.68763 8.57149 8.62513 8.57149C8.56263 8.51027 8.50013 8.51027 8.50013 8.51027C8.43763 8.51027 8.62513 8.44904 8.68763 8.44904C8.75013 8.44904 9.06263 8.20414 9.06263 8.20414C9.06263 8.20414 8.87513 8.14291 8.75013 8.14291C8.62513 8.14291 8.62513 8.14291 8.62513 8.08169C8.62513 8.02046 8.62513 7.95923 8.62513 7.95923C8.62513 7.95923 8.62513 7.89801 8.68763 7.95923C8.75013 8.02046 9.12513 8.14291 9.12513 8.14291L9.68762 7.4082L9.93762 7.53065Z" fill="#CA001C"/>
<path d="M9.06274 8.75506V8.69384V8.63261C9.06274 8.44893 9.06274 8.32648 9.06274 8.26526C9.06274 8.26526 8.81274 8.44893 8.75024 8.57139C8.68774 8.63261 8.68774 8.63261 8.68774 8.63261C8.68774 8.63261 8.68774 8.63261 8.62524 8.57139C8.62524 8.57139 8.62524 8.57139 8.62524 8.51016C8.56274 8.44893 8.56274 8.44893 8.50024 8.44893C8.50024 8.44893 8.50024 8.44893 8.56274 8.38771C8.62524 8.38771 8.62524 8.38771 8.62524 8.32648C8.68774 8.32648 8.93774 8.14281 9.00024 8.14281C9.00024 8.14281 8.81274 8.08158 8.68774 8.08158C8.62524 8.08158 8.56274 8.08158 8.56274 8.08158C8.56274 8.08158 8.56274 8.08158 8.56274 8.02035C8.56274 7.95913 8.56274 7.95913 8.56274 7.8979C8.56274 7.8979 8.56274 7.8979 8.56274 7.83668V7.77545C8.56274 7.77545 8.62524 7.77545 8.62524 7.83668C8.68774 7.8979 9.00024 8.02035 9.06274 8.02035L9.62524 7.28564L9.06274 8.02035C9.06274 8.02035 8.68774 7.8979 8.62524 7.83668C8.56274 7.77545 8.56274 7.77545 8.56274 7.77545C8.56274 7.83668 8.56274 7.83668 8.56274 7.83668C8.56274 7.8979 8.56274 7.8979 8.56274 7.95913V8.02035C8.56274 8.02035 8.62524 8.02035 8.68774 8.02035C8.81274 8.02035 9.00024 8.08158 9.00024 8.08158C9.00024 8.08158 8.68774 8.26526 8.62524 8.32648C8.62524 8.32648 8.56274 8.32648 8.56274 8.38771L8.50024 8.44893C8.56274 8.44893 8.62524 8.51016 8.62524 8.51016C8.62524 8.51016 8.62524 8.51016 8.62524 8.57139C8.62524 8.57139 8.62524 8.57139 8.68774 8.51016C8.75024 8.38771 9.00024 8.20403 9.06274 8.20403C9.06274 8.20403 9.06274 8.38771 9.06274 8.57139V8.63261C9.06274 8.75506 9.06274 8.75506 9.06274 8.75506C9.06274 8.75506 9.12524 8.75506 9.06274 8.75506H9.12524C9.18774 8.75506 9.25024 8.75506 9.25024 8.75506V8.69384V8.63261C9.25024 8.57139 9.25024 8.26526 9.25024 8.26526C9.25024 8.26526 9.50024 8.32648 9.50024 8.38771H9.56274L9.62524 8.32648L9.68774 8.26526H9.75024C9.75024 8.26526 9.68774 8.20403 9.62524 8.20403C9.50024 8.20403 9.25024 8.14281 9.25024 8.14281L9.93774 7.53055L9.25024 8.14281C9.25024 8.14281 9.50024 8.20403 9.62524 8.20403C9.68774 8.20403 9.81274 8.20403 9.81274 8.26526H9.75024C9.75024 8.26526 9.68774 8.26526 9.68774 8.32648C9.68774 8.38771 9.62524 8.38771 9.62524 8.38771H9.56274C9.50024 8.32648 9.31274 8.26526 9.31274 8.26526C9.31274 8.32648 9.31274 8.57139 9.31274 8.63261V8.69384C9.31274 8.75506 9.37524 8.75506 9.31274 8.81629H9.25024C9.25024 8.81629 9.18774 8.81629 9.12524 8.81629L9.06274 8.75506C9.12524 8.75506 9.12524 8.75506 9.06274 8.75506Z" fill="black"/>
<path d="M10.4998 9.36733L10.1873 8.99998C9.81225 9.18366 9.56226 9.12243 9.43726 8.8163C9.93725 8.87753 10.1873 8.44895 10.1873 7.40811L9.81225 8.02037V7.46933L9.31226 7.53056L10.5623 6.18359L10.4998 9.36733Z" fill="black"/>
</svg>
