<svg width="21" height="12" viewBox="0 0 21 12" fill="none" xmlns="http://www.w3.org/2000/svg">
<path d="M21 11.0815H0V11.9999H21V11.0815Z" fill="#CB001C"/>
<path d="M21 10.1631H0V11.0815H21V10.1631Z" fill="#F4F4F4"/>
<path d="M21 9.24463H0V10.163H21V9.24463Z" fill="#CB001C"/>
<path d="M21 8.32617H0V9.24457H21V8.32617Z" fill="#F4F4F4"/>
<path d="M21 7.34717H0V8.26556H21V7.34717Z" fill="#CB001C"/>
<path d="M21 6.42871H0V7.34711H21V6.42871Z" fill="#F4F4F4"/>
<path d="M21 5.51025H0V6.42865H21V5.51025Z" fill="#CB001C"/>
<path d="M21 4.5918H0V5.51019H21V4.5918Z" fill="#F4F4F4"/>
<path d="M21 3.67334H0V4.59173H21V3.67334Z" fill="#CB001C"/>
<path d="M21 2.75488H0V3.67328H21V2.75488Z" fill="#F4F4F4"/>
<path d="M21 1.83691H0V2.75531H21V1.83691Z" fill="#CB001C"/>
<path d="M21 0.918457H0V1.83685H21V0.918457Z" fill="#F4F4F4"/>
<path d="M21 0H0V0.918395H21V0Z" fill="#CB001C"/>
<path d="M9.56248 0H0V6.42876H9.56248V0Z" fill="#2A3560"/>
<path d="M0.874511 0.734863L0.937011 0.979769H1.18701L0.999511 1.10222L1.06201 1.34713L0.874511 1.22467L0.624511 1.34713L0.749511 1.10222L0.499512 0.979769H0.812011L0.874511 0.734863Z" fill="#F4F4F4"/>
<path d="M0.874511 1.77588L0.937011 2.02078H1.18701L0.999511 2.20446L1.06201 2.44937L0.874511 2.26569L0.624511 2.44937L0.749511 2.20446L0.499512 2.02078H0.812011L0.874511 1.77588Z" fill="#F4F4F4"/>
<path d="M0.874511 2.87744L0.937011 3.12235H1.18701L0.999511 3.2448L1.06201 3.4897L0.874511 3.36725L0.624511 3.4897L0.749511 3.2448L0.499512 3.12235H0.812011L0.874511 2.87744Z" fill="#F4F4F4"/>
<path d="M0.874511 3.91895L0.937011 4.16385H1.18701L0.999511 4.34753L1.06201 4.59243L0.874511 4.40876L0.624511 4.59243L0.749511 4.34753L0.499512 4.16385H0.812011L0.874511 3.91895Z" fill="#F4F4F4"/>
<path d="M0.874511 5.02051L0.937011 5.26541H1.18701L0.999511 5.38787L1.06201 5.63277L0.874511 5.51032L0.624511 5.63277L0.749511 5.38787L0.499512 5.26541H0.812011L0.874511 5.02051Z" fill="#F4F4F4"/>
<path d="M1.625 1.28564L1.6875 1.53055H2L1.75 1.653L1.8125 1.89791L1.625 1.77546L1.4375 1.89791L1.5 1.653L1.3125 1.53055H1.5625L1.625 1.28564Z" fill="#F4F4F4"/>
<path d="M1.625 2.32617L1.6875 2.57108H2L1.75 2.75476L1.8125 2.99966L1.625 2.81598L1.4375 2.99966L1.5 2.75476L1.3125 2.57108H1.5625L1.625 2.32617Z" fill="#F4F4F4"/>
<path d="M1.625 3.42822L1.6875 3.67313H2L1.75 3.85681L1.8125 4.10171L1.625 3.91803L1.4375 4.10171L1.5 3.85681L1.3125 3.67313H1.5625L1.625 3.42822Z" fill="#F4F4F4"/>
<path d="M1.625 4.53125L1.6875 4.77616H2L1.75 4.89861L1.8125 5.14351L1.625 5.02106L1.4375 5.14351L1.5 4.89861L1.3125 4.77616H1.5625L1.625 4.53125Z" fill="#F4F4F4"/>
<path d="M2.375 0.734863L2.5 0.979769H2.75L2.5625 1.10222L2.625 1.34713L2.375 1.22467L2.1875 1.34713L2.25 1.10222L2.0625 0.979769H2.3125L2.375 0.734863Z" fill="#F4F4F4"/>
<path d="M2.375 1.77588L2.5 2.02078H2.75L2.5625 2.20446L2.625 2.44937L2.375 2.26569L2.1875 2.44937L2.25 2.20446L2.0625 2.02078H2.3125L2.375 1.77588Z" fill="#F4F4F4"/>
<path d="M2.375 2.87744L2.5 3.12235H2.75L2.5625 3.2448L2.625 3.4897L2.375 3.36725L2.1875 3.4897L2.25 3.2448L2.0625 3.12235H2.3125L2.375 2.87744Z" fill="#F4F4F4"/>
<path d="M2.375 3.91895L2.5 4.16385H2.75L2.5625 4.34753L2.625 4.59243L2.375 4.40876L2.1875 4.59243L2.25 4.34753L2.0625 4.16385H2.3125L2.375 3.91895Z" fill="#F4F4F4"/>
<path d="M2.375 5.02051L2.5 5.26541H2.75L2.5625 5.38787L2.625 5.63277L2.375 5.51032L2.1875 5.63277L2.25 5.38787L2.0625 5.26541H2.3125L2.375 5.02051Z" fill="#F4F4F4"/>
<path d="M3.1875 1.28564L3.25 1.53055H3.5L3.3125 1.653L3.375 1.89791L3.1875 1.77546L2.9375 1.89791L3.0625 1.653L2.8125 1.53055H3.0625L3.1875 1.28564Z" fill="#F4F4F4"/>
<path d="M3.1875 2.32617L3.25 2.57108H3.5L3.3125 2.75476L3.375 2.99966L3.1875 2.81598L2.9375 2.99966L3.0625 2.75476L2.8125 2.57108H3.0625L3.1875 2.32617Z" fill="#F4F4F4"/>
<path d="M3.1875 3.42822L3.25 3.67313H3.5L3.3125 3.85681L3.375 4.10171L3.1875 3.91803L2.9375 4.10171L3.0625 3.85681L2.8125 3.67313H3.0625L3.1875 3.42822Z" fill="#F4F4F4"/>
<path d="M3.1875 4.53125L3.25 4.77616H3.5L3.3125 4.89861L3.375 5.14351L3.1875 5.02106L2.9375 5.14351L3.0625 4.89861L2.8125 4.77616H3.0625L3.1875 4.53125Z" fill="#F4F4F4"/>
<path d="M3.93701 0.734863L3.99951 0.979769H4.31201L4.06201 1.10222L4.18701 1.34713L3.93701 1.22467L3.74951 1.34713L3.81201 1.10222L3.62451 0.979769H3.87451L3.93701 0.734863Z" fill="#F4F4F4"/>
<path d="M3.93701 1.77588L3.99951 2.02078H4.31201L4.06201 2.20446L4.18701 2.44937L3.93701 2.26569L3.74951 2.44937L3.81201 2.20446L3.62451 2.02078H3.87451L3.93701 1.77588Z" fill="#F4F4F4"/>
<path d="M3.93701 2.87744L3.99951 3.12235H4.31201L4.06201 3.2448L4.18701 3.4897L3.93701 3.36725L3.74951 3.4897L3.81201 3.2448L3.62451 3.12235H3.87451L3.93701 2.87744Z" fill="#F4F4F4"/>
<path d="M3.93701 3.91895L3.99951 4.16385H4.31201L4.06201 4.34753L4.18701 4.59243L3.93701 4.40876L3.74951 4.59243L3.81201 4.34753L3.62451 4.16385H3.87451L3.93701 3.91895Z" fill="#F4F4F4"/>
<path d="M3.93701 5.02051L3.99951 5.26541H4.31201L4.06201 5.38787L4.18701 5.63277L3.93701 5.51032L3.74951 5.63277L3.81201 5.38787L3.62451 5.26541H3.87451L3.93701 5.02051Z" fill="#F4F4F4"/>
<path d="M4.6875 1.28564L4.8125 1.53055H5.0625L4.875 1.653L4.9375 1.89791L4.6875 1.77546L4.5 1.89791L4.5625 1.653L4.375 1.53055H4.625L4.6875 1.28564Z" fill="#F4F4F4"/>
<path d="M4.6875 2.32617L4.8125 2.57108H5.0625L4.875 2.75476L4.9375 2.99966L4.6875 2.81598L4.5 2.99966L4.5625 2.75476L4.375 2.57108H4.625L4.6875 2.32617Z" fill="#F4F4F4"/>
<path d="M4.6875 3.42822L4.8125 3.67313H5.0625L4.875 3.85681L4.9375 4.10171L4.6875 3.91803L4.5 4.10171L4.5625 3.85681L4.375 3.67313H4.625L4.6875 3.42822Z" fill="#F4F4F4"/>
<path d="M4.6875 4.53125L4.8125 4.77616H5.0625L4.875 4.89861L4.9375 5.14351L4.6875 5.02106L4.5 5.14351L4.5625 4.89861L4.375 4.77616H4.625L4.6875 4.53125Z" fill="#F4F4F4"/>
<path d="M5.50024 0.734863L5.56274 0.979769H5.81274L5.62524 1.10222L5.68774 1.34713L5.50024 1.22467L5.25024 1.34713L5.37524 1.10222L5.12524 0.979769H5.43774L5.50024 0.734863Z" fill="#F4F4F4"/>
<path d="M5.50024 1.77588L5.56274 2.02078H5.81274L5.62524 2.20446L5.68774 2.44937L5.50024 2.26569L5.25024 2.44937L5.37524 2.20446L5.12524 2.02078H5.43774L5.50024 1.77588Z" fill="#F4F4F4"/>
<path d="M5.50024 2.87744L5.56274 3.12235H5.81274L5.62524 3.2448L5.68774 3.4897L5.50024 3.36725L5.25024 3.4897L5.37524 3.2448L5.12524 3.12235H5.43774L5.50024 2.87744Z" fill="#F4F4F4"/>
<path d="M5.50024 3.91895L5.56274 4.16385H5.81274L5.62524 4.34753L5.68774 4.59243L5.50024 4.40876L5.25024 4.59243L5.37524 4.34753L5.12524 4.16385H5.43774L5.50024 3.91895Z" fill="#F4F4F4"/>
<path d="M5.50024 5.02051L5.56274 5.26541H5.81274L5.62524 5.38787L5.68774 5.63277L5.50024 5.51032L5.25024 5.63277L5.37524 5.38787L5.12524 5.26541H5.43774L5.50024 5.02051Z" fill="#F4F4F4"/>
<path d="M6.25 1.28564L6.3125 1.53055H6.625L6.375 1.653L6.4375 1.89791L6.25 1.77546L6.0625 1.89791L6.125 1.653L5.9375 1.53055H6.1875L6.25 1.28564Z" fill="#F4F4F4"/>
<path d="M6.25 2.32617L6.3125 2.57108H6.625L6.375 2.75476L6.4375 2.99966L6.25 2.81598L6.0625 2.99966L6.125 2.75476L5.9375 2.57108H6.1875L6.25 2.32617Z" fill="#F4F4F4"/>
<path d="M6.25 3.42822L6.3125 3.67313H6.625L6.375 3.85681L6.4375 4.10171L6.25 3.91803L6.0625 4.10171L6.125 3.85681L5.9375 3.67313H6.1875L6.25 3.42822Z" fill="#F4F4F4"/>
<path d="M6.25 4.53125L6.3125 4.77616H6.625L6.375 4.89861L6.4375 5.14351L6.25 5.02106L6.0625 5.14351L6.125 4.89861L5.9375 4.77616H6.1875L6.25 4.53125Z" fill="#F4F4F4"/>
<path d="M7.0625 0.734863L7.125 0.979769H7.375L7.1875 1.10222L7.25 1.34713L7.0625 1.22467L6.8125 1.34713L6.875 1.10222L6.6875 0.979769H6.9375L7.0625 0.734863Z" fill="#F4F4F4"/>
<path d="M7.0625 1.77588L7.125 2.02078H7.375L7.1875 2.20446L7.25 2.44937L7.0625 2.26569L6.8125 2.44937L6.875 2.20446L6.6875 2.02078H6.9375L7.0625 1.77588Z" fill="#F4F4F4"/>
<path d="M7.0625 2.87744L7.125 3.12235H7.375L7.1875 3.2448L7.25 3.4897L7.0625 3.36725L6.8125 3.4897L6.875 3.2448L6.6875 3.12235H6.9375L7.0625 2.87744Z" fill="#F4F4F4"/>
<path d="M7.0625 3.91895L7.125 4.16385H7.375L7.1875 4.34753L7.25 4.59243L7.0625 4.40876L6.8125 4.59243L6.875 4.34753L6.6875 4.16385H6.9375L7.0625 3.91895Z" fill="#F4F4F4"/>
<path d="M7.0625 5.02051L7.125 5.26541H7.375L7.1875 5.38787L7.25 5.63277L7.0625 5.51032L6.8125 5.63277L6.875 5.38787L6.6875 5.26541H6.9375L7.0625 5.02051Z" fill="#F4F4F4"/>
<path d="M7.8125 1.28564L7.875 1.53055H8.125L7.9375 1.653L8 1.89791L7.8125 1.77546L7.5625 1.89791L7.6875 1.653L7.4375 1.53055H7.6875L7.8125 1.28564Z" fill="#F4F4F4"/>
<path d="M7.8125 2.32617L7.875 2.57108H8.125L7.9375 2.75476L8 2.99966L7.8125 2.81598L7.5625 2.99966L7.6875 2.75476L7.4375 2.57108H7.6875L7.8125 2.32617Z" fill="#F4F4F4"/>
<path d="M7.8125 3.42822L7.875 3.67313H8.125L7.9375 3.85681L8 4.10171L7.8125 3.91803L7.5625 4.10171L7.6875 3.85681L7.4375 3.67313H7.6875L7.8125 3.42822Z" fill="#F4F4F4"/>
<path d="M7.8125 4.53125L7.875 4.77616H8.125L7.9375 4.89861L8 5.14351L7.8125 5.02106L7.5625 5.14351L7.6875 4.89861L7.4375 4.77616H7.6875L7.8125 4.53125Z" fill="#F4F4F4"/>
<path d="M8.56274 0.734863L8.62524 0.979769H8.93774L8.68774 1.10222L8.81274 1.34713L8.56274 1.22467L8.37524 1.34713L8.43774 1.10222L8.25024 0.979769H8.50024L8.56274 0.734863Z" fill="#F4F4F4"/>
<path d="M8.56274 1.77588L8.62524 2.02078H8.93774L8.68774 2.20446L8.81274 2.44937L8.56274 2.26569L8.37524 2.44937L8.43774 2.20446L8.25024 2.02078H8.50024L8.56274 1.77588Z" fill="#F4F4F4"/>
<path d="M8.56274 2.87744L8.62524 3.12235H8.93774L8.68774 3.2448L8.81274 3.4897L8.56274 3.36725L8.37524 3.4897L8.43774 3.2448L8.25024 3.12235H8.50024L8.56274 2.87744Z" fill="#F4F4F4"/>
<path d="M8.56274 3.91895L8.62524 4.16385H8.93774L8.68774 4.34753L8.81274 4.59243L8.56274 4.40876L8.37524 4.59243L8.43774 4.34753L8.25024 4.16385H8.50024L8.56274 3.91895Z" fill="#F4F4F4"/>
<path d="M8.56274 5.02051L8.62524 5.26541H8.93774L8.68774 5.38787L8.81274 5.63277L8.56274 5.51032L8.37524 5.63277L8.43774 5.38787L8.25024 5.26541H8.50024L8.56274 5.02051Z" fill="#F4F4F4"/>
</svg>
