<svg width="32" height="32" viewBox="0 0 32 32" fill="none" xmlns="http://www.w3.org/2000/svg">
<path d="M26.6676 15.9065C26.6676 15.2042 26.606 14.5376 26.5004 13.8887H16.5586V17.8976H22.2509C21.9958 19.2131 21.248 20.3242 20.1394 21.0798V23.7465H23.5355C25.5238 21.8887 26.6676 19.1509 26.6676 15.9065Z" fill="#4285F4"/>
<path d="M16.5575 26.3333C19.4081 26.3333 21.7924 25.3733 23.5344 23.7466L20.1383 21.0799C19.1881 21.7199 17.9828 22.111 16.5575 22.111C13.8037 22.111 11.4722 20.2355 10.6364 17.7021H7.13477V20.4488C8.86799 23.9333 12.4312 26.3333 16.5575 26.3333Z" fill="#34A853"/>
<path d="M10.6366 17.7025C10.4166 17.0625 10.3023 16.3781 10.3023 15.667C10.3023 14.9559 10.4254 14.2714 10.6366 13.6314V10.8848H7.13495C6.41351 12.3248 6 13.9425 6 15.667C6 17.3914 6.41351 19.0092 7.13495 20.4492L10.6366 17.7025Z" fill="#FBBC05"/>
<path d="M16.5575 9.22222C18.1148 9.22222 19.5049 9.76444 20.6046 10.8222L23.6136 7.78222C21.7923 6.05778 19.4081 5 16.5575 5C12.4312 5 8.86799 7.4 7.13477 10.8844L10.6364 13.6311C11.4722 11.0978 13.8037 9.22222 16.5575 9.22222Z" fill="#EA4335"/>
</svg>
