<svg width="20" height="20" viewBox="0 0 20 20" fill="none" xmlns="http://www.w3.org/2000/svg">
<path d="M12.9165 9.16699C13.6069 9.16699 14.1665 8.60735 14.1665 7.91699C14.1665 7.22664 13.6069 6.66699 12.9165 6.66699C12.2261 6.66699 11.6665 7.22664 11.6665 7.91699C11.6665 8.60735 12.2261 9.16699 12.9165 9.16699Z" fill="#515154"/>
<path d="M7.08317 9.16699C7.77353 9.16699 8.33317 8.60735 8.33317 7.91699C8.33317 7.22664 7.77353 6.66699 7.08317 6.66699C6.39281 6.66699 5.83317 7.22664 5.83317 7.91699C5.83317 8.60735 6.39281 9.16699 7.08317 9.16699Z" fill="#515154"/>
<path d="M9.9915 1.66699C5.3915 1.66699 1.6665 5.40033 1.6665 10.0003C1.6665 14.6003 5.3915 18.3337 9.9915 18.3337C14.5998 18.3337 18.3332 14.6003 18.3332 10.0003C18.3332 5.40033 14.5998 1.66699 9.9915 1.66699ZM9.99984 16.667C6.3165 16.667 3.33317 13.6837 3.33317 10.0003C3.33317 6.31699 6.3165 3.33366 9.99984 3.33366C13.6832 3.33366 16.6665 6.31699 16.6665 10.0003C16.6665 13.6837 13.6832 16.667 9.99984 16.667ZM13.6748 11.5753C13.3832 11.392 12.9915 11.4837 12.8165 11.7753C12.1998 12.7503 11.1498 13.3337 9.99984 13.3337C8.84984 13.3337 7.79984 12.7503 7.18317 11.767C6.99984 11.4753 6.6165 11.3837 6.32484 11.567C6.03317 11.7503 5.9415 12.1337 6.12484 12.4253C6.97484 13.7837 8.4165 14.5837 9.99984 14.5837C11.5832 14.5837 13.0248 13.7753 13.8748 12.4337C14.0582 12.142 13.9665 11.7587 13.6748 11.5753Z" fill="#515154"/>
</svg>
