<svg width="20" height="20" viewBox="0 0 20 20" fill="none" xmlns="http://www.w3.org/2000/svg">
<path d="M16.6665 3.33366V13.3337H6.6665V3.33366H16.6665ZM16.6665 1.66699H6.6665C5.74984 1.66699 4.99984 2.41699 4.99984 3.33366V13.3337C4.99984 14.2503 5.74984 15.0003 6.6665 15.0003H16.6665C17.5832 15.0003 18.3332 14.2503 18.3332 13.3337V3.33366C18.3332 2.41699 17.5832 1.66699 16.6665 1.66699ZM9.58317 9.72533L10.9915 11.6087L13.0582 9.02533L15.8332 12.5003H7.49984L9.58317 9.72533ZM1.6665 5.00033V16.667C1.6665 17.5837 2.4165 18.3337 3.33317 18.3337H14.9998V16.667H3.33317V5.00033H1.6665Z" fill="#515154"/>
</svg>
