<svg width="20" height="20" viewBox="0 0 20 20" fill="none" xmlns="http://www.w3.org/2000/svg">
<path d="M17.5002 1.66699H2.50016C1.5835 1.66699 0.833496 2.41699 0.833496 3.33366V13.3337C0.833496 14.2503 1.5835 15.0003 2.50016 15.0003H8.3335V16.667H7.50016C7.04183 16.667 6.66683 17.042 6.66683 17.5003C6.66683 17.9587 7.04183 18.3337 7.50016 18.3337H12.5002C12.9585 18.3337 13.3335 17.9587 13.3335 17.5003C13.3335 17.042 12.9585 16.667 12.5002 16.667H11.6668V15.0003H17.5002C18.4168 15.0003 19.1668 14.2503 19.1668 13.3337V3.33366C19.1668 2.41699 18.4168 1.66699 17.5002 1.66699ZM16.6668 13.3337H3.3335C2.87516 13.3337 2.50016 12.9587 2.50016 12.5003V4.16699C2.50016 3.70866 2.87516 3.33366 3.3335 3.33366H16.6668C17.1252 3.33366 17.5002 3.70866 17.5002 4.16699V12.5003C17.5002 12.9587 17.1252 13.3337 16.6668 13.3337Z" fill="#515154"/>
</svg>
