<svg width="18" height="18" viewBox="0 0 18 18" fill="none" xmlns="http://www.w3.org/2000/svg">
<path d="M9.83398 6.49967H8.16732V4.83301H9.83398L9.83398 6.49967ZM9.83398 13.1663H8.16732L8.16732 8.16634H9.83398V13.1663ZM9.00898 17.333C13.609 17.333 17.334 13.5997 17.334 8.99967C17.334 4.39967 13.609 0.66634 9.00898 0.66634C4.40065 0.66634 0.667316 4.39967 0.667316 8.99967C0.667316 13.5997 4.40065 17.333 9.00898 17.333ZM9.00065 2.33301C12.684 2.33301 15.6673 5.31634 15.6673 8.99967C15.6673 12.683 12.684 15.6663 9.00065 15.6663C5.31732 15.6663 2.33398 12.683 2.33398 8.99967C2.33398 5.31634 5.31732 2.33301 9.00065 2.33301Z" fill="white"/>
</svg>
