<svg width="28" height="28" viewBox="0 0 28 28" fill="none" xmlns="http://www.w3.org/2000/svg">
<path d="M6.85645 23.0283H16.2168C18.0977 23.0283 19.0732 22.0439 19.0732 20.1455V16.1904H17.3506V20.04C17.3506 20.8574 16.9199 21.3057 16.0674 21.3057H6.99707C6.14453 21.3057 5.72266 20.8574 5.72266 20.04V6.98828C5.72266 6.1709 6.14453 5.72266 6.99707 5.72266H16.0674C16.9199 5.72266 17.3506 6.1709 17.3506 6.98828V10.8467H19.0732V6.88281C19.0732 4.99316 18.0977 4 16.2168 4H6.85645C4.97559 4 4 4.99316 4 6.88281V20.1455C4 22.0439 4.97559 23.0283 6.85645 23.0283ZM12.5166 14.3184H21.376L22.6768 14.2568L22.0352 14.8018L20.7256 16.0322C20.5674 16.1729 20.4795 16.375 20.4795 16.5771C20.4795 16.9727 20.7783 17.3066 21.1826 17.3066C21.3936 17.3066 21.5518 17.2188 21.7012 17.0693L24.5488 14.125C24.751 13.9141 24.8213 13.7207 24.8213 13.5098C24.8213 13.2988 24.751 13.1055 24.5488 12.8945L21.7012 9.94141C21.5518 9.79199 21.3936 9.71289 21.1826 9.71289C20.7783 9.71289 20.4795 10.0293 20.4795 10.4336C20.4795 10.627 20.5674 10.8379 20.7256 10.9785L22.0352 12.2178L22.6855 12.7627L21.376 12.6924H12.5166C12.0859 12.6924 11.7168 13.0615 11.7168 13.5098C11.7168 13.958 12.0859 14.3184 12.5166 14.3184Z" fill="#1D1D1F"/>
</svg>
