<svg width="12" height="18" viewBox="0 0 12 18" fill="none" xmlns="http://www.w3.org/2000/svg">
<path d="M4.33366 3.69681C4.33366 3.27841 4.67284 2.93923 5.09123 2.93923H6.60639C7.02478 2.93923 7.36396 3.27841 7.36396 3.69681C7.36396 4.1152 7.02478 4.45438 6.60639 4.45438H5.09123C4.67284 4.45438 4.33366 4.1152 4.33366 3.69681Z" fill="#515154"/>
<path d="M4.33366 13.5453C3.91526 13.5453 3.57608 13.8845 3.57608 14.3029C3.57608 14.7213 3.91526 15.0604 4.33366 15.0604H7.36396C7.78236 15.0604 8.12154 14.7213 8.12154 14.3029C8.12154 13.8845 7.78236 13.5453 7.36396 13.5453H4.33366Z" fill="#515154"/>
<path fill-rule="evenodd" clip-rule="evenodd" d="M0.166992 2.56044C0.166992 1.51445 1.01494 0.666504 2.06093 0.666504H9.63669C10.6827 0.666504 11.5306 1.51445 11.5306 2.56044V15.4392C11.5306 16.4852 10.6827 17.3332 9.63669 17.3332H2.06093C1.01494 17.3332 0.166992 16.4852 0.166992 15.4392V2.56044ZM2.06093 2.18166C1.85173 2.18166 1.68214 2.35124 1.68214 2.56044V15.4392C1.68214 15.6484 1.85173 15.818 2.06093 15.818H9.63669C9.84589 15.818 10.0155 15.6484 10.0155 15.4392V2.56044C10.0155 2.35124 9.84589 2.18166 9.63669 2.18166H2.06093Z" fill="#515154"/>
</svg>
