<svg width="21" height="12" viewBox="0 0 21 12" fill="none" xmlns="http://www.w3.org/2000/svg">
<path d="M20.9998 0H7.33423V12H20.9998V0Z" fill="#EA0020"/>
<path d="M7.33425 0H0V12H7.33425V0Z" fill="#2A680B"/>
<path d="M9.77886 7.83726C8.83857 7.83726 4.57593 5.20461 4.57593 4.77604L4.82667 4.40869C5.26547 5.02094 9.5908 7.53114 10.0296 7.40869L9.77886 7.83726Z" fill="#FCFF2C"/>
<path d="M4.76421 4.40839C4.70153 4.65329 5.89256 5.32676 7.33433 6.1839C8.77611 7.04105 10.0298 7.59207 10.0925 7.46962L10.1552 7.40839C10.1552 7.40839 10.0925 7.46962 10.0298 7.40839C9.65371 7.28594 8.65074 6.85737 7.39702 6.12268C6.1433 5.38798 5.07764 4.71451 4.88958 4.40839V4.34717L4.76421 4.40839ZM9.77909 7.83696C9.77909 7.83696 9.7164 7.83696 9.65371 7.83696C9.2776 7.77574 8.27462 7.28594 7.0209 6.55125C5.57913 5.69411 4.3881 4.95941 4.51347 4.71451L4.57615 4.65329C4.45078 5.02064 6.95822 6.36758 7.08359 6.49003C8.52537 7.34717 9.7164 7.83696 9.84177 7.71451L9.77909 7.83696Z" fill="#FCFF2C"/>
<path d="M9.71636 7.89838C9.34024 7.83715 8.27458 7.34736 7.02086 6.61266C5.39103 5.63307 4.57611 5.08205 4.51343 4.83715V4.77593L4.57611 4.7147V4.77593C4.57611 4.77593 4.57611 4.77593 4.57611 4.83715C4.6388 5.08205 5.45372 5.63307 7.08355 6.61266C8.27458 7.34736 9.34024 7.83715 9.71636 7.89838C9.71636 7.89838 9.77904 7.89838 9.71636 7.89838L9.77904 7.83715C9.77904 7.83715 9.77904 7.83715 9.71636 7.83715C9.40293 7.83715 8.33727 7.34736 7.02086 6.55144C7.02086 6.55144 6.95818 6.55144 6.89549 6.49021C5.39103 5.57185 4.57611 5.02083 4.57611 4.77593C4.6388 4.89838 5.01491 5.32695 7.02086 6.49021C7.08355 6.49021 7.08355 6.55144 7.14624 6.55144C8.46264 7.34736 9.5283 7.83715 9.84173 7.83715H9.90442V7.89838C9.77904 7.89838 9.71636 7.89838 9.71636 7.89838ZM10.0298 7.46981C9.84173 7.46981 8.6507 6.98001 7.27161 6.18409C5.70446 5.26572 4.6388 4.59226 4.70149 4.40858L4.76417 4.28613V4.34736C4.70149 4.59226 6.08058 5.38817 7.27161 6.12287C8.6507 6.98001 9.77904 7.46981 10.0298 7.46981C10.0925 7.40858 10.0925 7.40858 10.0925 7.40858C10.0925 7.40858 10.0298 7.40858 9.9671 7.40858C9.5283 7.28613 8.52533 6.79634 7.33429 6.12287C6.20595 5.4494 5.01491 4.7147 4.82686 4.40858V4.34736C4.82686 4.34736 4.82686 4.40858 4.88954 4.40858C5.01492 4.7147 6.26863 5.4494 7.33429 6.12287C8.52533 6.79634 9.5283 7.28613 9.9671 7.40858C10.0298 7.40858 10.0925 7.40858 10.0925 7.40858C10.0925 7.40858 10.0925 7.40858 10.0298 7.46981Z" fill="black"/>
<path d="M7.33441 5.08216C8.2747 5.08216 9.40305 4.95971 10.0926 4.71481L9.96722 4.46992C9.5911 4.65359 8.40007 4.83726 7.3971 4.83726C6.14338 4.83726 5.26577 4.71481 4.82697 4.40869L4.63892 4.65359C5.45383 5.02094 6.26875 5.08216 7.33441 5.08216Z" fill="#FCFF2C"/>
<path d="M10.1553 4.71451C10.1553 4.77574 9.71647 4.89819 9.08962 5.02064C8.65081 5.08186 8.08664 5.14309 7.3971 5.14309C6.70755 5.14309 6.20606 5.08186 5.76726 5.02064C5.07772 4.89819 4.76429 4.77574 4.63892 4.71451C4.63892 4.71451 4.63892 4.65329 4.7016 4.65329C5.01503 4.77574 5.32846 4.89819 5.76726 4.95941C6.14338 5.02064 6.70755 5.08186 7.3971 5.08186C8.08664 5.08186 8.65081 5.02064 9.08962 4.95941C9.71647 4.83696 10.0926 4.71451 10.1553 4.65329V4.71451ZM10.0299 4.46962C9.96722 4.53084 9.5911 4.65329 8.96424 4.71451C8.52544 4.77574 8.02395 4.83696 7.33441 4.83696C6.70755 4.83696 6.20606 4.77574 5.76726 4.71451C5.1404 4.65329 4.82697 4.46962 4.7016 4.46962C4.7016 4.46962 4.7016 4.40839 4.76429 4.40839C4.82697 4.46962 5.20309 4.59207 5.82995 4.65329C6.20606 4.71451 6.77024 4.77574 7.3971 4.77574C8.08664 4.77574 8.58813 4.71451 8.96424 4.65329C9.5911 4.59207 9.90453 4.40839 9.96722 4.34717L10.0299 4.46962Z" fill="#FCFF2C"/>
<path d="M7.33441 5.08216C6.77024 5.08216 6.26875 5.02094 5.76726 4.95971C5.07772 4.89849 4.76429 4.77604 4.63892 4.71481V4.65359V4.59236C5.01503 4.77604 5.32846 4.83726 5.76726 4.89849C6.26875 4.95971 6.83292 5.02094 7.33441 5.02094C7.89858 5.02094 8.46276 4.95971 9.02693 4.89849C9.65379 4.77604 10.0299 4.65359 10.0926 4.59236L10.1553 4.65359C10.1553 4.71481 9.65379 4.83726 9.08962 4.95971C8.52544 5.08216 7.96127 5.08216 7.33441 5.08216ZM4.63892 4.65359C4.76429 4.77604 5.07772 4.89849 5.76726 5.02094C6.26875 5.08216 6.77024 5.14339 7.33441 5.14339C7.89858 5.14339 8.52544 5.08216 9.02693 5.02094C9.65379 4.89849 10.0926 4.77604 10.0926 4.71481L10.0299 4.65359C10.0299 4.65359 9.71647 4.83726 9.02693 4.89849C8.46276 4.95971 7.89858 5.02094 7.33441 5.02094C6.77024 5.02094 6.20606 4.95971 5.70458 4.89849C5.32846 4.89849 5.01503 4.77604 4.63892 4.65359ZM7.33441 4.83726C6.77024 4.83726 6.26875 4.77604 5.76726 4.71481C5.26577 4.71481 4.95235 4.59237 4.76429 4.53114H4.7016V4.46992C4.76429 4.46992 5.07772 4.65359 5.76726 4.71481C6.08069 4.77604 6.58218 4.83726 7.27172 4.83726C7.8359 4.83726 8.33738 4.77604 8.90156 4.71481C9.46573 4.65359 9.84185 4.46992 9.90453 4.46992H10.0299C9.96722 4.53114 9.5911 4.65359 8.96424 4.77604C8.46276 4.83726 7.89858 4.83726 7.33441 4.83726ZM4.76429 4.40869V4.46992C4.88966 4.53114 5.26577 4.65359 5.76726 4.71481C6.20606 4.77604 6.77024 4.83726 7.27172 4.83726C7.8359 4.83726 8.33738 4.77604 8.90156 4.71481C9.52842 4.59236 9.84185 4.46992 9.90453 4.46992L9.84185 4.40869C9.77916 4.46992 9.46573 4.59236 8.83887 4.71481C8.2747 4.77604 7.77321 4.83726 7.27172 4.83726C6.58218 4.83726 6.01801 4.77604 5.70458 4.71481C5.1404 4.59236 4.82697 4.46992 4.76429 4.40869Z" fill="black"/>
<path d="M4.32568 6.18435C4.88986 6.49047 6.14358 6.61292 7.33461 6.67415C8.40027 6.67415 9.84204 6.49047 10.4062 6.24558V5.93945C10.2182 6.18435 8.7137 6.42925 7.33461 6.42925C5.95552 6.42925 4.7018 6.24558 4.32568 5.93945V6.18435Z" fill="#FCFF2C"/>
<path d="M10.4062 6.12283V6.18405C10.3435 6.3065 9.84204 6.42895 9.21519 6.49017C8.7137 6.5514 8.08684 6.61262 7.33461 6.61262C6.58238 6.61262 6.0182 6.5514 5.5794 6.49017C4.82717 6.36773 4.38837 6.18405 4.32568 6.18405V6.12283C4.57643 6.3065 5.32866 6.42895 5.64209 6.49017C6.08089 6.5514 6.70775 6.61262 7.39729 6.61262C8.14952 6.61262 8.77638 6.5514 9.27787 6.49017C9.65399 6.36773 10.2808 6.24528 10.4062 6.12283ZM10.4062 5.87793V5.93915C10.3435 6.0616 9.84204 6.18405 9.21519 6.24528C8.7137 6.3065 8.08684 6.36773 7.33461 6.36773C6.58238 6.36773 6.0182 6.3065 5.5794 6.24528C4.82717 6.12283 4.38837 5.93915 4.32568 5.93915V5.87793C4.57643 6.0616 5.32866 6.18405 5.5794 6.24528C6.0182 6.3065 6.64506 6.36773 7.33461 6.36773C8.08684 6.36773 8.7137 6.3065 9.21519 6.24528C9.65399 6.12283 10.2808 6.00038 10.4062 5.87793Z" fill="#FCFF2C"/>
<path d="M7.3343 6.67385C6.70745 6.67385 6.08059 6.61262 5.5791 6.5514C4.88955 6.42895 4.38807 6.3065 4.32538 6.18405V6.12283C4.63881 6.3065 5.39104 6.42895 5.64179 6.49017C6.14327 6.5514 6.77013 6.61262 7.39699 6.61262C8.08654 6.61262 8.7134 6.5514 9.27757 6.49017C9.71637 6.42895 10.3432 6.24528 10.4686 6.12283V6.18405C10.4059 6.3065 9.84174 6.42895 9.27757 6.5514C8.65071 6.61262 8.02385 6.67385 7.3343 6.67385ZM4.2627 6.12283V6.18405C4.32538 6.24528 4.76418 6.42895 5.51641 6.49017C6.0179 6.5514 6.64476 6.61262 7.27162 6.61262C7.96116 6.61262 8.58802 6.5514 9.1522 6.49017C9.77906 6.36773 10.2805 6.24528 10.3432 6.18405V6.12283C10.2179 6.24528 9.591 6.42895 9.1522 6.49017C8.58802 6.5514 7.96116 6.61262 7.27162 6.61262C6.64476 6.61262 6.0179 6.5514 5.51641 6.49017C5.26567 6.42895 4.57612 6.3065 4.2627 6.12283ZM7.3343 6.42895C6.70745 6.42895 6.08059 6.36773 5.5791 6.3065C4.88955 6.18405 4.38807 6.0616 4.32538 5.93915V5.87793C4.63881 6.0616 5.39104 6.18405 5.64179 6.24528C6.14327 6.3065 6.77013 6.36773 7.39699 6.36773C8.08654 6.36773 8.7134 6.3065 9.27757 6.24528C9.71637 6.18405 10.3432 6.00038 10.4686 5.87793V5.93915C10.4059 6.0616 9.84174 6.18405 9.27757 6.3065C8.65071 6.36773 8.02385 6.42895 7.3343 6.42895ZM4.2627 5.87793V5.93915C4.32538 6.00038 4.76418 6.18405 5.51641 6.24528C6.0179 6.3065 6.64476 6.36773 7.27162 6.36773C7.96116 6.36773 8.58802 6.3065 9.1522 6.24528C9.77906 6.12283 10.2805 6.00038 10.3432 5.93915V5.87793C10.2179 6.00038 9.591 6.18405 9.1522 6.24528C8.58802 6.3065 7.96116 6.36773 7.27162 6.36773C6.64476 6.36773 6.0179 6.3065 5.51641 6.24528C5.26567 6.18405 4.57612 6.0616 4.2627 5.87793Z" fill="black"/>
<path d="M7.33441 7.77574C6.01801 7.77574 4.88966 7.40839 4.63892 7.34717L4.82697 7.59207C5.26577 7.77574 6.33144 8.02064 7.33441 8.02064C8.33738 8.02064 9.21499 7.89819 9.84185 7.65329L10.0299 7.40839C9.5911 7.59207 8.21201 7.77574 7.33441 7.77574Z" fill="#FCFF2C"/>
<path d="M9.90453 7.59207C9.90453 7.65329 9.84185 7.65329 9.84185 7.71452C9.52842 7.83696 9.08962 7.89819 8.90156 7.95941C8.52544 8.02064 7.89858 8.08186 7.33441 8.08186C6.14338 8.08186 5.20309 7.83696 4.76429 7.65329L4.7016 7.59207H4.76429C5.5792 7.89819 6.45681 7.95941 7.27172 8.02064C7.8359 8.02064 8.33738 7.95941 8.77619 7.89819C9.52842 7.77574 9.77916 7.65329 9.90453 7.59207ZM10.0926 7.34717C10.0926 7.40839 10.0299 7.40839 10.0299 7.46962C9.90453 7.53084 9.46573 7.65329 8.83887 7.71452C8.46276 7.77574 8.21201 7.83696 7.3971 7.83696C5.89263 7.77574 4.95235 7.53084 4.7016 7.46962L4.63892 7.34717C5.51652 7.59207 6.39412 7.71452 7.3971 7.71452C8.14933 7.71452 8.46276 7.65329 8.83887 7.59207C9.52842 7.46962 9.90453 7.34717 10.0299 7.34717H10.0926Z" fill="#FCFF2C"/>
<path d="M7.33441 8.08186C6.14338 8.08186 5.20309 7.83696 4.76429 7.65329L4.7016 7.59207H4.76429C5.45383 7.83696 6.33144 7.95941 7.27172 8.02064C7.89858 8.02064 8.40007 7.95941 8.77619 7.89819C9.52842 7.77574 9.71648 7.65329 9.77916 7.65329C9.77916 7.71451 9.71647 7.71451 9.71647 7.77574C9.40305 7.89819 8.96424 7.95941 8.77619 8.02064C8.46276 8.02064 7.89858 8.08186 7.33441 8.08186ZM4.76429 7.59207C5.26577 7.83696 6.26875 8.08186 7.33441 8.08186C7.8359 8.08186 8.46276 8.02064 8.90156 7.95941C9.08962 7.89819 9.52842 7.83696 9.84185 7.71452L9.90453 7.65329C9.84185 7.71451 9.5911 7.77574 8.90156 7.89819C8.52544 7.95941 8.02396 8.02064 7.3971 8.02064C6.39412 8.02064 5.51652 7.89819 4.76429 7.59207ZM7.3971 7.83696C6.08069 7.77574 5.1404 7.59207 4.7016 7.46962L4.63892 7.40839C5.64189 7.65329 6.51949 7.77574 7.3971 7.77574C8.02396 7.77574 8.40007 7.71451 8.7135 7.65329H8.83887C9.52842 7.53084 9.90453 7.40839 10.0299 7.40839L10.0926 7.34717L10.0299 7.40839C9.90453 7.46962 9.52842 7.59207 8.83887 7.65329H8.7135C8.40007 7.71451 8.02396 7.71451 7.3971 7.77574C6.51949 7.77574 5.64189 7.65329 4.63892 7.40839L4.7016 7.46962C5.07772 7.59207 6.01801 7.77574 7.3971 7.83696C8.08664 7.83696 8.33738 7.77574 8.65081 7.71452H8.83887C9.40305 7.65329 9.84185 7.53084 10.0299 7.46962V7.34717V7.46962C9.84185 7.53084 9.40305 7.65329 8.83887 7.71452H8.65081C8.33738 7.77574 8.02396 7.83696 7.3971 7.83696Z" fill="black"/>
<path d="M7.33515 3.3074C8.83962 3.3074 10.0306 4.53189 10.0306 6.00128C10.0306 7.47066 8.83962 8.63393 7.33515 8.63393C5.83069 8.63393 4.63966 7.47066 4.63966 5.94005C4.63966 4.53189 5.83069 3.3074 7.33515 3.3074ZM7.33515 3.0625C8.96499 3.0625 10.3441 4.34821 10.3441 6.00128C10.3441 7.59311 9.02767 8.94005 7.33515 8.94005C5.70532 8.94005 4.38892 7.59311 4.38892 6.00128C4.38892 4.40944 5.70532 3.0625 7.33515 3.0625Z" fill="#FCFF2C"/>
<path d="M7.33485 3.00098C9.02737 3.00098 10.3438 4.34792 10.3438 5.93975C10.3438 7.59281 8.96468 8.87853 7.33485 8.87853C5.64233 8.87853 4.32593 7.53159 4.32593 5.93975C4.32593 4.34792 5.70502 3.00098 7.33485 3.00098ZM7.33485 3.12343C8.96468 3.12343 10.2811 4.40914 10.2811 6.00098C10.2811 7.59281 8.96468 8.87853 7.33485 8.87853C5.70502 8.87853 4.38861 7.59281 4.38861 6.00098C4.38861 4.40914 5.70502 3.12343 7.33485 3.12343Z" fill="#FCFF2C"/>
<path d="M7.33431 9.00146C5.64179 9.00146 4.2627 7.65453 4.2627 6.00146C4.2627 4.3484 5.64179 3.00146 7.33431 3.00146C9.02682 3.00146 10.4059 4.3484 10.4059 6.00146C10.4059 7.65453 9.02682 9.00146 7.33431 9.00146ZM7.33431 3.06269C5.70447 3.06269 4.32538 4.3484 4.32538 6.00146C4.32538 7.65453 5.70447 8.94024 7.33431 8.94024C9.02682 8.94024 10.3432 7.5933 10.3432 6.00146C10.4059 4.3484 9.02682 3.06269 7.33431 3.06269ZM7.33431 8.87902C5.70447 8.87902 4.38807 7.5933 4.38807 6.00146C4.38807 4.40963 5.70447 3.06269 7.33431 3.06269C8.96414 3.06269 10.3432 4.3484 10.3432 6.00146C10.3432 7.5933 9.02682 8.87902 7.33431 8.87902ZM7.33431 3.12391C5.70447 3.12391 4.38807 4.40963 4.38807 6.00146C4.38807 7.5933 5.70447 8.87902 7.33431 8.87902C8.96414 8.87902 10.2805 7.5933 10.2805 6.00146C10.3432 4.40963 8.96414 3.12391 7.33431 3.12391Z" fill="black"/>
<path d="M7.33411 3.30615C8.83857 3.30615 10.0923 4.53064 10.0923 6.00003C10.0923 7.46942 8.83857 8.69391 7.33411 8.69391C5.82965 8.69391 4.57593 7.46942 4.57593 6.00003C4.57593 4.46942 5.82965 3.30615 7.33411 3.30615ZM7.33411 3.36738C8.83857 3.36738 10.0296 4.53064 10.0296 6.00003C10.0296 7.46942 8.77588 8.63268 7.33411 8.63268C5.82965 8.63268 4.63861 7.46942 4.63861 6.00003C4.63861 4.53064 5.89233 3.36738 7.33411 3.36738Z" fill="#FCFF2C"/>
<path d="M7.33429 8.69429C5.76715 8.69429 4.51343 7.4698 4.51343 5.93918C4.51343 4.40857 5.76715 3.18408 7.33429 3.18408C8.90144 3.18408 10.0925 4.40857 10.0925 5.93918C10.1552 7.4698 8.90144 8.69429 7.33429 8.69429ZM7.33429 3.30653C5.82983 3.30653 4.57611 4.53102 4.57611 6.00041C4.57611 7.4698 5.82983 8.69429 7.33429 8.69429C8.83876 8.69429 10.0925 7.4698 10.0925 6.00041C10.1552 4.4698 8.90144 3.30653 7.33429 3.30653ZM7.33429 8.63306C5.82983 8.63306 4.6388 7.40857 4.6388 6.00041C4.6388 4.53102 5.82983 3.36776 7.33429 3.36776C8.83876 3.36776 10.0298 4.59225 10.0298 6.00041C10.0925 7.4698 8.83876 8.63306 7.33429 8.63306ZM7.33429 3.36776C5.82983 3.36776 4.6388 4.53102 4.6388 6.00041C4.6388 7.4698 5.82983 8.63306 7.33429 8.63306C8.83876 8.63306 10.0298 7.4698 10.0298 6.00041C10.0925 4.53102 8.83876 3.36776 7.33429 3.36776Z" fill="black"/>
<path d="M7.46022 3.00049H7.20947V9.00049H7.46022V3.00049Z" fill="#FCFF2C"/>
<path d="M7.46022 3.00049H7.5229V9.06171H7.46022V3.00049ZM7.20947 3.00049H7.27216V9.06171H7.20947V3.00049Z" fill="#FCFF2C"/>
<path d="M7.52266 9.00019H7.45997V2.93896H7.52266V9.00019ZM7.52266 3.00019L7.45997 9.06141H7.52266V3.00019ZM7.27191 9.00019H7.20923V2.93896H7.27191V9.00019ZM7.27191 3.00019L7.20923 9.06141H7.27191V3.00019Z" fill="black"/>
<path d="M4.32568 5.87817C4.7018 5.51082 6.08089 5.32715 7.33461 5.32715C8.58833 5.32715 10.0301 5.57205 10.4062 5.87817V6.12307C10.1555 5.87817 8.96444 5.57205 7.33461 5.57205C5.70477 5.57205 4.51374 5.87817 4.32568 6.12307V5.87817Z" fill="#FCFF2C"/>
<path d="M7.33431 5.51052C8.02385 5.51052 8.77608 5.57175 9.27757 5.6942C9.84174 5.81665 10.2179 5.93909 10.4059 6.12277V6.18399C10.2179 6.00032 9.71637 5.81664 9.27757 5.75542C8.7134 5.63297 8.02385 5.57175 7.33431 5.57175C6.58207 5.57175 5.89253 5.63297 5.32836 5.75542C4.88955 5.81664 4.32538 6.00032 4.2627 6.18399V6.12277C4.32538 6.00032 4.7015 5.81665 5.32836 5.6942C5.89253 5.63297 6.58207 5.51052 7.33431 5.51052ZM7.33431 5.26562C8.02385 5.26562 8.77608 5.32685 9.27757 5.4493C9.84174 5.57175 10.2179 5.6942 10.4059 5.87787V5.93909C10.2179 5.75542 9.71637 5.63297 9.27757 5.51052C8.7134 5.38807 8.02385 5.32685 7.33431 5.32685C6.58207 5.32685 5.89253 5.38807 5.32836 5.51052C4.95224 5.57175 4.32538 5.75542 4.2627 5.93909V5.87787C4.32538 5.75542 4.76418 5.57175 5.32836 5.4493C5.89253 5.32685 6.58207 5.26562 7.33431 5.26562Z" fill="#FCFF2C"/>
<path d="M4.2627 6.18399V6.12277C4.32538 6.00032 4.76418 5.81665 5.32836 5.6942C5.95521 5.57175 6.64476 5.51052 7.33431 5.51052C8.02385 5.51052 8.7134 5.57175 9.27757 5.6942C9.84174 5.81665 10.2805 5.93909 10.4059 6.12277V6.18399C10.2179 6.00032 9.591 5.81664 9.27757 5.75542C8.7134 5.63297 8.02385 5.57175 7.33431 5.57175C6.58207 5.57175 5.89253 5.63297 5.32836 5.75542C4.88955 5.87787 4.32538 6.06154 4.2627 6.18399ZM7.33431 5.57175C8.02385 5.57175 8.7134 5.63297 9.27757 5.75542C9.591 5.81664 10.2179 5.93909 10.4059 6.18399V6.12277C10.2805 6.00032 9.90443 5.81665 9.27757 5.6942C8.7134 5.63297 8.02385 5.57175 7.33431 5.57175C6.64476 5.51052 5.89253 5.57175 5.32836 5.6942C4.7015 5.81665 4.32538 6.00032 4.2627 6.06154V6.12277C4.38807 6.00032 5.01493 5.81664 5.39104 5.75542C5.95522 5.63297 6.64476 5.57175 7.33431 5.57175ZM4.2627 5.93909V5.87787C4.32538 5.75542 4.76418 5.57175 5.32836 5.4493C5.89253 5.32685 6.64476 5.26562 7.33431 5.26562C8.02385 5.26562 8.7134 5.32685 9.27757 5.4493C9.84174 5.57175 10.2805 5.6942 10.4059 5.87787V5.93909C10.2179 5.75542 9.591 5.57175 9.27757 5.51052C8.7134 5.38807 8.02385 5.32685 7.33431 5.32685C6.64476 5.32685 5.89253 5.38807 5.32836 5.51052C4.88955 5.63297 4.32538 5.81665 4.2627 5.93909ZM7.33431 5.32685C8.02385 5.32685 8.7134 5.38807 9.27757 5.51052C9.591 5.57175 10.2179 5.6942 10.4059 5.93909V5.87787C10.2805 5.75542 9.90443 5.57175 9.27757 5.4493C8.7134 5.32685 8.02385 5.26562 7.33431 5.32685C6.64476 5.26562 5.89253 5.32685 5.32836 5.4493C4.7015 5.57175 4.32538 5.75542 4.2627 5.81665V5.87787C4.38807 5.75542 5.01493 5.57175 5.39104 5.51052C5.95522 5.38807 6.64476 5.32685 7.33431 5.32685Z" fill="black"/>
<path d="M7.33441 3.97998C8.46276 3.97998 9.46573 4.16365 9.90453 4.34733L10.0926 4.65345C9.71648 4.46978 8.65081 4.22488 7.33441 4.2861C6.26875 4.2861 5.20309 4.40855 4.63892 4.71467L4.82697 4.40855C5.26577 4.10243 6.39412 3.97998 7.33441 3.97998Z" fill="#FCFF2C"/>
<path d="M7.33441 4.22488C7.96127 4.22488 8.58813 4.2861 9.08962 4.34733C9.52842 4.40855 9.96722 4.531 10.0299 4.65345L10.0926 4.71467C9.96722 4.59223 9.52842 4.531 9.08962 4.40855C8.58813 4.2861 8.02395 4.2861 7.33441 4.2861C6.58218 4.2861 6.01801 4.34733 5.5792 4.40855C5.07772 4.46978 4.7016 4.65345 4.63892 4.71467L4.7016 4.65345C4.88966 4.59223 5.1404 4.46978 5.5792 4.40855C6.08069 4.22488 6.64486 4.22488 7.33441 4.22488ZM7.33441 3.97998C7.96127 3.97998 8.58813 4.0412 9.02693 4.10243C9.40304 4.16365 9.77916 4.2861 9.96722 4.34733L10.0299 4.46978C9.90453 4.34733 9.46573 4.22488 9.02693 4.16365C8.52544 4.10243 7.96127 4.0412 7.33441 4.0412C6.70755 4.0412 6.08069 4.10243 5.64189 4.16365C5.20309 4.22488 4.88966 4.34733 4.82697 4.40855L4.88966 4.2861C5.01503 4.22488 5.32846 4.16365 5.64189 4.10243C6.08069 3.97998 6.70755 3.97998 7.33441 3.97998Z" fill="#FCFF2C"/>
<path d="M10.1553 4.71467C10.0299 4.59223 9.65379 4.531 9.1523 4.40855C8.65081 4.34733 8.08664 4.2861 7.3971 4.2861H7.33441H7.27172C6.58218 4.2861 6.01801 4.34733 5.5792 4.40855C5.07772 4.531 4.7016 4.65345 4.63892 4.71467L4.7016 4.59223C4.95235 4.46978 5.20309 4.40855 5.5792 4.34733C6.01801 4.2861 6.58218 4.22488 7.3971 4.22488H7.45978C8.14933 4.22488 8.7135 4.2861 9.21499 4.34733C9.65379 4.40855 10.0926 4.531 10.1553 4.65345V4.71467ZM7.3971 4.22488C6.51949 4.22488 6.01801 4.2861 5.5792 4.34733C5.20309 4.40855 4.88966 4.46978 4.7016 4.59223L4.63892 4.71467C4.7016 4.65345 5.07772 4.531 5.5792 4.40855C6.01801 4.2861 6.58218 4.2861 7.27172 4.2861L7.3971 4.22488C8.08664 4.2861 8.7135 4.2861 9.08962 4.40855C9.5911 4.46978 9.90453 4.59223 10.0926 4.71467V4.65345C10.0299 4.59223 9.5911 4.46978 9.1523 4.40855C8.65081 4.2861 8.08664 4.22488 7.3971 4.22488ZM10.0299 4.46978C9.90453 4.34733 9.40304 4.22488 9.02693 4.16365C8.58813 4.10243 8.02395 4.0412 7.33441 4.0412C6.64486 4.0412 6.08069 4.10243 5.64189 4.16365C5.26578 4.22488 4.95235 4.34733 4.82697 4.40855V4.2861C5.01503 4.22488 5.26578 4.16365 5.64189 4.10243C6.08069 4.0412 6.70755 3.97998 7.33441 3.97998H7.3971C8.02396 3.97998 8.58813 4.0412 9.02693 4.10243C9.40304 4.16365 9.77916 4.2861 9.90453 4.40855L10.0299 4.46978ZM7.33441 4.0412C8.02395 4.0412 8.58813 4.10243 9.02693 4.16365C9.34036 4.22488 9.77916 4.34733 9.96722 4.46978L9.90453 4.40855C9.77916 4.34733 9.40304 4.22488 9.02693 4.10243C8.65081 3.97998 8.08664 3.97998 7.33441 4.0412C6.64486 3.97998 6.08069 4.0412 5.64189 4.10243C5.32846 4.16365 5.01503 4.22488 4.88966 4.34733L4.82697 4.40855C4.95235 4.2861 5.26578 4.22488 5.64189 4.16365C6.08069 4.04121 6.70755 4.0412 7.33441 4.0412Z" fill="black"/>
<path d="M8.83887 7.22465C8.2747 7.1022 7.71053 7.1022 7.33441 7.1022C5.45383 7.1022 4.82697 7.46955 4.76429 7.592L4.63892 7.3471C5.1404 6.97975 6.14338 6.79608 7.33441 6.85731C7.96127 6.85731 8.52544 6.91853 8.96424 6.97975L8.83887 7.22465Z" fill="#FCFF2C"/>
<path d="M7.33411 7.10232C7.83559 7.10232 8.39977 7.10232 8.83857 7.22477L8.77588 7.28599C8.33708 7.22477 7.83559 7.16354 7.27142 7.16354C6.58188 7.16354 5.89233 7.22477 5.26547 7.40844C5.07741 7.46967 4.76399 7.59212 4.7013 7.65334L4.63861 7.59212C4.63861 7.53089 4.82667 7.40844 5.20279 7.28599C6.0177 7.10232 6.70725 7.10232 7.33411 7.10232ZM7.39679 6.85742C7.96097 6.85742 8.52514 6.91865 9.02663 6.97987L8.96394 7.0411C8.46245 6.91865 8.02365 6.91865 7.33411 6.91865C6.64456 6.91865 5.89233 6.97987 5.20279 7.16354C5.01473 7.22477 4.63861 7.34722 4.57593 7.46967L4.63861 7.34722C4.63861 7.22477 4.95204 7.10232 5.26547 7.0411C5.95502 6.85742 6.64456 6.85742 7.39679 6.85742Z" fill="#FCFF2C"/>
<path d="M4.76399 7.65334L4.7013 7.59212C4.7013 7.53089 4.88936 7.40844 5.26547 7.28599C5.95502 7.10232 6.58188 7.0411 7.27142 7.0411C7.77291 7.0411 8.2744 7.0411 8.83857 7.16354V7.22477C8.39977 7.16354 7.96097 7.10232 7.39679 7.10232H7.33411H7.27142C6.51919 7.10232 5.89233 7.16354 5.32816 7.34722C5.1401 7.46967 4.82667 7.59212 4.76399 7.65334C4.82667 7.65334 4.82667 7.65334 4.76399 7.65334ZM7.33411 7.10232C6.58188 7.10232 5.95502 7.16354 5.32816 7.34722C4.95204 7.46967 4.76399 7.59212 4.76399 7.59212V7.65334C4.82667 7.53089 5.20279 7.40844 5.32816 7.40844C5.89233 7.28599 6.51919 7.16354 7.27142 7.16354L7.33411 7.10232L7.39679 7.16354C7.96097 7.16354 8.39977 7.22477 8.83857 7.28599V7.22477C8.39977 7.10232 7.83559 7.10232 7.33411 7.10232ZM4.63861 7.46967L4.57593 7.40844C4.57593 7.28599 5.07741 7.10232 5.20279 7.10232C5.76696 6.91865 6.4565 6.85742 7.33411 6.85742C7.89828 6.85742 8.46245 6.91865 8.96394 6.97987L8.90126 7.0411C8.39977 6.91865 7.89828 6.91865 7.27142 6.91865C6.39382 6.91865 5.76696 6.97987 5.1401 7.16354C5.01473 7.22477 4.7013 7.34722 4.63861 7.46967ZM7.39679 6.85742C6.51919 6.85742 5.82965 6.91865 5.26547 7.10232C4.88936 7.22477 4.63861 7.34722 4.63861 7.40844V7.46967C4.7013 7.34722 5.20279 7.22477 5.26547 7.16354C5.82965 6.97987 6.51919 6.91865 7.39679 6.85742C7.96097 6.91865 8.46245 6.91865 9.02663 7.0411V6.97987C8.46245 6.85742 7.89828 6.85742 7.39679 6.85742Z" fill="black"/>
<path d="M6.83276 6.97949C6.83276 6.97949 6.83276 7.04143 6.83276 6.97949C6.83276 7.04143 6.83276 7.04143 6.83276 6.97949C6.83276 7.04143 6.83276 7.04143 6.83276 6.97949C6.83276 7.04143 6.83276 7.04143 6.83276 6.97949C6.83276 7.04143 6.83276 7.04143 6.83276 6.97949C6.83276 7.04143 6.83276 7.04143 6.83276 6.97949ZM6.83276 6.97949C6.83276 7.04143 6.83276 7.04143 6.83276 6.97949C6.83276 7.04143 6.83276 7.04143 6.83276 6.97949C6.83276 7.04143 6.83276 7.04143 6.83276 6.97949C6.83276 7.04143 6.83276 7.04143 6.83276 6.97949ZM6.89545 7.04143C6.89545 6.97949 6.89545 6.97949 6.89545 7.04143C6.89545 6.97949 6.89545 6.97949 6.89545 7.04143C6.89545 6.97949 6.89545 6.97949 6.89545 7.04143C6.89545 6.97949 6.89545 6.97949 6.89545 7.04143C6.89545 6.97949 6.89545 6.97949 6.89545 7.04143C6.89545 6.97949 6.89545 6.97949 6.89545 7.04143C6.89545 6.97949 6.89545 6.97949 6.89545 7.04143C6.89545 6.97949 6.89545 6.97949 6.89545 7.04143C6.89545 6.97949 6.89545 6.97949 6.89545 7.04143C6.89545 6.97949 6.89545 6.97949 6.89545 7.04143C6.89545 6.97949 6.89545 6.97949 6.89545 7.04143C6.89545 6.97949 6.89545 6.97949 6.89545 7.04143C6.89545 6.97949 6.89545 6.97949 6.89545 7.04143C6.89545 6.97949 6.89545 6.97949 6.89545 7.04143C6.89545 6.97949 6.89545 6.97949 6.89545 7.04143C6.89545 6.97949 6.89545 6.97949 6.89545 7.04143C6.89545 6.97949 6.89545 6.97949 6.89545 7.04143C6.89545 6.97949 6.89545 6.97949 6.89545 7.04143C6.89545 6.97949 6.89545 6.97949 6.89545 7.04143ZM6.95814 7.04143C6.89545 7.04143 6.89545 7.04143 6.95814 7.04143C6.89545 6.97949 6.95814 6.97949 6.95814 7.04143C6.95814 6.97949 6.95814 6.97949 6.95814 7.04143C6.95814 6.97949 6.95814 6.97949 6.95814 7.04143C6.95814 6.97949 6.95814 6.97949 6.95814 7.04143ZM6.95814 7.04143C7.02082 7.04143 7.02082 7.04143 6.95814 7.04143C7.02082 7.04143 7.02082 7.04143 6.95814 7.04143C7.02082 7.04143 6.95814 7.04143 6.95814 7.04143C6.95814 7.04143 6.95814 6.97949 6.95814 7.04143C6.95814 6.97949 6.95814 6.97949 6.95814 7.04143C6.95814 6.97949 6.95814 6.97949 6.95814 7.04143C6.95814 6.97949 6.95814 6.97949 6.95814 7.04143C7.02082 6.97949 7.02082 6.97949 6.95814 7.04143C7.02082 7.04143 7.02082 7.04143 6.95814 7.04143C7.02082 7.04143 7.02082 7.04143 6.95814 7.04143ZM6.95814 6.97949C6.95814 6.97949 6.95814 7.04143 6.95814 6.97949C6.95814 7.04143 6.95814 7.04143 6.95814 6.97949C6.95814 7.04143 7.02082 7.04143 6.95814 6.97949C7.02082 7.04143 7.02082 6.97949 6.95814 6.97949C7.02082 6.97949 7.02082 6.97949 6.95814 6.97949C7.02082 6.97949 7.02082 6.97949 6.95814 6.97949ZM7.02082 7.04143C7.02082 6.97949 7.02082 6.97949 7.02082 7.04143C7.02082 6.97949 7.02082 6.97949 7.02082 7.04143C7.02082 6.97949 7.02082 6.97949 7.02082 7.04143C7.02082 6.97949 7.02082 6.97949 7.02082 7.04143C7.02082 6.97949 7.08351 6.97949 7.02082 7.04143C7.08351 6.97949 7.08351 6.97949 7.02082 7.04143C7.08351 6.97949 7.08351 6.97949 7.02082 7.04143C7.08351 6.97949 7.08351 6.97949 7.02082 7.04143C7.08351 6.97949 7.08351 6.97949 7.02082 7.04143C7.08351 6.97949 7.02082 6.97949 7.02082 7.04143C7.02082 6.97949 7.02082 6.97949 7.02082 7.04143C7.02082 6.97949 7.02082 6.97949 7.02082 7.04143C7.02082 6.97949 7.02082 6.97949 7.02082 7.04143C7.02082 6.97949 7.02082 6.97949 7.02082 7.04143C7.02082 6.97949 7.02082 6.97949 7.02082 7.04143C7.02082 6.97949 7.02082 6.97949 7.02082 7.04143ZM7.08351 6.97949C7.08351 6.97949 7.08351 7.04143 7.08351 6.97949C7.08351 7.04143 7.08351 7.04143 7.08351 6.97949C7.08351 7.04143 7.08351 7.04143 7.08351 6.97949C7.08351 7.04143 7.08351 6.97949 7.08351 6.97949C7.08351 7.04143 7.08351 7.04143 7.08351 6.97949C7.08351 7.04143 7.08351 7.04143 7.08351 6.97949ZM7.14619 7.04143C7.14619 6.97949 7.14619 6.97949 7.14619 7.04143C7.14619 6.97949 7.14619 6.97949 7.14619 7.04143C7.14619 6.97949 7.14619 6.97949 7.14619 7.04143C7.14619 6.97949 7.14619 6.97949 7.14619 7.04143C7.14619 6.97949 7.14619 6.97949 7.14619 7.04143C7.14619 6.97949 7.14619 6.97949 7.14619 7.04143C7.14619 6.97949 7.14619 6.97949 7.14619 7.04143C7.14619 6.97949 7.14619 6.97949 7.14619 7.04143C7.14619 6.97949 7.14619 6.97949 7.14619 7.04143C7.14619 6.97949 7.14619 6.97949 7.14619 7.04143ZM7.20888 6.97949C7.14619 7.04143 7.14619 7.04143 7.20888 6.97949C7.14619 7.04143 7.14619 7.04143 7.20888 6.97949C7.14619 7.04143 7.14619 7.04143 7.20888 6.97949C7.14619 7.04143 7.14619 6.97949 7.20888 6.97949C7.14619 6.97949 7.14619 6.97949 7.20888 6.97949C7.14619 6.97949 7.14619 6.97949 7.20888 6.97949C7.14619 6.97949 7.14619 6.97949 7.20888 6.97949ZM7.20888 6.97949C7.20888 6.97949 7.20888 7.04143 7.20888 6.97949C7.20888 7.04143 7.20888 7.04143 7.20888 6.97949C7.20888 7.04143 7.20888 7.04143 7.20888 6.97949ZM7.27157 6.97949C7.27157 7.04143 7.27157 7.04143 7.27157 6.97949C7.27157 7.04143 7.27157 7.04143 7.27157 6.97949ZM7.33425 7.04143C7.33425 6.97949 7.33425 6.97949 7.33425 7.04143C7.33425 6.97949 7.33425 6.97949 7.33425 7.04143C7.33425 6.97949 7.33425 6.97949 7.33425 7.04143C7.33425 6.97949 7.33425 6.97949 7.33425 7.04143C7.33425 6.97949 7.39694 6.97949 7.33425 7.04143C7.39694 6.97949 7.39694 6.97949 7.33425 7.04143C7.39694 6.97949 7.39694 6.97949 7.33425 7.04143C7.39694 6.97949 7.39694 6.97949 7.33425 7.04143C7.39694 6.97949 7.39694 6.97949 7.33425 7.04143C7.39694 6.97949 7.33425 6.97949 7.33425 7.04143C7.33425 6.97949 7.33425 6.97949 7.33425 7.04143C7.33425 6.97949 7.33425 6.97949 7.33425 7.04143C7.33425 6.97949 7.33425 6.97949 7.33425 7.04143C7.33425 6.97949 7.33425 6.97949 7.33425 7.04143C7.33425 6.97949 7.33425 6.97949 7.33425 7.04143C7.33425 6.97949 7.33425 6.97949 7.33425 7.04143ZM7.39694 7.04143C7.39694 6.97949 7.39694 6.97949 7.39694 7.04143C7.45962 6.97949 7.45962 6.97949 7.39694 7.04143C7.45962 6.97949 7.45962 6.97949 7.39694 7.04143C7.45962 6.97949 7.45962 6.97949 7.39694 7.04143C7.45962 6.97949 7.45962 6.97949 7.39694 7.04143C7.45962 6.97949 7.45962 6.97949 7.39694 7.04143C7.45962 6.97949 7.45962 6.97949 7.39694 7.04143C7.45962 6.97949 7.45962 6.97949 7.39694 7.04143C7.39694 6.97949 7.39694 6.97949 7.39694 7.04143C7.39694 6.97949 7.39694 6.97949 7.39694 7.04143ZM7.45962 6.97949C7.45962 7.04143 7.45962 7.04143 7.45962 6.97949C7.45962 7.04143 7.45962 7.04143 7.45962 6.97949C7.45962 7.04143 7.45962 7.04143 7.45962 6.97949C7.45962 7.04143 7.45962 7.04143 7.45962 6.97949C7.45962 7.04143 7.45962 7.04143 7.45962 6.97949ZM7.52231 7.04143C7.52231 6.97949 7.52231 6.97949 7.52231 7.04143C7.45962 6.97949 7.45962 6.97949 7.52231 7.04143C7.52231 6.97949 7.52231 6.97949 7.52231 7.04143C7.52231 6.97949 7.52231 6.97949 7.52231 7.04143C7.52231 6.97949 7.52231 6.97949 7.52231 7.04143C7.52231 6.97949 7.52231 6.97949 7.52231 7.04143C7.52231 6.97949 7.52231 6.97949 7.52231 7.04143ZM7.52231 6.97949C7.58499 6.97949 7.58499 6.97949 7.52231 6.97949C7.58499 6.97949 7.58499 6.97949 7.52231 6.97949C7.58499 6.97949 7.58499 6.97949 7.52231 6.97949C7.58499 6.97949 7.58499 7.04143 7.52231 6.97949C7.58499 7.04143 7.52231 7.04143 7.52231 6.97949C7.52231 7.04143 7.52231 7.04143 7.52231 6.97949ZM7.52231 6.97949C7.52231 6.97949 7.58499 6.97949 7.52231 6.97949C7.58499 6.97949 7.58499 6.97949 7.52231 6.97949C7.58499 6.97949 7.58499 6.97949 7.52231 6.97949C7.58499 6.97949 7.58499 6.97949 7.52231 6.97949ZM7.585 7.04143C7.585 6.97949 7.585 6.97949 7.585 7.04143C7.585 6.97949 7.585 6.97949 7.585 7.04143C7.64768 6.97949 7.64768 6.97949 7.585 7.04143C7.64768 6.97949 7.64768 6.97949 7.585 7.04143C7.585 6.97949 7.585 6.97949 7.585 7.04143C7.585 6.97949 7.585 6.97949 7.585 7.04143C7.585 6.97949 7.585 6.97949 7.585 7.04143ZM7.64768 6.97949C7.64768 6.97949 7.64768 7.04143 7.64768 6.97949C7.64768 7.04143 7.64768 7.04143 7.64768 6.97949C7.64768 7.04143 7.64768 7.04143 7.64768 6.97949C7.64768 6.97949 7.64768 7.04143 7.64768 6.97949C7.64768 7.04143 7.64768 7.04143 7.64768 6.97949ZM7.64768 6.97949C7.64768 7.04143 7.64768 7.04143 7.64768 6.97949C7.71037 7.04143 7.71037 7.04143 7.64768 6.97949C7.71037 6.97949 7.71037 6.97949 7.64768 6.97949C7.71037 6.97949 7.71037 6.97949 7.64768 6.97949C7.71037 6.97949 7.71037 6.97949 7.64768 6.97949C7.71037 6.97949 7.71037 6.97949 7.64768 6.97949C7.71037 6.97949 7.71037 6.97949 7.64768 6.97949C7.71037 6.97949 7.71037 6.97949 7.64768 6.97949C7.71037 6.97949 7.71037 6.97949 7.64768 6.97949C7.71037 6.97949 7.71037 6.97949 7.64768 6.97949C7.71037 6.97949 7.71037 6.97949 7.64768 6.97949C7.71037 6.97949 7.64768 6.97949 7.64768 6.97949C7.71037 6.97949 7.71037 6.97949 7.64768 6.97949C7.71037 6.97949 7.71037 6.97949 7.64768 6.97949C7.71037 6.97949 7.71037 6.97949 7.64768 6.97949C7.71037 6.97949 7.71037 6.97949 7.64768 6.97949C7.71037 7.04143 7.71037 7.04143 7.64768 6.97949C7.71037 7.04143 7.71037 7.04143 7.64768 6.97949C7.64768 7.04143 7.64768 7.04143 7.64768 6.97949C7.64768 7.04143 7.64768 6.97949 7.64768 6.97949ZM7.71037 7.04143C7.71037 6.97949 7.71037 6.97949 7.71037 7.04143C7.71037 6.97949 7.71037 6.97949 7.71037 7.04143C7.71037 6.97949 7.71037 6.97949 7.71037 7.04143C7.71037 6.97949 7.71037 6.97949 7.71037 7.04143C7.71037 6.97949 7.71037 6.97949 7.71037 7.04143C7.71037 6.97949 7.71037 6.97949 7.71037 7.04143ZM7.71037 6.97949C7.71037 7.04143 7.71037 7.04143 7.71037 6.97949C7.71037 7.04143 7.71037 7.04143 7.71037 6.97949ZM7.77305 6.97949C7.77305 7.04143 7.77305 7.04143 7.77305 6.97949C7.77305 7.04143 7.77305 7.04143 7.77305 6.97949C7.77305 7.04143 7.77305 7.04143 7.77305 6.97949C7.77305 7.04143 7.77305 6.97949 7.77305 6.97949C7.77305 7.04143 7.77305 7.04143 7.77305 6.97949C7.77305 7.04143 7.77305 7.04143 7.77305 6.97949C7.77305 7.04143 7.77305 7.04143 7.77305 6.97949ZM7.83574 7.04143C7.83574 6.97949 7.83574 6.97949 7.83574 7.04143C7.83574 6.97949 7.83574 6.97949 7.83574 7.04143C7.83574 6.97949 7.83574 6.97949 7.83574 7.04143C7.83574 6.97949 7.83574 6.97949 7.83574 7.04143C7.83574 6.97949 7.83574 6.97949 7.83574 7.04143C7.83574 6.97949 7.83574 6.97949 7.83574 7.04143C7.83574 6.97949 7.83574 6.97949 7.83574 7.04143C7.83574 6.97949 7.83574 6.97949 7.83574 7.04143C7.83574 6.97949 7.83574 6.97949 7.83574 7.04143C7.83574 6.97949 7.83574 6.97949 7.83574 7.04143C7.83574 6.97949 7.83574 6.97949 7.83574 7.04143C7.83574 6.97949 7.83574 6.97949 7.83574 7.04143C7.83574 6.97949 7.83574 6.97949 7.83574 7.04143C7.83574 6.97949 7.83574 6.97949 7.83574 7.04143C7.83574 6.97949 7.83574 6.97949 7.83574 7.04143C7.83574 6.97949 7.83574 6.97949 7.83574 7.04143C7.83574 6.97949 7.83574 6.97949 7.83574 7.04143ZM7.83574 6.97949C7.83574 6.97949 7.83574 7.04143 7.83574 6.97949C7.83574 7.04143 7.83574 7.04143 7.83574 6.97949C7.83574 7.04143 7.83574 7.04143 7.83574 6.97949C7.83574 7.04143 7.83574 7.04143 7.83574 6.97949C7.83574 7.04143 7.83574 7.04143 7.83574 6.97949C7.83574 7.04143 7.83574 6.97949 7.83574 6.97949ZM7.89842 6.97949C7.89842 7.04143 7.89842 7.04143 7.89842 6.97949C7.89842 7.04143 7.89842 7.04143 7.89842 6.97949C7.89842 7.04143 7.89842 7.04143 7.89842 6.97949C7.89842 7.04143 7.89842 7.04143 7.89842 6.97949C7.89842 7.04143 7.89842 7.04143 7.89842 6.97949ZM7.89842 6.97949C7.89842 7.04143 7.89842 7.04143 7.89842 6.97949C7.89842 7.04143 7.89842 7.04143 7.89842 6.97949C7.89842 7.04143 7.89842 7.04143 7.89842 6.97949C7.89842 7.04143 7.89842 7.04143 7.89842 6.97949ZM7.96111 7.04143C7.96111 6.97949 7.96111 6.97949 7.96111 7.04143C7.96111 6.97949 7.96111 6.97949 7.96111 7.04143C7.96111 6.97949 7.96111 6.97949 7.96111 7.04143C7.96111 6.97949 7.96111 6.97949 7.96111 7.04143C7.96111 6.97949 7.96111 6.97949 7.96111 7.04143ZM7.96111 6.97949C7.96111 7.04143 7.96111 7.04143 7.96111 6.97949C7.96111 7.04143 7.96111 7.04143 7.96111 6.97949C7.96111 7.04143 7.96111 7.04143 7.96111 6.97949C7.96111 7.04143 7.96111 7.04143 7.96111 6.97949ZM7.96111 7.04143C8.0238 6.97949 8.0238 6.97949 7.96111 7.04143C8.0238 6.97949 8.0238 6.97949 7.96111 7.04143C8.0238 6.97949 8.0238 6.97949 7.96111 7.04143C8.0238 6.97949 8.0238 6.97949 7.96111 7.04143C8.0238 6.97949 8.0238 6.97949 7.96111 7.04143C8.0238 6.97949 8.0238 6.97949 7.96111 7.04143C8.0238 6.97949 8.0238 6.97949 7.96111 7.04143ZM8.0238 7.04143C8.0238 6.97949 8.0238 6.97949 8.0238 7.04143C8.0238 6.97949 8.0238 6.97949 8.0238 7.04143C8.0238 6.97949 8.0238 6.97949 8.0238 7.04143C8.0238 6.97949 8.08648 6.97949 8.0238 7.04143ZM8.0238 7.04143C8.0238 6.97949 8.0238 6.97949 8.0238 7.04143C8.0238 6.97949 8.0238 6.97949 8.0238 7.04143C8.0238 6.97949 8.0238 6.97949 8.0238 7.04143C8.0238 6.97949 8.0238 6.97949 8.0238 7.04143ZM8.0238 7.04143C8.0238 7.04143 8.08648 7.04143 8.0238 7.04143C8.08648 7.04143 8.08648 7.04143 8.0238 7.04143C8.08648 7.04143 8.0238 7.04143 8.0238 7.04143ZM8.08648 7.04143C8.08648 6.97949 8.08648 6.97949 8.08648 7.04143C8.08648 6.97949 8.08648 6.97949 8.08648 7.04143C8.08648 6.97949 8.08648 6.97949 8.08648 7.04143C8.08648 6.97949 8.08648 7.04143 8.08648 7.04143ZM8.08648 7.04143C8.08648 7.04143 8.08648 6.97949 8.08648 7.04143C8.08648 6.97949 8.08648 6.97949 8.08648 7.04143C8.08648 6.97949 8.08648 6.97949 8.08648 7.04143C8.08648 6.97949 8.08648 6.97949 8.08648 7.04143Z" fill="black"/>
<path d="M8.14882 7.04104C8.08614 7.04104 8.08614 7.04104 8.14882 7.04104C8.14882 6.97981 8.14882 6.97981 8.14882 7.04104C8.14882 6.97981 8.14882 6.97981 8.14882 7.04104C8.14882 6.97981 8.14882 6.97981 8.14882 7.04104C8.14882 6.97981 8.14882 6.97981 8.14882 7.04104C8.14882 7.04104 8.14882 6.97981 8.14882 7.04104C8.14882 6.97981 8.14882 6.97981 8.14882 7.04104C8.14882 6.97981 8.14882 6.97981 8.14882 7.04104ZM8.14882 7.04104C8.14882 7.04104 8.21151 7.04104 8.14882 7.04104C8.21151 6.97981 8.21151 6.97981 8.14882 7.04104C8.21151 6.97981 8.21151 6.97981 8.14882 7.04104C8.21151 7.04104 8.21151 7.04104 8.14882 7.04104C8.21151 7.04104 8.21151 7.04104 8.14882 7.04104C8.21151 7.04104 8.21151 7.04104 8.14882 7.04104C8.21151 7.04104 8.21151 7.04104 8.14882 7.04104C8.21151 7.04104 8.21151 7.04104 8.14882 7.04104ZM8.27419 7.04104C8.21151 7.04104 8.21151 7.04104 8.27419 7.04104C8.21151 7.04104 8.21151 7.04104 8.27419 7.04104C8.21151 7.04104 8.21151 7.04104 8.27419 7.04104ZM8.33688 7.04104C8.27419 7.04104 8.27419 7.04104 8.33688 7.04104C8.27419 7.04104 8.27419 7.04104 8.33688 7.04104C8.27419 7.04104 8.27419 7.04104 8.33688 7.04104C8.27419 7.04104 8.27419 7.04104 8.33688 7.04104C8.27419 7.04104 8.27419 7.04104 8.33688 7.04104C8.27419 7.04104 8.27419 7.04104 8.33688 7.04104C8.27419 7.04104 8.27419 7.04104 8.33688 7.04104C8.27419 7.04104 8.27419 7.04104 8.33688 7.04104C8.27419 7.04104 8.33688 7.04104 8.33688 7.04104ZM8.27419 7.04104C8.33688 7.04104 8.33688 7.04104 8.27419 7.04104C8.33688 7.04104 8.33688 7.04104 8.27419 7.04104ZM8.39956 7.04104C8.33688 7.04104 8.33688 7.04104 8.39956 7.04104C8.33688 7.04104 8.33688 7.04104 8.39956 7.04104C8.33688 7.04104 8.33688 7.04104 8.39956 7.04104C8.33688 7.04104 8.33688 7.04104 8.39956 7.04104C8.33688 7.04104 8.33688 6.97981 8.39956 7.04104C8.39956 6.97981 8.39956 6.97981 8.39956 7.04104C8.39956 6.97981 8.39956 6.97981 8.39956 7.04104C8.33688 7.04104 8.33688 7.04104 8.39956 7.04104C8.33688 7.04104 8.33688 7.04104 8.39956 7.04104C8.33688 7.04104 8.33688 7.04104 8.39956 7.04104C8.33688 7.04104 8.33688 7.04104 8.39956 7.04104C8.33688 7.04104 8.33688 7.04104 8.39956 7.04104ZM8.39956 7.04104C8.39956 7.04104 8.46225 7.04104 8.39956 7.04104C8.46225 7.04104 8.46225 7.04104 8.39956 7.04104C8.46225 7.04104 8.46225 7.04104 8.39956 7.04104ZM8.46225 7.10226C8.46225 7.04104 8.46225 7.04104 8.46225 7.10226C8.46225 7.04104 8.46225 7.04104 8.46225 7.10226C8.46225 7.04104 8.46225 7.04104 8.46225 7.10226C8.46225 7.04104 8.46225 7.04104 8.46225 7.10226C8.46225 7.04104 8.46225 7.04104 8.46225 7.10226C8.46225 7.04104 8.46225 7.04104 8.46225 7.10226C8.46225 7.04104 8.46225 7.04104 8.46225 7.10226C8.46225 7.04104 8.46225 7.04104 8.46225 7.10226C8.46225 7.04104 8.46225 7.04104 8.46225 7.10226ZM8.52494 7.10226C8.52494 7.04104 8.52494 7.04104 8.52494 7.10226C8.52494 7.04104 8.52494 7.04104 8.52494 7.10226C8.52494 7.04104 8.52494 7.04104 8.52494 7.10226C8.52494 7.04104 8.52494 7.04104 8.52494 7.10226C8.52494 7.04104 8.52494 7.04104 8.52494 7.10226C8.52494 7.04104 8.52494 7.04104 8.52494 7.10226C8.52494 7.04104 8.52494 7.04104 8.52494 7.10226C8.52494 7.04104 8.52494 7.04104 8.52494 7.10226C8.52494 7.04104 8.52494 7.04104 8.52494 7.10226C8.52494 7.04104 8.52494 7.04104 8.52494 7.10226C8.52494 7.04104 8.52494 7.04104 8.52494 7.10226C8.52494 7.04104 8.52494 7.04104 8.52494 7.10226C8.52494 7.04104 8.52494 7.04104 8.52494 7.10226C8.52494 7.04104 8.52494 7.04104 8.52494 7.10226C8.52494 7.04104 8.52494 7.04104 8.52494 7.10226C8.52494 7.04104 8.52494 7.04104 8.52494 7.10226ZM8.58762 7.10226C8.58762 7.04104 8.58762 7.04104 8.58762 7.10226C8.58762 7.04104 8.58762 7.04104 8.58762 7.10226C8.58762 7.04104 8.58762 7.04104 8.58762 7.10226C8.58762 7.04104 8.58762 7.04104 8.58762 7.10226C8.58762 7.04104 8.58762 7.04104 8.58762 7.10226ZM8.58762 7.04104C8.58762 7.04104 8.58762 7.10226 8.58762 7.04104C8.58762 7.10226 8.58762 7.10226 8.58762 7.04104C8.58762 7.10226 8.58762 7.10226 8.58762 7.04104C8.58762 7.10226 8.58762 7.10226 8.58762 7.04104ZM8.65031 7.10226C8.58762 7.10226 8.58762 7.10226 8.65031 7.10226C8.58762 7.10226 8.58762 7.10226 8.65031 7.10226C8.58762 7.10226 8.58762 7.10226 8.65031 7.10226C8.58762 7.10226 8.58762 7.10226 8.65031 7.10226C8.58762 7.10226 8.58762 7.04104 8.65031 7.10226C8.58762 7.04104 8.58762 7.04104 8.65031 7.10226C8.58762 7.04104 8.58762 7.04104 8.65031 7.10226C8.65031 7.04104 8.65031 7.04104 8.65031 7.10226C8.65031 7.04104 8.65031 7.04104 8.65031 7.10226C8.65031 7.04104 8.65031 7.04104 8.65031 7.10226C8.65031 7.04104 8.65031 7.04104 8.65031 7.10226C8.65031 7.04104 8.58762 7.04104 8.65031 7.10226C8.58762 7.04104 8.58762 7.04104 8.65031 7.10226C8.58762 7.04104 8.58762 7.04104 8.65031 7.10226C8.58762 7.04104 8.58762 7.04104 8.65031 7.10226C8.65031 7.04104 8.65031 7.04104 8.65031 7.10226C8.65031 7.04104 8.65031 7.04104 8.65031 7.10226C8.65031 7.04104 8.65031 7.04104 8.65031 7.10226C8.65031 7.04104 8.65031 7.04104 8.65031 7.10226C8.65031 7.04104 8.65031 7.04104 8.65031 7.10226ZM8.65031 7.10226C8.58762 7.10226 8.58762 7.10226 8.65031 7.10226C8.58762 7.10226 8.58762 7.10226 8.65031 7.10226C8.58762 7.10226 8.58762 7.10226 8.65031 7.10226C8.58762 7.10226 8.58762 7.10226 8.65031 7.10226C8.58762 7.10226 8.58762 7.10226 8.65031 7.10226C8.58762 7.10226 8.58762 7.10226 8.65031 7.10226ZM8.65031 7.10226C8.65031 7.04104 8.65031 7.04104 8.65031 7.10226C8.65031 7.04104 8.65031 7.04104 8.65031 7.10226C8.65031 7.04104 8.65031 7.04104 8.65031 7.10226C8.65031 7.04104 8.65031 7.04104 8.65031 7.10226C8.65031 7.04104 8.65031 7.10226 8.65031 7.10226C8.65031 7.10226 8.65031 7.04104 8.65031 7.10226C8.65031 7.04104 8.65031 7.04104 8.65031 7.10226C8.65031 7.04104 8.65031 7.04104 8.65031 7.10226C8.65031 7.04104 8.65031 7.04104 8.65031 7.10226ZM8.71299 7.10226C8.71299 7.10226 8.71299 7.04104 8.71299 7.10226C8.71299 7.04104 8.71299 7.04104 8.71299 7.10226C8.71299 7.04104 8.71299 7.04104 8.71299 7.10226C8.65031 7.10226 8.65031 7.10226 8.71299 7.10226ZM8.71299 7.10226C8.71299 7.10226 8.71299 7.04104 8.71299 7.10226C8.71299 7.04104 8.71299 7.04104 8.71299 7.10226Z" fill="black"/>
<path d="M8.83862 7.28561L8.96399 6.97949L8.83862 7.28561Z" fill="#EA0020"/>
<path d="M4.82697 4.34717C5.76726 4.34717 10.0926 6.9186 10.0926 7.40839L9.84185 7.83696C9.71647 7.28594 5.32846 4.77574 4.63892 4.83696L4.82697 4.34717Z" fill="#FCFF2C"/>
<path d="M9.8418 7.77555L10.0299 7.4082L9.8418 7.77555Z" fill="black"/>
<path d="M4.57593 4.71451L4.76399 4.34717L4.57593 4.71451Z" fill="black"/>
<path d="M4.57611 4.71477C4.76417 4.59232 6.01789 5.14334 7.33429 5.93926C8.6507 6.73518 9.90442 7.59232 9.84173 7.77599L9.77904 7.83722C9.77904 7.83722 9.77904 7.83722 9.77904 7.77599C9.71636 7.59232 8.83876 6.91885 7.33429 6.00048C5.89252 5.14334 4.6388 4.65355 4.51343 4.77599L4.57611 4.71477ZM10.0925 7.40865C10.2178 7.22497 9.02681 6.30661 7.58504 5.51069C6.08058 4.65354 4.95223 4.16375 4.76417 4.2862V4.40865C4.82686 4.40865 4.88954 4.40865 4.88954 4.40865C5.20297 4.40865 6.20595 4.83722 7.58504 5.63314C8.14921 5.87803 10.0298 7.10252 10.0925 7.40865C10.0298 7.46987 10.0298 7.46987 10.0298 7.46987L10.0925 7.40865Z" fill="#FCFF2C"/>
<path d="M9.77886 7.89838V7.83715C9.71617 7.65348 8.77588 6.91879 7.33411 6.06164C6.08039 5.32695 4.95204 4.83715 4.63861 4.83715C4.57593 4.83715 4.57593 4.83715 4.57593 4.83715V4.77593H4.63861C4.95204 4.77593 6.14308 5.32695 7.33411 6.00042C8.52514 6.73511 9.77886 7.53103 9.84154 7.77593V7.83715L9.77886 7.89838ZM4.57593 4.77593C4.88936 4.77593 6.08039 5.32695 7.27142 6.00042C8.7132 6.85756 9.65349 7.59225 9.71617 7.77593V7.83715V7.77593C9.71617 7.77593 9.71617 7.77593 9.71617 7.7147C9.65349 7.46981 8.39977 6.61266 7.20874 5.93919C6.14308 5.26572 4.95204 4.7147 4.57593 4.77593C4.57593 4.7147 4.57593 4.7147 4.57593 4.77593ZM10.0296 7.46981C10.0296 7.10246 8.08634 5.87797 7.52217 5.57185C6.14308 4.83715 5.20279 4.34736 4.88936 4.34736C4.82667 4.34736 4.82667 4.34736 4.76399 4.34736C4.82667 4.28613 4.82667 4.28613 4.88936 4.28613C5.26547 4.28613 6.20576 4.7147 7.58485 5.51062C7.96097 5.75552 10.0923 7.04123 10.0296 7.46981C10.0296 7.40858 10.0296 7.40858 10.0296 7.46981L10.0923 7.40858C10.2177 7.22491 9.08931 6.36777 7.58485 5.51062C5.95502 4.59226 4.95204 4.16368 4.76399 4.34736V4.40858V4.28613C4.76399 4.28613 4.82667 4.28613 4.88936 4.28613C5.32816 4.28613 6.58188 4.9596 7.58485 5.51062C8.90126 6.24532 10.2177 7.22491 10.0923 7.46981H10.0296Z" fill="black"/>
<path d="M5.51636 6.30651C5.51636 6.79631 5.70441 7.22488 6.08053 7.531C6.39396 7.83712 6.83276 8.08202 7.33425 8.08202C7.83574 8.08202 8.27454 7.89835 8.65065 7.531C8.96408 7.22488 9.21483 6.79631 9.21483 6.30651V3.97998H5.57904V6.30651H5.51636Z" fill="white"/>
<path d="M7.33419 8.08172C6.8327 8.08172 6.3939 7.89805 6.01779 7.5307C5.64167 7.16335 5.45361 6.73478 5.45361 6.24499V3.91846H9.0894V6.30621C9.0894 6.79601 8.90134 7.22458 8.52522 7.59193C8.27448 7.89805 7.83568 8.08172 7.33419 8.08172ZM9.15208 3.97968H5.5163V6.36744C5.5163 6.85723 5.70436 7.2858 6.01779 7.59193C6.3939 7.95927 6.8327 8.14295 7.2715 8.14295C7.77299 8.14295 8.21179 7.95927 8.52522 7.65315C8.83865 7.34703 9.02671 6.85723 9.02671 6.42866V3.97968H9.15208Z" fill="black"/>
<path d="M5.5791 6.30632C5.5791 6.79612 5.76716 7.22469 6.08059 7.53081C6.39402 7.83693 6.83282 8.02061 7.33431 8.02061C7.83579 8.02061 8.2746 7.83693 8.58803 7.53081C8.90145 7.22469 9.08951 6.79612 9.08951 6.30632V4.04102H5.5791V6.30632ZM8.39997 4.71448V6.18387V6.36755C8.39997 6.42877 8.39997 6.42877 8.39997 6.49C8.39997 6.73489 8.2746 6.91857 8.08654 7.10224C7.89848 7.28591 7.64774 7.40836 7.33431 7.40836C7.02088 7.40836 6.77013 7.28591 6.58208 7.10224C6.39402 6.91857 6.26865 6.67367 6.26865 6.36755V4.71448H8.39997Z" fill="#EA0020"/>
<path d="M7.33431 8.0208C6.89551 8.0208 6.4567 7.83712 6.08059 7.531C5.76716 7.22488 5.5791 6.79631 5.5791 6.30651V3.97998H9.08951V6.30651C9.08951 6.73508 8.90145 7.16365 8.58803 7.531C8.2746 7.83712 7.83579 8.0208 7.33431 8.0208ZM9.08951 4.0412H5.5791V6.30651C5.5791 6.73508 5.76716 7.16365 6.08059 7.531C6.39402 7.83712 6.83282 8.0208 7.33431 8.0208C7.77311 8.0208 8.21191 7.83712 8.58803 7.531C8.90145 7.22488 9.08951 6.79631 9.08951 6.30651V4.0412ZM7.33431 7.34733C7.08356 7.34733 6.77013 7.22488 6.58208 7.0412C6.39402 6.85753 6.26865 6.61263 6.26865 6.30651V4.71467H8.33728V6.18406V6.36774C8.33728 6.42896 8.33728 6.42896 8.33728 6.49018C8.33728 6.73508 8.21191 6.91876 8.02385 7.10243C7.89848 7.22488 7.64774 7.34733 7.33431 7.34733ZM6.33133 4.71467V6.30651C6.33133 6.55141 6.4567 6.85753 6.64476 7.0412C6.83282 7.22488 7.08356 7.34733 7.39699 7.34733C7.64774 7.34733 7.96117 7.22488 8.14922 7.0412C8.33728 6.85753 8.39997 6.67386 8.46265 6.42896C8.46265 6.36774 8.46265 6.36774 8.46265 6.30651V4.71467H6.33133Z" fill="black"/>
<path d="M7.14624 6.06149C7.14624 6.12272 7.14624 6.18394 7.20893 6.24517C7.27161 6.30639 7.3343 6.30639 7.39698 6.30639C7.45967 6.30639 7.52236 6.30639 7.58504 6.24517C7.64773 6.18394 7.64773 6.12272 7.64773 6.06149V5.75537H7.20893L7.14624 6.06149Z" fill="#1A0095"/>
<path d="M7.52182 5.81689C7.45952 5.81689 7.45952 5.81689 7.52182 5.81689C7.45952 5.8788 7.52182 5.8788 7.52182 5.8788C7.52182 5.94071 7.52182 5.8788 7.52182 5.81689Z" fill="white"/>
<path d="M7.33432 5.93945C7.27094 6.00209 7.33432 6.00209 7.33432 6.00209C7.39771 6.00209 7.39771 6.00209 7.33432 5.93945C7.39771 5.93945 7.39771 5.93945 7.33432 5.93945Z" fill="white"/>
<path d="M7.52182 6.06104C7.45952 6.06104 7.45952 6.06104 7.52182 6.06104C7.45952 6.12294 7.52182 6.12294 7.52182 6.12294C7.52182 6.18485 7.52182 6.12294 7.52182 6.06104Z" fill="white"/>
<path d="M7.27133 6.06104C7.20904 6.06104 7.20904 6.06104 7.27133 6.06104C7.20904 6.12294 7.27133 6.12294 7.27133 6.12294C7.27133 6.18485 7.27133 6.12294 7.27133 6.06104Z" fill="white"/>
<path d="M7.27133 5.81689C7.20904 5.81689 7.20904 5.81689 7.27133 5.81689C7.20904 5.8788 7.27133 5.8788 7.27133 5.8788C7.27133 5.94071 7.27133 5.8788 7.27133 5.81689Z" fill="white"/>
<path d="M7.14624 6.85739C7.14624 6.91862 7.14624 6.97984 7.20893 7.04107C7.27161 7.10229 7.3343 7.10229 7.39698 7.10229C7.45967 7.10229 7.52236 7.10229 7.58504 7.04107C7.64773 6.97984 7.64773 6.91862 7.64773 6.85739V6.55127H7.20893V6.85739H7.14624Z" fill="#1A0095"/>
<path d="M7.45981 6.6123C7.39643 6.67494 7.45981 6.67494 7.45981 6.67494C7.5232 6.67494 7.5232 6.67494 7.45981 6.6123C7.5232 6.6123 7.5232 6.6123 7.45981 6.6123Z" fill="white"/>
<path d="M7.33432 6.73486C7.27094 6.7975 7.33432 6.7975 7.33432 6.7975C7.39771 6.7975 7.39771 6.7975 7.33432 6.73486C7.39771 6.73486 7.39771 6.73486 7.33432 6.73486Z" fill="white"/>
<path d="M7.45981 6.85742C7.39643 6.92005 7.45981 6.92005 7.45981 6.92005C7.5232 6.92005 7.5232 6.92005 7.45981 6.85742C7.5232 6.85742 7.5232 6.85742 7.45981 6.85742Z" fill="white"/>
<path d="M7.27141 6.85742C7.20901 6.85742 7.20901 6.85742 7.27141 6.85742C7.20901 6.92015 7.27141 6.92016 7.27141 6.92016C7.27141 6.92016 7.27141 6.92015 7.27141 6.85742Z" fill="white"/>
<path d="M7.27141 6.6123C7.20901 6.6123 7.20901 6.6123 7.27141 6.6123C7.20901 6.67504 7.27141 6.67504 7.27141 6.67504C7.27141 6.67504 7.27141 6.67504 7.27141 6.6123Z" fill="white"/>
<path d="M6.51953 6.06149C6.51953 6.12272 6.51953 6.18394 6.58222 6.24517C6.6449 6.30639 6.70759 6.30639 6.77028 6.30639C6.83296 6.30639 6.89565 6.30639 6.95833 6.24517C7.02102 6.18394 7.02102 6.12272 7.02102 6.06149V5.75537H6.58222L6.51953 6.06149Z" fill="#1A0095"/>
<path d="M6.8331 5.81689C6.76972 5.8788 6.8331 5.8788 6.8331 5.8788C6.89649 5.94071 6.89649 5.8788 6.8331 5.81689C6.89649 5.81689 6.89649 5.81689 6.8331 5.81689Z" fill="white"/>
<path d="M6.70761 5.93945C6.64423 6.00136 6.70761 6.00136 6.70761 6.00136C6.771 6.06327 6.771 6.00136 6.70761 5.93945C6.771 5.93945 6.771 5.93945 6.70761 5.93945Z" fill="white"/>
<path d="M6.8331 6.06104C6.76972 6.12294 6.8331 6.12294 6.8331 6.12294C6.89649 6.18485 6.89649 6.12294 6.8331 6.06104C6.89649 6.06104 6.89649 6.06104 6.8331 6.06104Z" fill="white"/>
<path d="M6.58286 6.06104C6.51947 6.12294 6.58286 6.12294 6.58286 6.12294C6.64624 6.18485 6.64624 6.12294 6.58286 6.06104C6.64624 6.06104 6.64624 6.06104 6.58286 6.06104Z" fill="white"/>
<path d="M6.58286 5.81689C6.51947 5.8788 6.58286 5.8788 6.58286 5.8788C6.64624 5.94071 6.64624 5.8788 6.58286 5.81689C6.64624 5.81689 6.64624 5.81689 6.58286 5.81689Z" fill="white"/>
<path d="M7.77295 6.06149C7.77295 6.12272 7.77295 6.18394 7.83564 6.24517C7.89832 6.30639 7.96101 6.30639 8.02369 6.30639C8.08638 6.30639 8.14907 6.30639 8.21175 6.24517C8.27444 6.18394 8.27444 6.12272 8.27444 6.06149V5.75537H7.83564L7.77295 6.06149Z" fill="#1A0095"/>
<path d="M8.14853 5.81689C8.08623 5.81689 8.08623 5.81689 8.14853 5.81689C8.08623 5.8788 8.14853 5.8788 8.14853 5.8788C8.14853 5.94071 8.14853 5.8788 8.14853 5.81689Z" fill="white"/>
<path d="M8.0236 5.93945C7.96121 5.93945 7.96121 5.93945 8.0236 5.93945C7.96121 6.00219 8.0236 6.00219 8.0236 6.00219C8.0236 6.00219 8.0236 6.00219 8.0236 5.93945Z" fill="white"/>
<path d="M8.14853 6.06104C8.08623 6.06104 8.08623 6.06104 8.14853 6.06104C8.08623 6.12294 8.14853 6.12294 8.14853 6.12294C8.14853 6.18485 8.14853 6.12294 8.14853 6.06104Z" fill="white"/>
<path d="M7.89828 6.06104C7.83599 6.06104 7.83599 6.06104 7.89828 6.06104C7.83599 6.12294 7.89828 6.12294 7.89828 6.12294C7.89828 6.18485 7.89828 6.12294 7.89828 6.06104Z" fill="white"/>
<path d="M7.89828 5.81689C7.83599 5.81689 7.83599 5.81689 7.89828 5.81689C7.83599 5.8788 7.89828 5.8788 7.89828 5.8788C7.89828 5.94071 7.89828 5.8788 7.89828 5.81689Z" fill="white"/>
<path d="M7.14624 5.2656C7.14624 5.32682 7.14624 5.38804 7.20893 5.44927C7.27161 5.51049 7.27161 5.51049 7.3343 5.51049C7.39698 5.51049 7.45967 5.51049 7.52236 5.44927C7.58504 5.38804 7.58504 5.32682 7.58504 5.2656V4.95947H7.14624V5.2656Z" fill="#1A0095"/>
<path d="M7.52182 5.021C7.45952 5.021 7.45952 5.0829 7.52182 5.021C7.45952 5.0829 7.52182 5.0829 7.52182 5.0829C7.52182 5.14481 7.52182 5.0829 7.52182 5.021C7.52182 5.0829 7.52182 5.021 7.52182 5.021Z" fill="white"/>
<path d="M7.33432 5.14258C7.33432 5.14258 7.33432 5.20449 7.33432 5.14258C7.27094 5.20449 7.33432 5.20449 7.33432 5.20449C7.39771 5.26639 7.39771 5.20449 7.33432 5.14258C7.39771 5.20449 7.39771 5.14258 7.33432 5.14258Z" fill="white"/>
<path d="M7.52182 5.26562C7.45952 5.26562 7.45952 5.32753 7.52182 5.26562C7.45952 5.32753 7.52182 5.32753 7.52182 5.32753C7.52182 5.38944 7.52182 5.32753 7.52182 5.26562C7.52182 5.32753 7.52182 5.26562 7.52182 5.26562Z" fill="white"/>
<path d="M7.27133 5.26562C7.20904 5.26562 7.20904 5.32753 7.27133 5.26562C7.20904 5.32753 7.27133 5.32753 7.27133 5.32753C7.27133 5.38944 7.27133 5.32753 7.27133 5.26562C7.27133 5.32753 7.27133 5.26562 7.27133 5.26562Z" fill="white"/>
<path d="M7.27133 5.021C7.20904 5.021 7.20904 5.0829 7.27133 5.021C7.20904 5.0829 7.27133 5.0829 7.27133 5.0829C7.27133 5.14481 7.27133 5.0829 7.27133 5.021C7.27133 5.0829 7.27133 5.021 7.27133 5.021Z" fill="white"/>
<path d="M5.82959 4.6534C5.82959 4.46973 5.95496 4.46973 5.95496 4.46973C5.95496 4.46973 6.08033 4.53095 6.08033 4.6534H5.82959Z" fill="#FCFF2C"/>
<path d="M5.70435 4.40869V4.59236H5.82972C5.82972 4.40869 5.95509 4.40869 5.95509 4.40869C5.95509 4.40869 6.08046 4.46992 6.08046 4.59236H6.20583V4.40869H5.70435Z" fill="#FCFF2C"/>
<path d="M6.20583 4.65359H6.08046C6.08046 4.53114 5.95509 4.46992 5.95509 4.46992C5.95509 4.46992 5.82972 4.46992 5.82972 4.65359H5.70435V4.46992H6.14315L6.20583 4.65359ZM5.95509 4.40869H5.76703V4.59236H5.8924C5.82972 4.46992 5.8924 4.46992 5.95509 4.40869ZM5.95509 4.40869C5.95509 4.40869 6.08046 4.46992 6.08046 4.59236H6.20583V4.40869H5.95509Z" fill="black"/>
<path d="M5.70435 4.59229H6.20583H5.70435C5.70435 4.65423 5.70435 4.65423 5.70435 4.59229C5.70435 4.65423 5.70435 4.59229 5.70435 4.59229Z" fill="#FCFF2C"/>
<path d="M6.20583 4.65351H5.70435V4.59229H6.20583C6.20583 4.59229 6.26852 4.65351 6.20583 4.65351C6.26852 4.65351 6.20583 4.65351 6.20583 4.65351ZM5.70435 4.65351L6.20583 4.71473L5.70435 4.65351Z" fill="black"/>
<path d="M5.89258 4.5929C5.89258 4.46973 5.95563 4.46973 5.95563 4.46973C5.95563 4.46973 6.01869 4.46973 6.01869 4.5929H5.89258Z" fill="#FCFF2C"/>
<path d="M6.01795 4.6534H5.89258C5.89258 4.53095 5.95526 4.53095 5.95526 4.53095C5.95526 4.46973 6.01795 4.53095 6.01795 4.6534ZM5.95526 4.46973C5.95526 4.46973 5.89258 4.46973 5.89258 4.59218H6.01795C6.01795 4.53095 5.95526 4.46973 5.95526 4.46973Z" fill="black"/>
<path d="M5.70435 4.34717H6.20583H5.70435C5.70435 4.40911 5.70435 4.40911 5.70435 4.34717Z" fill="#FCFF2C"/>
<path d="M6.20583 4.40911H5.70435H6.20583C6.20583 4.34717 6.20583 4.34717 6.20583 4.40911ZM5.70435 4.34717H6.20583H5.70435Z" fill="black"/>
<path d="M6.20583 4.47063H5.70435H6.20583C6.20583 4.40869 6.20583 4.40869 6.20583 4.47063C6.20583 4.40869 6.20583 4.47063 6.20583 4.47063ZM5.70435 4.40869H6.20583H5.70435Z" fill="black"/>
<path d="M5.89258 4.10254H5.95526H6.01795H6.08064V4.16448H5.89258C5.89258 4.16448 5.89258 4.16448 5.89258 4.10254Z" fill="#FCFF2C"/>
<path d="M6.01795 4.16346H5.89258V4.10224H5.95526V4.16346H6.01795V4.10224H6.08064L6.01795 4.16346ZM5.89258 4.10224L6.01795 4.16346V4.10224H5.95526V4.04102H5.89258V4.10224Z" fill="black"/>
<path d="M6.01795 4.16357V4.34725H5.89258V4.16357H6.01795Z" fill="#FCFF2C"/>
<path d="M6.01795 4.34725H5.89258V4.16357H6.01795V4.34725ZM6.01795 4.16357H5.89258V4.34725H6.01795V4.16357Z" fill="black"/>
<path d="M6.01758 4.16357H6.08026H6.14295H6.20564V4.22552H6.08026C6.01758 4.22552 6.01758 4.22552 6.01758 4.16357Z" fill="#FCFF2C"/>
<path d="M6.20564 4.22499H6.01758V4.16376H6.08026V4.22499H6.14295H6.20564V4.16376H6.26832L6.20564 4.22499ZM6.08026 4.16376L6.20564 4.22499V4.16376H6.14295V4.10254L6.08026 4.16376Z" fill="black"/>
<path d="M6.20643 4.22461V4.34778H6.08032V4.22461H6.20643Z" fill="#FCFF2C"/>
<path d="M6.20564 4.34706H6.08026V4.22461H6.20564V4.34706ZM6.14295 4.22461H6.01758V4.34706H6.14295V4.22461Z" fill="black"/>
<path d="M5.70435 4.16357H5.76703H5.82972H5.8924V4.22552H5.70435C5.70435 4.22552 5.70435 4.22552 5.70435 4.16357Z" fill="#FCFF2C"/>
<path d="M5.82972 4.22499H5.70435V4.16376H5.76703V4.22499H5.82972V4.16376H5.8924L5.82972 4.22499ZM5.76703 4.16376L5.8924 4.22499V4.16376H5.82972V4.10254L5.76703 4.16376Z" fill="black"/>
<path d="M5.83045 4.22461V4.34778H5.70435V4.22461H5.83045Z" fill="#FCFF2C"/>
<path d="M5.8924 4.34706H5.70435V4.22461H5.82972L5.8924 4.34706ZM5.82972 4.22461H5.70435V4.34706H5.82972V4.22461Z" fill="black"/>
<path d="M7.27148 4.10254H7.33417H7.39686H7.45954V4.16448H7.33417C7.27148 4.16448 7.27148 4.16448 7.27148 4.10254Z" fill="#FCFF2C"/>
<path d="M7.39686 4.16346H7.27148V4.10224H7.33417V4.16346H7.39686V4.10224H7.45954L7.39686 4.16346ZM7.33417 4.10224L7.45954 4.16346V4.10224H7.39686V4.04102H7.33417V4.10224Z" fill="black"/>
<path d="M7.39686 4.16357V4.34725H7.27148V4.16357H7.39686Z" fill="#FCFF2C"/>
<path d="M7.45954 4.34725H7.33417V4.16357H7.45954V4.34725ZM7.39686 4.16357H7.27148V4.34725H7.39686V4.16357Z" fill="black"/>
<path d="M7.45972 4.16357H7.52277H7.58583V4.22588H7.45972C7.45972 4.22588 7.45972 4.22588 7.45972 4.16357Z" fill="#FCFF2C"/>
<path d="M7.58509 4.22499H7.45972V4.16376H7.5224V4.22499H7.58509V4.16376H7.64777L7.58509 4.22499ZM7.45972 4.16376L7.58509 4.22499V4.16376H7.5224H7.45972V4.10254V4.16376Z" fill="black"/>
<path d="M7.58583 4.22461V4.34778H7.45972V4.22461H7.58583Z" fill="#FCFF2C"/>
<path d="M7.45972 4.34778V4.22461H7.58583V4.34778H7.45972ZM7.58583 4.22461H7.45972V4.28619H7.58583V4.22461Z" fill="black"/>
<path d="M7.0835 4.16357H7.14618H7.20887H7.27155V4.22552H7.14618C7.14618 4.22552 7.0835 4.22552 7.0835 4.16357Z" fill="#FCFF2C"/>
<path d="M7.27161 4.22499H7.14624V4.16376H7.20893V4.22499H7.27161V4.16376H7.3343L7.27161 4.22499ZM7.14624 4.16376L7.27161 4.22499V4.16376H7.20893V4.10254L7.14624 4.16376Z" fill="black"/>
<path d="M7.27235 4.22461V4.34778H7.14624V4.22461H7.27235Z" fill="#FCFF2C"/>
<path d="M7.27235 4.34778H7.14624V4.22461H7.27235V4.34778ZM7.27235 4.22461H7.14624V4.34778H7.27235V4.22461Z" fill="black"/>
<path d="M7.20947 4.6534C7.20947 4.46973 7.33484 4.46973 7.33484 4.46973C7.33484 4.46973 7.46022 4.53095 7.46022 4.6534H7.20947Z" fill="#FCFF2C"/>
<path d="M7.14624 4.40869V4.59236H7.27161C7.27161 4.40869 7.39698 4.40869 7.39698 4.40869C7.39698 4.40869 7.52236 4.46992 7.52236 4.59236H7.64773V4.40869H7.14624Z" fill="#FCFF2C"/>
<path d="M7.64773 4.65359H7.52236C7.52236 4.53114 7.39698 4.46992 7.39698 4.46992C7.39698 4.46992 7.27161 4.46992 7.27161 4.65359H7.14624V4.46992H7.58504L7.64773 4.65359ZM7.3343 4.40869H7.14624V4.59236H7.27161C7.20893 4.46992 7.3343 4.46992 7.3343 4.40869ZM7.39698 4.40869C7.39698 4.40869 7.52236 4.46992 7.52236 4.59236H7.64773V4.40869H7.39698Z" fill="black"/>
<path d="M7.0835 4.59229H7.58498H7.0835C7.0835 4.65423 7.0835 4.65423 7.0835 4.59229C7.0835 4.65423 7.0835 4.59229 7.0835 4.59229Z" fill="#FCFF2C"/>
<path d="M7.64767 4.65321H7.14618C7.14618 4.65321 7.14618 4.65321 7.14618 4.59199V4.53076H7.64767C7.64767 4.59199 7.64767 4.65321 7.64767 4.65321ZM7.0835 4.65321L7.58498 4.71443L7.0835 4.65321Z" fill="black"/>
<path d="M7.27148 4.5929C7.27148 4.46973 7.33454 4.46973 7.33454 4.46973C7.33454 4.46973 7.39759 4.46973 7.39759 4.5929H7.27148Z" fill="#FCFF2C"/>
<path d="M7.45954 4.6534H7.33417C7.33417 4.53095 7.39686 4.53095 7.39686 4.53095C7.33417 4.46973 7.45954 4.53095 7.45954 4.6534ZM7.33417 4.46973C7.33417 4.46973 7.27148 4.46973 7.27148 4.59218H7.39686C7.39686 4.53095 7.33417 4.46973 7.33417 4.46973Z" fill="black"/>
<path d="M7.0835 4.34717H7.58498H7.0835C7.0835 4.40911 7.0835 4.40911 7.0835 4.34717Z" fill="#FCFF2C"/>
<path d="M7.58498 4.40911H7.0835H7.58498C7.64767 4.34717 7.64767 4.34717 7.58498 4.40911C7.64767 4.40911 7.64767 4.40911 7.58498 4.40911ZM7.0835 4.34717H7.58498H7.0835Z" fill="black"/>
<path d="M7.58498 4.47063H7.0835H7.58498C7.58498 4.40869 7.64767 4.40869 7.58498 4.47063C7.64767 4.40869 7.58498 4.47063 7.58498 4.47063ZM7.14618 4.40869H7.64767H7.14618Z" fill="black"/>
<path d="M8.65088 4.10254H8.71356H8.77625H8.83894V4.16448H8.71356C8.65088 4.16448 8.65088 4.16448 8.65088 4.10254Z" fill="#FCFF2C"/>
<path d="M8.839 4.16346H8.71362V4.10224H8.77631V4.16346H8.839V4.10224H8.90168L8.839 4.16346ZM8.71362 4.10224L8.839 4.16346V4.10224H8.77631V4.04102L8.71362 4.10224Z" fill="black"/>
<path d="M8.77625 4.16357L8.83894 4.34725H8.65088L8.71356 4.16357H8.77625Z" fill="#FCFF2C"/>
<path d="M8.83894 4.34725H8.71356V4.16357H8.83894V4.34725ZM8.77625 4.16357H8.65088V4.34725H8.77625V4.16357Z" fill="black"/>
<path d="M8.83862 4.16357H8.90131H8.96399H9.02668V4.22552H8.90131C8.83862 4.22552 8.83862 4.22552 8.83862 4.16357Z" fill="#FCFF2C"/>
<path d="M8.96399 4.22499H8.83862V4.16376H8.90131V4.22499H8.96399V4.16376H9.02668L8.96399 4.22499ZM8.83862 4.16376L8.96399 4.22499V4.16376H8.90131V4.10254L8.83862 4.16376Z" fill="black"/>
<path d="M8.96473 4.22461V4.34778H8.83862V4.22461H8.96473Z" fill="#FCFF2C"/>
<path d="M8.96473 4.34778H8.83862V4.22461H8.96473V4.34778ZM8.96473 4.22461H8.83862V4.34778H8.96473V4.22461Z" fill="black"/>
<path d="M8.52515 4.16357H8.58783H8.65052H8.7132V4.22552H8.58783C8.52515 4.22552 8.52515 4.22552 8.52515 4.16357Z" fill="#FCFF2C"/>
<path d="M8.65052 4.22499H8.52515V4.16376H8.58783V4.22499H8.65052V4.16376H8.7132L8.65052 4.22499ZM8.52515 4.16376L8.65052 4.22499V4.16376H8.58783V4.10254H8.52515V4.16376Z" fill="black"/>
<path d="M8.65126 4.22461V4.34778H8.52515V4.22461H8.65126Z" fill="#FCFF2C"/>
<path d="M8.65126 4.34778H8.52515V4.22461H8.65126V4.34778ZM8.65126 4.22461H8.52515V4.34778H8.65126V4.22461Z" fill="black"/>
<path d="M8.58813 4.6534C8.58813 4.46973 8.71351 4.46973 8.71351 4.46973C8.71351 4.46973 8.83888 4.53095 8.83888 4.6534H8.58813Z" fill="#FCFF2C"/>
<path d="M8.52515 4.40869V4.59236H8.65052C8.65052 4.40869 8.77589 4.40869 8.77589 4.40869C8.77589 4.40869 8.90126 4.46992 8.90126 4.59236H9.02663V4.40869H8.52515Z" fill="#FCFF2C"/>
<path d="M9.02663 4.65359H8.90126C8.90126 4.53114 8.77589 4.46992 8.77589 4.46992C8.77589 4.46992 8.65052 4.46992 8.65052 4.65359H8.52515V4.46992H8.96395L9.02663 4.65359ZM8.7132 4.40869H8.52515V4.59236H8.65052C8.58783 4.46992 8.7132 4.46992 8.7132 4.40869ZM8.77589 4.40869C8.77589 4.40869 8.90126 4.46992 8.90126 4.59236H9.02663V4.40869H8.77589Z" fill="black"/>
<path d="M8.46265 4.59229H8.96413H8.46265C8.46265 4.65423 8.46265 4.65423 8.46265 4.59229C8.46265 4.65423 8.46265 4.59229 8.46265 4.59229Z" fill="#FCFF2C"/>
<path d="M9.02682 4.65321H8.52533C8.52533 4.65321 8.52533 4.65321 8.52533 4.59199V4.53076H9.02682C9.02682 4.59199 9.02682 4.65321 9.02682 4.65321ZM8.46265 4.65321L8.96413 4.71443L8.46265 4.65321Z" fill="black"/>
<path d="M8.65088 4.5929C8.65088 4.46973 8.71393 4.46973 8.71393 4.46973C8.71393 4.46973 8.77699 4.46973 8.77699 4.5929H8.65088Z" fill="#FCFF2C"/>
<path d="M8.83894 4.6534H8.71356C8.71356 4.53095 8.77625 4.53095 8.77625 4.53095C8.77625 4.46973 8.83894 4.53095 8.83894 4.6534ZM8.71356 4.46973C8.71356 4.46973 8.65088 4.46973 8.65088 4.59218H8.77625C8.77625 4.53095 8.71356 4.46973 8.71356 4.46973Z" fill="black"/>
<path d="M8.52529 4.34717H9.02677H8.52529C8.4626 4.40911 8.4626 4.40911 8.52529 4.34717C8.4626 4.34717 8.4626 4.34717 8.52529 4.34717Z" fill="#FCFF2C"/>
<path d="M8.96413 4.40911H8.46265H8.96413C9.02682 4.34717 9.02682 4.34717 8.96413 4.40911C9.02682 4.40911 9.02682 4.40911 8.96413 4.40911ZM8.52533 4.34717H9.02682H8.52533Z" fill="black"/>
<path d="M8.96413 4.47063H8.46265H8.96413C9.02682 4.40869 9.02682 4.40869 8.96413 4.47063C9.02682 4.40869 9.02682 4.47063 8.96413 4.47063ZM8.52533 4.40869H9.02682H8.52533Z" fill="black"/>
<path d="M5.89258 5.44922H5.95526H6.01795H6.08064V5.51116H5.89258C5.89258 5.51116 5.89258 5.51116 5.89258 5.44922Z" fill="#FCFF2C"/>
<path d="M6.01795 5.57167H5.89258V5.44922H5.95526V5.51044H6.01795V5.57167V5.51044H6.08064L6.01795 5.57167ZM5.89258 5.44922L6.01795 5.51044V5.44922L5.95526 5.51044V5.44922H5.89258Z" fill="black"/>
<path d="M6.01795 5.51074V5.75564H5.89258V5.51074H6.01795Z" fill="#FCFF2C"/>
<path d="M6.01795 5.75564H5.89258V5.51074H6.01795V5.75564ZM6.01795 5.51074H5.89258V5.69442H6.01795V5.51074Z" fill="black"/>
<path d="M6.01758 5.57129H6.14295H6.20564V5.63323H6.08026C6.01758 5.63323 6.01758 5.63323 6.01758 5.57129Z" fill="#FCFF2C"/>
<path d="M6.20564 5.63319H6.01758V5.57197H6.08026V5.63319H6.14295H6.20564V5.57197H6.26832L6.20564 5.63319ZM6.08026 5.57197L6.20564 5.63319V5.57197H6.14295V5.51074H6.08026V5.57197Z" fill="black"/>
<path d="M6.20643 5.6333V5.75647H6.08032V5.6333H6.20643Z" fill="#FCFF2C"/>
<path d="M6.20564 5.75575H6.08026V5.6333H6.20564V5.75575ZM6.14295 5.6333H6.01758V5.75575H6.14295V5.6333Z" fill="black"/>
<path d="M5.70435 5.57129H5.76703H5.82972H5.8924V5.63323H5.70435C5.70435 5.63323 5.70435 5.63323 5.70435 5.57129Z" fill="#FCFF2C"/>
<path d="M5.8924 5.63319H5.70435V5.57197H5.76703V5.63319H5.82972H5.8924V5.57197H5.95509L5.8924 5.63319ZM5.76703 5.57197L5.8924 5.63319V5.57197H5.82972V5.51074L5.76703 5.57197Z" fill="black"/>
<path d="M5.83045 5.6333V5.75647H5.70435V5.6333H5.83045Z" fill="#FCFF2C"/>
<path d="M5.8924 5.75575H5.70435V5.6333H5.82972L5.8924 5.75575ZM5.82972 5.6333H5.70435V5.75575H5.82972V5.6333Z" fill="black"/>
<path d="M5.82959 6.00057C5.82959 5.81689 5.95496 5.81689 5.95496 5.81689C5.95496 5.81689 6.08033 5.87812 6.08033 6.00057H5.82959Z" fill="#FCFF2C"/>
<path d="M5.70435 5.81689V6.00057H5.82972C5.82972 5.81689 5.95509 5.81689 5.95509 5.81689C5.95509 5.81689 6.08046 5.87812 6.08046 6.00057H6.20583V5.81689H5.70435Z" fill="#FCFF2C"/>
<path d="M6.20583 6.00057H6.08046C6.08046 5.87812 5.95509 5.81689 5.95509 5.81689C5.95509 5.81689 5.82972 5.81689 5.82972 6.00057H5.70435V5.81689H6.14315L6.20583 6.00057ZM5.95509 5.81689H5.76703V6.00057H5.8924C5.82972 5.87812 5.8924 5.81689 5.95509 5.81689ZM5.95509 5.81689C5.95509 5.81689 6.08046 5.87812 6.08046 6.00057H6.20583V5.81689H5.95509Z" fill="black"/>
<path d="M5.70435 6.00049H6.20583H5.70435C5.70435 6.06243 5.70435 6.06243 5.70435 6.00049Z" fill="#FCFF2C"/>
<path d="M6.20583 6.0619H5.70435C5.70435 6.0619 5.70435 6.0619 5.70435 6.00068V5.93945H6.20583C6.20583 6.00068 6.26852 6.00068 6.20583 6.0619C6.26852 6.0619 6.20583 6.0619 6.20583 6.0619ZM5.70435 6.00068L6.20583 6.0619L5.70435 6.00068Z" fill="black"/>
<path d="M5.89258 6.0011C5.89258 5.87793 5.95563 5.87793 5.95563 5.87793C5.95563 5.87793 6.01869 5.87793 6.01869 6.0011H5.89258Z" fill="#FCFF2C"/>
<path d="M6.01869 6.0011H5.89258C5.89258 5.87793 5.95563 5.87793 5.95563 5.87793C5.95563 5.87793 6.01869 5.87793 6.01869 6.0011ZM5.95563 5.87793C5.95563 5.87793 5.89258 5.87793 5.89258 6.0011H6.01869C6.01869 5.93951 5.95563 5.87793 5.95563 5.87793Z" fill="black"/>
<path d="M5.70435 5.75537H6.20583H5.70435C5.70435 5.81731 5.70435 5.81731 5.70435 5.75537C5.70435 5.81731 5.70435 5.75537 5.70435 5.75537Z" fill="#FCFF2C"/>
<path d="M6.20583 5.81731H5.70435H6.20583C6.20583 5.75537 6.20583 5.75537 6.20583 5.81731ZM5.70435 5.75537H6.20583H5.70435Z" fill="black"/>
<path d="M6.08032 5.69584C6.08032 5.63199 6.14289 5.63199 6.08032 5.69584V5.69584Z" fill="black"/>
<path d="M5.76685 5.69584C5.76685 5.63199 5.82942 5.63199 5.76685 5.69584V5.69584Z" fill="black"/>
<path d="M8.58802 6.91846V6.97968V6.91846L8.6507 6.97968L8.58802 7.04091L8.46265 6.91846C8.52533 6.97968 8.52533 6.97968 8.58802 6.91846Z" fill="#FCFF2C"/>
<path d="M8.65052 7.10213L8.52515 6.97968L8.58783 6.91846H8.65052H8.7132L8.65052 7.10213ZM8.58783 6.91846L8.65052 7.10213L8.7132 7.04091L8.58783 6.91846L8.65052 6.97968L8.58783 6.91846Z" fill="black"/>
<path d="M8.65065 7.10194L8.46259 7.22439L8.3999 7.10194L8.52527 6.97949L8.65065 7.10194Z" fill="#FCFF2C"/>
<path d="M8.46277 7.22439L8.3374 7.10194L8.46277 6.97949L8.52546 7.04072L8.46277 7.22439ZM8.52546 6.97949L8.40009 7.10194L8.46277 7.16317L8.58815 7.04072L8.52546 6.97949Z" fill="black"/>
<path d="M8.65119 7.10205V7.16363V7.10205L8.71424 7.16363L8.65119 7.22522L8.58813 7.16363C8.58813 7.16363 8.58814 7.16364 8.65119 7.10205Z" fill="#FCFF2C"/>
<path d="M8.71351 7.28572L8.58813 7.16327L8.65082 7.10205H8.71351H8.77619L8.71351 7.28572ZM8.65082 7.10205L8.71351 7.28572L8.77619 7.2245L8.65082 7.10205L8.71351 7.16327L8.65082 7.10205Z" fill="black"/>
<path d="M8.65052 7.28651L8.58783 7.34774L8.52515 7.22529L8.58783 7.16406L8.65052 7.28651Z" fill="#FCFF2C"/>
<path d="M8.58802 7.34774L8.46265 7.22529L8.52533 7.16406L8.6507 7.22529L8.58802 7.34774ZM8.58802 7.16406L8.52533 7.22529L8.58802 7.28651L8.6507 7.22529L8.58802 7.16406Z" fill="black"/>
<path d="M8.40046 6.85742V6.91901V6.85742L8.46351 6.91901L8.40046 6.98059L8.3374 6.85742C8.3374 6.91901 8.3374 6.91901 8.40046 6.85742Z" fill="#FCFF2C"/>
<path d="M8.46277 7.0411L8.3374 6.91865L8.40009 6.85742H8.46277H8.52546L8.46277 7.0411ZM8.40009 6.85742L8.46277 7.0411L8.52546 6.97987L8.40009 6.85742L8.46277 6.91865L8.40009 6.85742Z" fill="black"/>
<path d="M8.46247 7.04091L8.39979 7.10213L8.27441 7.04091L8.3371 6.91846L8.46247 7.04091Z" fill="#FCFF2C"/>
<path d="M8.39979 7.10213L8.27441 6.97968L8.3371 6.91846L8.39979 6.97968V7.10213ZM8.3371 6.97968L8.27441 7.04091L8.3371 7.10213L8.39979 7.04091L8.3371 6.97968Z" fill="black"/>
<path d="M8.14917 7.28551C8.27454 7.16307 8.39991 7.22429 8.39991 7.22429C8.39991 7.22429 8.4626 7.34674 8.33723 7.46919L8.14917 7.28551Z" fill="#FCFF2C"/>
<path d="M8.2118 7.10205L8.08643 7.2245L8.14911 7.28572C8.27448 7.16327 8.33717 7.2245 8.39986 7.2245C8.39986 7.2245 8.46254 7.34695 8.33717 7.4694L8.39986 7.53062L8.52523 7.40817L8.2118 7.10205Z" fill="#FCFF2C"/>
<path d="M8.3998 7.53081L8.27443 7.40836C8.3998 7.28591 8.33711 7.16346 8.33711 7.16346C8.33711 7.16346 8.33711 7.16346 8.27443 7.16346C8.21174 7.16346 8.14905 7.16346 8.14905 7.22469L8.02368 7.16346L8.14905 7.04102L8.46248 7.34714L8.3998 7.53081ZM8.3998 7.22469C8.3998 7.22469 8.3998 7.28591 8.3998 7.22469C8.3998 7.34714 8.3998 7.40836 8.33711 7.46959L8.3998 7.53081L8.52517 7.40836L8.3998 7.22469ZM8.21174 7.10224L8.08637 7.22469L8.14905 7.28591C8.21174 7.22469 8.33711 7.22469 8.33711 7.22469L8.21174 7.10224Z" fill="black"/>
<path d="M8.08632 7.16406L8.46244 7.53141C8.46244 7.53141 8.46244 7.53141 8.39975 7.53141L8.08632 7.16406C8.02364 7.22529 8.02364 7.22529 8.08632 7.16406C8.02364 7.16406 8.02364 7.16406 8.08632 7.16406Z" fill="#FCFF2C"/>
<path d="M8.3998 7.59263L8.02368 7.22529C8.02368 7.22529 8.02368 7.22529 8.02368 7.16406L8.3998 7.59263C8.46248 7.53141 8.46248 7.59263 8.3998 7.59263ZM8.02368 7.22529L8.3998 7.59263L8.02368 7.22529Z" fill="black"/>
<path d="M8.21143 7.34723C8.27448 7.28564 8.33753 7.28564 8.33753 7.28564C8.33753 7.28564 8.33753 7.34723 8.27448 7.40881L8.21143 7.34723Z" fill="#FCFF2C"/>
<path d="M8.27454 7.40826L8.21186 7.34704C8.27454 7.22459 8.33723 7.28581 8.33723 7.28581C8.33723 7.28581 8.39991 7.34704 8.27454 7.40826ZM8.27454 7.28581C8.27454 7.28581 8.21186 7.28581 8.14917 7.34704L8.21186 7.40826C8.33723 7.34704 8.33723 7.28581 8.27454 7.28581C8.33723 7.28581 8.33723 7.28581 8.27454 7.28581Z" fill="black"/>
<path d="M8.27431 6.97949L8.65043 7.34684L8.27431 6.97949C8.21162 7.04072 8.21162 7.04072 8.27431 6.97949Z" fill="#FCFF2C"/>
<path d="M8.58754 7.40806L8.21143 7.04072C8.21143 7.04072 8.21143 7.04072 8.21143 6.97949H8.27411L8.58754 7.40806C8.65023 7.34684 8.65023 7.34684 8.58754 7.40806ZM8.27411 7.04072L8.58754 7.40806L8.27411 7.04072Z" fill="black"/>
<path d="M8.21143 7.04102L8.52486 7.34714L8.21143 7.04102Z" fill="#FCFF2C"/>
<path d="M8.58754 7.40836L8.21143 7.10224C8.21143 7.10224 8.21143 7.10224 8.21143 7.04102H8.27411L8.58754 7.40836C8.58754 7.34714 8.58754 7.40836 8.58754 7.40836ZM8.21143 7.04102L8.52486 7.40836L8.21143 7.04102Z" fill="black"/>
<path d="M8.52515 7.04102C8.52515 7.04102 8.58821 7.10408 8.52515 7.04102V7.04102Z" fill="black"/>
<path d="M8.65088 5.44922H8.71356H8.77625H8.83894V5.51116H8.71356C8.65088 5.51116 8.65088 5.51116 8.65088 5.44922Z" fill="#FCFF2C"/>
<path d="M8.839 5.57167H8.71362V5.44922H8.77631V5.51044H8.839V5.57167V5.51044H8.90168L8.839 5.57167ZM8.71362 5.44922L8.839 5.51044V5.44922L8.77631 5.51044V5.44922H8.71362Z" fill="black"/>
<path d="M8.77625 5.57197L8.83894 5.75564H8.65088L8.71356 5.51074L8.77625 5.57197Z" fill="#FCFF2C"/>
<path d="M8.83894 5.75564H8.71356V5.51074H8.77625L8.83894 5.75564ZM8.77625 5.57197H8.65088V5.75564H8.77625V5.57197Z" fill="black"/>
<path d="M8.83862 5.57129H8.96399H9.02668V5.63323H8.90131C8.83862 5.63323 8.83862 5.63323 8.83862 5.57129Z" fill="#FCFF2C"/>
<path d="M8.96399 5.63319H8.83862V5.57197H8.90131V5.63319H8.96399V5.57197H9.02668L8.96399 5.63319ZM8.83862 5.57197L8.96399 5.63319V5.57197H8.90131V5.51074L8.83862 5.57197Z" fill="black"/>
<path d="M8.96473 5.6333V5.75647H8.83862V5.6333H8.96473Z" fill="#FCFF2C"/>
<path d="M8.96473 5.75647H8.83862V5.6333H8.96473V5.75647ZM8.96473 5.6333H8.83862V5.75647H8.96473V5.6333Z" fill="black"/>
<path d="M8.52515 5.57129H8.58783H8.65052H8.7132V5.63323H8.58783C8.52515 5.63323 8.52515 5.63323 8.52515 5.57129Z" fill="#FCFF2C"/>
<path d="M8.65052 5.63319H8.52515V5.57197H8.58783V5.63319H8.65052V5.57197H8.7132L8.65052 5.63319ZM8.52515 5.57197L8.65052 5.63319V5.57197H8.58783V5.51074L8.52515 5.57197Z" fill="black"/>
<path d="M8.65126 5.6333V5.75647H8.52515V5.6333H8.65126Z" fill="#FCFF2C"/>
<path d="M8.52515 5.75647V5.6333H8.65126V5.75647H8.52515ZM8.65126 5.6333H8.52515V5.69489H8.65126V5.6333Z" fill="black"/>
<path d="M8.58813 6.00057C8.58813 5.81689 8.71351 5.81689 8.71351 5.81689C8.71351 5.81689 8.83888 5.87812 8.83888 6.00057H8.58813Z" fill="#FCFF2C"/>
<path d="M8.52515 5.81689V6.00057H8.65052C8.65052 5.81689 8.77589 5.81689 8.77589 5.81689C8.77589 5.81689 8.90126 5.87812 8.90126 6.00057H9.02663V5.81689H8.52515Z" fill="#FCFF2C"/>
<path d="M9.02663 6.00057H8.90126C8.90126 5.87812 8.77589 5.81689 8.77589 5.81689C8.77589 5.81689 8.65052 5.81689 8.65052 6.00057H8.52515V5.81689H8.96395L9.02663 6.00057ZM8.7132 5.81689H8.52515V6.00057H8.65052C8.58783 5.87812 8.7132 5.81689 8.7132 5.81689ZM8.77589 5.81689C8.83858 5.81689 8.90126 5.87812 8.90126 6.00057H9.02663V5.81689H8.77589Z" fill="black"/>
<path d="M8.46265 6.00049H8.96413H8.46265C8.46265 6.06243 8.46265 6.06243 8.46265 6.00049Z" fill="#FCFF2C"/>
<path d="M9.02682 6.06243H8.52533V6.00049H9.02682C9.02682 6.00049 9.02682 6.00049 9.02682 6.06243ZM8.46265 6.00049H8.96413H8.46265Z" fill="black"/>
<path d="M8.65088 6.0011C8.65088 5.87793 8.71393 5.87793 8.71393 5.87793C8.71393 5.87793 8.77699 5.87793 8.77699 6.0011H8.65088Z" fill="#FCFF2C"/>
<path d="M8.83894 6.00038H8.71356C8.71356 5.87793 8.77625 5.87793 8.77625 5.87793C8.77625 5.87793 8.83894 5.87793 8.83894 6.00038ZM8.71356 5.87793C8.71356 5.87793 8.65088 5.87793 8.65088 6.00038H8.77625C8.77625 5.93915 8.71356 5.87793 8.71356 5.87793Z" fill="black"/>
<path d="M8.52493 5.75537H9.02642H8.52493C8.52493 5.81731 8.46224 5.81731 8.52493 5.75537C8.46224 5.81731 8.52493 5.75537 8.52493 5.75537Z" fill="#FCFF2C"/>
<path d="M8.96413 5.81731H8.46265H8.96413C8.96413 5.75537 9.02682 5.75537 8.96413 5.81731C9.02682 5.81731 8.96413 5.81731 8.96413 5.81731ZM8.52533 5.75537H9.02682H8.52533Z" fill="black"/>
<path d="M6.01758 7.04072H6.08026H6.01758L6.08026 6.97949L6.14295 7.04072L6.01758 7.16317C6.08026 7.10194 6.08026 7.10194 6.01758 7.04072Z" fill="#FCFF2C"/>
<path d="M6.08026 7.10213L6.01758 7.04091V6.97968V6.91846L6.08026 6.97968V7.10213ZM6.01758 7.04091L6.08026 7.10213L6.01758 7.04091L6.14295 6.97968L6.08026 6.91846L6.01758 7.04091Z" fill="black"/>
<path d="M6.14301 6.97949L6.33107 7.10194L6.20569 7.22439L6.08032 7.10194L6.14301 6.97949Z" fill="#FCFF2C"/>
<path d="M6.20569 7.22439L6.08032 7.10194L6.14301 7.04072L6.26838 7.16317L6.20569 7.22439ZM6.14301 6.97949L6.08032 7.04072L6.20569 7.16317L6.26838 7.10194L6.14301 6.97949Z" fill="black"/>
<path d="M6.20605 6.98004H6.26911H6.20605L6.26911 6.91846L6.33216 6.98004L6.26911 7.04163C6.26911 7.04163 6.26911 7.04163 6.20605 6.98004Z" fill="#FCFF2C"/>
<path d="M6.26874 7.0411L6.20605 6.97987V6.91865V6.85742L6.26874 6.91865V7.0411ZM6.20605 6.97987L6.26874 7.0411L6.20605 6.97987L6.33143 6.91865L6.26874 6.85742L6.20605 6.97987Z" fill="black"/>
<path d="M6.33148 6.91846L6.45686 7.04091L6.33148 7.10213L6.2688 7.04091L6.33148 6.91846Z" fill="#FCFF2C"/>
<path d="M6.33148 7.10213L6.2688 7.04091L6.33148 6.91846L6.39417 6.97968L6.33148 7.10213ZM6.33148 6.97968L6.2688 7.04091L6.33148 7.10213L6.39417 7.04091L6.33148 6.97968Z" fill="black"/>
<path d="M5.95508 7.22529H6.01776H5.95508L6.01776 7.16406L6.08045 7.22529L5.95508 7.34774C6.01776 7.28651 6.01776 7.28651 5.95508 7.22529Z" fill="#FCFF2C"/>
<path d="M6.01776 7.28572L5.95508 7.2245H6.01776V7.16327V7.10205L6.08045 7.16327L6.01776 7.28572ZM5.95508 7.2245L6.01776 7.28572L5.95508 7.2245L6.08045 7.16327L6.01776 7.10205L5.95508 7.2245Z" fill="black"/>
<path d="M6.14295 7.16406L6.20564 7.22529L6.08026 7.34774L6.01758 7.22529L6.14295 7.16406Z" fill="#FCFF2C"/>
<path d="M6.08026 7.34774L6.01758 7.28651L6.08026 7.16406L6.14295 7.22529L6.08026 7.34774ZM6.14295 7.16406L6.08026 7.22529V7.34774L6.14295 7.28651V7.16406Z" fill="black"/>
<path d="M6.39403 7.46919C6.26866 7.34674 6.33135 7.22429 6.33135 7.22429C6.33135 7.22429 6.45672 7.16307 6.58209 7.28551L6.39403 7.46919Z" fill="#FCFF2C"/>
<path d="M6.14355 7.40817L6.26893 7.53062L6.33161 7.4694C6.20624 7.34695 6.26893 7.28572 6.26893 7.2245C6.26893 7.2245 6.3943 7.16327 6.51967 7.28572L6.58236 7.2245L6.45698 7.10205L6.14355 7.40817Z" fill="#FCFF2C"/>
<path d="M6.26893 7.53081L6.14355 7.34714L6.45698 7.04102L6.64504 7.16346L6.58236 7.28591C6.51967 7.22469 6.45698 7.22469 6.45698 7.22469C6.3943 7.22469 6.3943 7.22469 6.3943 7.22469C6.3943 7.22469 6.33161 7.34714 6.45698 7.40836L6.26893 7.53081ZM6.33161 7.22469L6.20624 7.34714L6.33161 7.46959L6.3943 7.40836C6.33161 7.40836 6.26893 7.34714 6.33161 7.22469C6.33161 7.28591 6.33161 7.22469 6.33161 7.22469ZM6.3943 7.22469C6.45698 7.22469 6.51967 7.22469 6.51967 7.28591L6.58236 7.22469L6.45698 7.10224L6.33161 7.22469H6.3943Z" fill="black"/>
<path d="M6.2688 7.53141L6.64491 7.16406C6.64491 7.16406 6.64491 7.16406 6.7076 7.16406C6.7076 7.16406 6.7076 7.16406 6.7076 7.22529L6.2688 7.53141C6.33148 7.59263 6.2688 7.59263 6.2688 7.53141C6.2688 7.59263 6.2688 7.53141 6.2688 7.53141Z" fill="#FCFF2C"/>
<path d="M6.33148 7.59263C6.2688 7.59263 6.2688 7.53141 6.33148 7.59263L6.64491 7.16406H6.7076V7.22529L6.33148 7.59263ZM6.64491 7.16406L6.2688 7.53141L6.64491 7.16406Z" fill="black"/>
<path d="M6.39435 7.40881C6.3313 7.34723 6.3313 7.28564 6.3313 7.28564C6.3313 7.28564 6.39435 7.28564 6.45741 7.34723L6.39435 7.40881Z" fill="#FCFF2C"/>
<path d="M6.39398 7.40826C6.3313 7.34704 6.3313 7.28581 6.3313 7.28581C6.3313 7.28581 6.39398 7.22459 6.45667 7.34704L6.39398 7.40826ZM6.39398 7.28581C6.39398 7.28581 6.39398 7.34704 6.45667 7.40826L6.58204 7.28581C6.45667 7.28581 6.39398 7.28581 6.39398 7.28581Z" fill="black"/>
<path d="M6.08032 7.34684L6.45644 6.97949L6.08032 7.34684C6.14301 7.40806 6.08032 7.40806 6.08032 7.34684Z" fill="#FCFF2C"/>
<path d="M6.14355 7.40806L6.45698 7.04072H6.51967C6.51967 7.04072 6.51967 7.04072 6.51967 7.10194L6.14355 7.40806ZM6.14355 7.34684L6.51967 6.97949L6.14355 7.34684Z" fill="black"/>
<path d="M6.14355 7.34714L6.45698 7.04102L6.14355 7.34714C6.14355 7.40836 6.14355 7.40836 6.14355 7.34714C6.14355 7.40836 6.14355 7.34714 6.14355 7.34714Z" fill="#FCFF2C"/>
<path d="M6.14355 7.40836C6.14355 7.40836 6.14355 7.34714 6.14355 7.40836L6.45698 7.04102H6.51967C6.51967 7.04102 6.51967 7.04102 6.51967 7.10224L6.14355 7.40836ZM6.14355 7.40836L6.45698 7.10224L6.14355 7.40836Z" fill="black"/>
</svg>
