<svg width="28" height="28" viewBox="0 0 28 28" fill="none" xmlns="http://www.w3.org/2000/svg">
<path d="M12.666 23.0986H14.4502C15.1797 23.0986 15.751 22.6416 15.9268 21.9385L16.2783 20.4004L16.5068 20.3125L17.8516 21.1475C18.4668 21.5342 19.1963 21.4287 19.7148 20.9102L20.9453 19.6797C21.4727 19.1523 21.5605 18.4316 21.1738 17.8252L20.3389 16.4805L20.4268 16.2695L21.9648 15.9092C22.6592 15.7334 23.1162 15.1621 23.1162 14.4326V12.7012C23.1162 11.9717 22.668 11.4004 21.9648 11.2246L20.4355 10.8555L20.3477 10.627L21.1826 9.29102C21.5693 8.68457 21.4814 7.96387 20.9541 7.42773L19.7236 6.19727C19.2139 5.67871 18.4844 5.58203 17.8691 5.95996L16.5244 6.78613L16.2783 6.69824L15.9268 5.15137C15.751 4.44824 15.1797 4 14.4502 4H12.666C11.9277 4 11.3564 4.44824 11.1895 5.15137L10.8379 6.69824L10.5918 6.78613L9.24707 5.95996C8.62305 5.58203 7.90234 5.67871 7.39258 6.19727L6.15332 7.42773C5.63477 7.96387 5.53809 8.68457 5.9248 9.29102L6.75977 10.627L6.67188 10.8555L5.15137 11.2246C4.44824 11.4004 4 11.9717 4 12.7012V14.4326C4 15.1621 4.45703 15.7334 5.15137 15.9092L6.68945 16.2695L6.76855 16.4805L5.93359 17.8252C5.54688 18.4316 5.64355 19.1523 6.16211 19.6797L7.40137 20.9102C7.91113 21.4287 8.64062 21.5342 9.25586 21.1475L10.6006 20.3125L10.8379 20.4004L11.1895 21.9385C11.3564 22.6416 11.9277 23.0986 12.666 23.0986ZM12.8945 21.4814C12.7451 21.4814 12.666 21.4199 12.6484 21.2881L12.1211 19.126C11.5674 18.9941 11.0312 18.7656 10.6006 18.4932L8.70215 19.6621C8.58789 19.7324 8.48242 19.7236 8.37695 19.6182L7.4541 18.6953C7.34863 18.5986 7.34863 18.4932 7.41895 18.3789L8.58789 16.4805C8.3418 16.0586 8.11328 15.5312 7.98145 14.9775L5.81055 14.459C5.67871 14.4414 5.6084 14.3623 5.6084 14.2129V12.9121C5.6084 12.7539 5.66992 12.6924 5.81055 12.6572L7.97266 12.1475C8.10449 11.5586 8.35938 11.0137 8.5791 10.6182L7.41016 8.7373C7.33984 8.61426 7.33984 8.50879 7.43652 8.40332L8.36816 7.48926C8.47363 7.39258 8.57031 7.375 8.70215 7.4541L10.583 8.60547C10.9785 8.35938 11.5674 8.11328 12.1299 7.97266L12.6484 5.81055C12.666 5.67871 12.7451 5.6084 12.8945 5.6084H14.2217C14.3711 5.6084 14.4414 5.66992 14.4678 5.81055L14.9951 7.98145C15.5664 8.12207 16.085 8.35938 16.5244 8.60547L18.4053 7.4541C18.5371 7.38379 18.6338 7.39258 18.7393 7.49805L19.6709 8.41211C19.7764 8.50879 19.7764 8.61426 19.6973 8.7373L18.5371 10.6182C18.748 11.0137 19.0117 11.5586 19.1436 12.1475L21.3057 12.6572C21.4463 12.6924 21.499 12.7539 21.499 12.9121V14.2129C21.499 14.3623 21.4375 14.4414 21.3057 14.459L19.1348 14.9775C19.0029 15.5312 18.7656 16.0674 18.5195 16.4805L19.6885 18.3701C19.7588 18.4932 19.7588 18.5898 19.6533 18.6865L18.7305 19.6182C18.625 19.7236 18.5195 19.7324 18.4053 19.6621L16.5156 18.4932C16.0762 18.7656 15.5752 18.9854 14.9951 19.126L14.4678 21.2881C14.4414 21.4199 14.3711 21.4814 14.2217 21.4814H12.8945ZM13.5625 16.8848C15.3906 16.8848 16.8936 15.3818 16.8936 13.5449C16.8936 11.7256 15.3906 10.2227 13.5625 10.2227C11.7256 10.2227 10.2139 11.7256 10.2139 13.5449C10.2139 15.3818 11.7256 16.8848 13.5625 16.8848ZM13.5625 15.3643C12.5605 15.3643 11.7432 14.5469 11.7432 13.5449C11.7432 12.5605 12.5693 11.7432 13.5625 11.7432C14.5381 11.7432 15.3555 12.5605 15.3555 13.5449C15.3555 14.5381 14.5381 15.3643 13.5625 15.3643Z" fill="#1D1D1F"/>
</svg>
