<svg width="16" height="16" viewBox="0 0 16 16" fill="none" xmlns="http://www.w3.org/2000/svg">
<path fill-rule="evenodd" clip-rule="evenodd" d="M12.3639 1.45455C11.5606 1.45455 10.9094 2.10577 10.9094 2.90909C10.9094 3.71241 11.5606 4.36364 12.3639 4.36364C13.1672 4.36364 13.8185 3.71241 13.8185 2.90909C13.8185 2.10577 13.1672 1.45455 12.3639 1.45455ZM9.45481 2.90909C9.45481 1.30244 10.7573 0 12.3639 0C13.9706 0 15.273 1.30244 15.273 2.90909C15.273 4.51574 13.9706 5.81818 12.3639 5.81818C10.7573 5.81818 9.45481 4.51574 9.45481 2.90909Z" fill="#1D1D1F"/>
<path fill-rule="evenodd" clip-rule="evenodd" d="M3.63663 6.54545C2.83331 6.54545 2.18208 7.19668 2.18208 8C2.18208 8.80332 2.83331 9.45455 3.63663 9.45455C4.43995 9.45455 5.09118 8.80332 5.09118 8C5.09118 7.19668 4.43995 6.54545 3.63663 6.54545ZM0.727539 8C0.727539 6.39335 2.02998 5.09091 3.63663 5.09091C5.24328 5.09091 6.54572 6.39335 6.54572 8C6.54572 9.60665 5.24328 10.9091 3.63663 10.9091C2.02998 10.9091 0.727539 9.60665 0.727539 8Z" fill="#1D1D1F"/>
<path fill-rule="evenodd" clip-rule="evenodd" d="M12.3639 11.6364C11.5606 11.6364 10.9094 12.2876 10.9094 13.0909C10.9094 13.8942 11.5606 14.5455 12.3639 14.5455C13.1672 14.5455 13.8185 13.8942 13.8185 13.0909C13.8185 12.2876 13.1672 11.6364 12.3639 11.6364ZM9.45481 13.0909C9.45481 11.4843 10.7573 10.1818 12.3639 10.1818C13.9706 10.1818 15.273 11.4843 15.273 13.0909C15.273 14.6976 13.9706 16 12.3639 16C10.7573 16 9.45481 14.6976 9.45481 13.0909Z" fill="#1D1D1F"/>
<path fill-rule="evenodd" clip-rule="evenodd" d="M5.18755 8.98948C5.38978 8.64244 5.83505 8.52505 6.18209 8.72727L10.5457 11.2727C10.8928 11.475 11.0102 11.9202 10.8079 12.2673C10.6057 12.6143 10.1604 12.7317 9.81339 12.5295L5.44975 9.98401C5.10272 9.78178 4.98532 9.33652 5.18755 8.98948Z" fill="#1D1D1F"/>
<path fill-rule="evenodd" clip-rule="evenodd" d="M10.8073 3.73257C11.0097 4.07948 10.8926 4.52482 10.5457 4.72727L6.18794 7.43809C5.84103 7.64054 5.39569 7.52343 5.19324 7.17652C4.99079 6.82961 5.1079 6.38427 5.45481 6.18182L9.81259 3.471C10.1595 3.26855 10.6048 3.38566 10.8073 3.73257Z" fill="#1D1D1F"/>
</svg>
