<svg width="21" height="12" viewBox="0 0 21 12" fill="none" xmlns="http://www.w3.org/2000/svg">
<path d="M21 0H0V12H21V0Z" fill="#D00027"/>
<path d="M6.12524 3C7.81275 3 9.18774 4.34694 9.18774 6C9.18774 7.65306 7.81275 9 6.12524 9C4.43774 9 3.06274 7.65306 3.06274 6C3.06274 4.34694 4.43774 3 6.12524 3Z" fill="white"/>
<path d="M6.87524 3.6123C8.25024 3.6123 9.31274 4.71435 9.31274 6.00006C9.31274 7.347 8.18774 8.38781 6.87524 8.38781C5.50024 8.38781 4.43774 7.28577 4.43774 6.00006C4.43774 4.65312 5.56274 3.6123 6.87524 3.6123Z" fill="#D00027"/>
<path d="M8.6875 6.00027L10.1875 6.42884L10.375 5.75537L8.6875 6.00027Z" fill="white"/>
<path d="M8.6875 6.00005L10.1875 5.51025L10.375 6.24495L8.6875 6.00005Z" fill="white"/>
<path d="M9.75024 4.5918V6.06118H10.5002L9.75024 4.5918Z" fill="white"/>
<path d="M9.75024 4.5918L10.6877 5.75506L10.0627 6.24486L9.75024 4.5918Z" fill="white"/>
<path d="M9.75024 7.40843L10.6877 6.18394L10.0627 5.75537L9.75024 7.40843Z" fill="white"/>
<path d="M9.75024 7.40835V5.93896H10.5002L9.75024 7.40835Z" fill="white"/>
<path d="M11.5002 5.14307L10.0002 5.57164L10.2502 6.30633L11.5002 5.14307Z" fill="white"/>
<path d="M11.5 5.14307L10.5625 6.30633L9.9375 5.87776L11.5 5.14307Z" fill="white"/>
<path d="M11.5 6.8573L10.5625 5.63281L9.9375 6.12261L11.5 6.8573Z" fill="white"/>
<path d="M11.5002 6.8576L10.0002 6.42903L10.2502 5.69434L11.5002 6.8576Z" fill="white"/>
</svg>
