<svg width="28" height="28" viewBox="0 0 28 28" fill="none" xmlns="http://www.w3.org/2000/svg">
<path d="M16.8955 17.0078V18.7656H21.0176C23.7773 18.7656 25.4648 17.1309 25.4648 14.8984C25.4648 13.0352 24.4014 11.5322 22.6523 10.8379C22.6611 6.86523 19.7959 4 16.1133 4C13.7754 4 12.0176 5.2041 10.9189 6.79492C8.81836 6.27637 6.33984 7.86719 6.25195 10.3457C4.23926 10.6885 3 12.3584 3 14.4854C3 16.8496 4.80176 18.7656 7.72852 18.7656H11.5342V17.0078H7.72852C5.8125 17.0078 4.77539 15.8652 4.77539 14.4502C4.77539 12.8066 5.85645 11.6553 7.64941 11.6553C7.78125 11.6553 7.83398 11.585 7.8252 11.4619C7.77246 8.84277 9.64453 7.99902 11.5342 8.55273C11.6484 8.5791 11.7188 8.56152 11.7715 8.46484C12.6152 6.92676 13.9248 5.74902 16.1045 5.74902C18.8643 5.74902 20.833 7.9375 20.9648 10.4951C20.9912 10.9609 20.9561 11.4795 20.9209 11.9014C20.9033 12.0244 20.9561 12.0947 21.0703 12.1123C22.6787 12.4199 23.6895 13.3516 23.6895 14.8193C23.6895 16.1025 22.793 17.0078 20.9824 17.0078H16.8955ZM14.2148 23.1602C14.6719 23.1602 15.041 22.791 15.041 22.3516V14.2568L14.9531 12.6924L15.5156 13.3428L16.7373 14.5732C16.8867 14.7314 17.0889 14.8193 17.291 14.8193C17.6953 14.8193 18.0293 14.5205 18.0293 14.1074C18.0293 13.8965 17.9502 13.7295 17.792 13.5889L14.8389 10.8115C14.6191 10.6094 14.4346 10.5303 14.2148 10.5303C14.0039 10.5303 13.8105 10.6094 13.5908 10.8115L10.6377 13.5889C10.4795 13.7295 10.4092 13.8965 10.4092 14.1074C10.4092 14.5205 10.7344 14.8193 11.1387 14.8193C11.3408 14.8193 11.543 14.7314 11.6924 14.5732L12.9141 13.3428L13.4854 12.6924L13.3887 14.2568V22.3516C13.3887 22.791 13.7666 23.1602 14.2148 23.1602Z" fill="#1D1D1F"/>
</svg>
